G04 #@! TF.GenerationSoftware,KiCad,Pcbnew,(6.0.11-0)*
G04 #@! TF.CreationDate,2023-06-20T14:36:58+02:00*
G04 #@! TF.ProjectId,atf1504_plcc44_breakout,61746631-3530-4345-9f70-6c636334345f,A*
G04 #@! TF.SameCoordinates,Original*
G04 #@! TF.FileFunction,Copper,L1,Top*
G04 #@! TF.FilePolarity,Positive*
%FSLAX46Y46*%
G04 Gerber Fmt 4.6, Leading zero omitted, Abs format (unit mm)*
G04 Created by KiCad (PCBNEW (6.0.11-0)) date 2023-06-20 14:36:58*
%MOMM*%
%LPD*%
G01*
G04 APERTURE LIST*
G04 Aperture macros list*
%AMRoundRect*
0 Rectangle with rounded corners*
0 $1 Rounding radius*
0 $2 $3 $4 $5 $6 $7 $8 $9 X,Y pos of 4 corners*
0 Add a 4 corners polygon primitive as box body*
4,1,4,$2,$3,$4,$5,$6,$7,$8,$9,$2,$3,0*
0 Add four circle primitives for the rounded corners*
1,1,$1+$1,$2,$3*
1,1,$1+$1,$4,$5*
1,1,$1+$1,$6,$7*
1,1,$1+$1,$8,$9*
0 Add four rect primitives between the rounded corners*
20,1,$1+$1,$2,$3,$4,$5,0*
20,1,$1+$1,$4,$5,$6,$7,0*
20,1,$1+$1,$6,$7,$8,$9,0*
20,1,$1+$1,$8,$9,$2,$3,0*%
G04 Aperture macros list end*
G04 #@! TA.AperFunction,ComponentPad*
%ADD10R,1.422400X1.422400*%
G04 #@! TD*
G04 #@! TA.AperFunction,ComponentPad*
%ADD11C,1.422400*%
G04 #@! TD*
G04 #@! TA.AperFunction,ComponentPad*
%ADD12RoundRect,0.250000X-0.600000X-0.600000X0.600000X-0.600000X0.600000X0.600000X-0.600000X0.600000X0*%
G04 #@! TD*
G04 #@! TA.AperFunction,ComponentPad*
%ADD13C,1.700000*%
G04 #@! TD*
G04 #@! TA.AperFunction,ComponentPad*
%ADD14R,1.700000X1.700000*%
G04 #@! TD*
G04 #@! TA.AperFunction,ComponentPad*
%ADD15O,1.700000X1.700000*%
G04 #@! TD*
G04 #@! TA.AperFunction,ViaPad*
%ADD16C,0.800000*%
G04 #@! TD*
G04 #@! TA.AperFunction,ViaPad*
%ADD17C,0.600000*%
G04 #@! TD*
G04 #@! TA.AperFunction,Conductor*
%ADD18C,0.254000*%
G04 #@! TD*
G04 #@! TA.AperFunction,Conductor*
%ADD19C,0.152400*%
G04 #@! TD*
G04 APERTURE END LIST*
D10*
X116586000Y-55880000D03*
D11*
X114046000Y-53340000D03*
X114046000Y-55880000D03*
X111506000Y-53340000D03*
X111506000Y-55880000D03*
X108966000Y-53340000D03*
X106426000Y-55880000D03*
X108966000Y-55880000D03*
X106426000Y-58420000D03*
X108966000Y-58420000D03*
X106426000Y-60960000D03*
X108966000Y-60960000D03*
X106426000Y-63500000D03*
X108966000Y-63500000D03*
X106426000Y-66040000D03*
X108966000Y-66040000D03*
X106426000Y-68580000D03*
X108966000Y-71120000D03*
X108966000Y-68580000D03*
X111506000Y-71120000D03*
X111506000Y-68580000D03*
X114046000Y-71120000D03*
X114046000Y-68580000D03*
X116586000Y-71120000D03*
X116586000Y-68580000D03*
X119126000Y-71120000D03*
X119126000Y-68580000D03*
X121666000Y-71120000D03*
X124206000Y-68580000D03*
X121666000Y-68580000D03*
X124206000Y-66040000D03*
X121666000Y-66040000D03*
X124206000Y-63500000D03*
X121666000Y-63500000D03*
X124206000Y-60960000D03*
X121666000Y-60960000D03*
X124206000Y-58420000D03*
X121666000Y-58420000D03*
X124206000Y-55880000D03*
X121666000Y-53340000D03*
X121666000Y-55880000D03*
X119126000Y-53340000D03*
X119126000Y-55880000D03*
X116586000Y-53340000D03*
D12*
X96774000Y-57150000D03*
D13*
X99314000Y-57150000D03*
X96774000Y-59690000D03*
X99314000Y-59690000D03*
X96774000Y-62230000D03*
X99314000Y-62230000D03*
X96774000Y-64770000D03*
X99314000Y-64770000D03*
X96774000Y-67310000D03*
X99314000Y-67310000D03*
D14*
X129535000Y-71120000D03*
D15*
X132075000Y-71120000D03*
X134615000Y-71120000D03*
X137155000Y-71120000D03*
X139695000Y-71120000D03*
X142235000Y-71120000D03*
X144775000Y-71120000D03*
X147315000Y-71120000D03*
X149855000Y-71120000D03*
X152395000Y-71120000D03*
X154935000Y-71120000D03*
X157475000Y-71120000D03*
X160015000Y-71120000D03*
X162555000Y-71120000D03*
X165095000Y-71120000D03*
X167635000Y-71120000D03*
X170175000Y-71120000D03*
X172715000Y-71120000D03*
D14*
X129540000Y-53340000D03*
D15*
X132080000Y-53340000D03*
X134620000Y-53340000D03*
X137160000Y-53340000D03*
X139700000Y-53340000D03*
X142240000Y-53340000D03*
X144780000Y-53340000D03*
X147320000Y-53340000D03*
X149860000Y-53340000D03*
X152400000Y-53340000D03*
X154940000Y-53340000D03*
X157480000Y-53340000D03*
X160020000Y-53340000D03*
X162560000Y-53340000D03*
X165100000Y-53340000D03*
X167640000Y-53340000D03*
X170180000Y-53340000D03*
X172720000Y-53340000D03*
D16*
X116088723Y-62958217D03*
X115767783Y-61397217D03*
X116812730Y-60910771D03*
X117221000Y-63246000D03*
D17*
X111760000Y-66421000D03*
X110490000Y-57912000D03*
X113030000Y-58039000D03*
X135636000Y-56515000D03*
X133604000Y-56515000D03*
X126238002Y-55880000D03*
X132842000Y-57277000D03*
X143637000Y-58547000D03*
X152781000Y-64516000D03*
X152463500Y-63563500D03*
X136398000Y-66421000D03*
X133048300Y-68532300D03*
X130302000Y-69716498D03*
X131445000Y-69850000D03*
X120523000Y-58801000D03*
X127000000Y-58293000D03*
X119888000Y-60452000D03*
X127381000Y-60706000D03*
X120269000Y-61214000D03*
X126492000Y-60833000D03*
D18*
X115767783Y-62637277D02*
X116088723Y-62958217D01*
X115767783Y-61397217D02*
X115767783Y-62637277D01*
X117221000Y-63246000D02*
X117221000Y-61319041D01*
X117221000Y-61319041D02*
X116812730Y-60910771D01*
D19*
X112141000Y-66040000D02*
X111760000Y-66421000D01*
X121666000Y-66040000D02*
X112141000Y-66040000D01*
X98235400Y-61151400D02*
X102043600Y-61151400D01*
X96774000Y-59690000D02*
X98235400Y-61151400D01*
X121124366Y-58062903D02*
X121261097Y-58062903D01*
X113231204Y-58240204D02*
X120947064Y-58240204D01*
X105918000Y-57277000D02*
X109855000Y-57277000D01*
X120947064Y-58240204D02*
X121124366Y-58062903D01*
X109855000Y-57277000D02*
X110490000Y-57912000D01*
X102043600Y-61151400D02*
X105918000Y-57277000D01*
X113030000Y-58039000D02*
X113231204Y-58240204D01*
X96774000Y-62230000D02*
X98044000Y-63500000D01*
X98044000Y-63500000D02*
X106426000Y-63500000D01*
X95695400Y-66231400D02*
X95695400Y-59117600D01*
X96303200Y-58509800D02*
X103796200Y-58509800D01*
X96774000Y-67310000D02*
X95695400Y-66231400D01*
X95695400Y-59117600D02*
X96303200Y-58509800D01*
X103796200Y-58509800D02*
X106426000Y-55880000D01*
X127761046Y-54940699D02*
X126745046Y-53924699D01*
X122809954Y-54305699D02*
X117551699Y-54305699D01*
X123190954Y-53924699D02*
X122809954Y-54305699D01*
X126745046Y-53924699D02*
X123190954Y-53924699D01*
X117551699Y-54305699D02*
X116586000Y-53340000D01*
X132080000Y-53340000D02*
X130479301Y-54940699D01*
X130479301Y-54940699D02*
X127761046Y-54940699D01*
X126467598Y-54331598D02*
X127409999Y-55273999D01*
X132686001Y-55273999D02*
X134620000Y-53340000D01*
X119126000Y-55880000D02*
X120396000Y-54610000D01*
X120396000Y-54610000D02*
X122964308Y-54610000D01*
X123242710Y-54331598D02*
X126467598Y-54331598D01*
X127409999Y-55273999D02*
X132686001Y-55273999D01*
X122964308Y-54610000D02*
X123242710Y-54331598D01*
X126187200Y-54940200D02*
X127203699Y-55956699D01*
X127203699Y-55956699D02*
X135077699Y-55956699D01*
X135077699Y-55956699D02*
X135636000Y-56515000D01*
X122555000Y-55880000D02*
X123494800Y-54940200D01*
X123494800Y-54940200D02*
X126187200Y-54940200D01*
X121666000Y-55880000D02*
X122555000Y-55880000D01*
X126619000Y-56261000D02*
X133350000Y-56261000D01*
X126238002Y-55880000D02*
X126619000Y-56261000D01*
X133350000Y-56261000D02*
X133604000Y-56515000D01*
X132130301Y-56565301D02*
X132842000Y-57277000D01*
X124206000Y-55880000D02*
X124891301Y-56565301D01*
X124891301Y-56565301D02*
X132130301Y-56565301D01*
X124918697Y-59132697D02*
X143051303Y-59132697D01*
X124206000Y-58420000D02*
X124918697Y-59132697D01*
X143051303Y-59132697D02*
X143637000Y-58547000D01*
X122580400Y-60045600D02*
X121666000Y-60960000D01*
X161925000Y-61595000D02*
X126365000Y-61595000D01*
X170180000Y-53340000D02*
X161925000Y-61595000D01*
X124815600Y-60045600D02*
X122580400Y-60045600D01*
X126365000Y-61595000D02*
X124815600Y-60045600D01*
X122657598Y-64491598D02*
X152756598Y-64491598D01*
X152756598Y-64491598D02*
X152781000Y-64516000D01*
X121666000Y-63500000D02*
X122657598Y-64491598D01*
X152400000Y-63500000D02*
X152463500Y-63563500D01*
X124206000Y-63500000D02*
X152400000Y-63500000D01*
X124206000Y-66040000D02*
X136017000Y-66040000D01*
X136017000Y-66040000D02*
X136398000Y-66421000D01*
X124206000Y-68580000D02*
X124764301Y-68021699D01*
X124764301Y-68021699D02*
X132537699Y-68021699D01*
X132537699Y-68021699D02*
X133048300Y-68532300D01*
X128192346Y-69723000D02*
X130295498Y-69723000D01*
X126795346Y-71120000D02*
X128192346Y-69723000D01*
X130295498Y-69723000D02*
X130302000Y-69716498D01*
X121666000Y-71120000D02*
X126795346Y-71120000D01*
X119126000Y-68580000D02*
X120065800Y-67640200D01*
X120065800Y-67640200D02*
X136215200Y-67640200D01*
X136215200Y-67640200D02*
X139695000Y-71120000D01*
X127304800Y-70180200D02*
X128324202Y-69160798D01*
X130755798Y-69160798D02*
X131445000Y-69850000D01*
X120065800Y-70180200D02*
X127304800Y-70180200D01*
X119126000Y-71120000D02*
X120065800Y-70180200D01*
X128324202Y-69160798D02*
X130755798Y-69160798D01*
X132080000Y-68585000D02*
X134615000Y-71120000D01*
X125881402Y-69571598D02*
X127127000Y-68326000D01*
X132080000Y-68580000D02*
X132080000Y-68585000D01*
X116586000Y-68580000D02*
X117577598Y-69571598D01*
X117577598Y-69571598D02*
X125881402Y-69571598D01*
X127127000Y-68326000D02*
X131826000Y-68326000D01*
X131826000Y-68326000D02*
X132080000Y-68580000D01*
X127555700Y-68786300D02*
X131270300Y-68786300D01*
X117830101Y-69875899D02*
X126466101Y-69875899D01*
X126466101Y-69875899D02*
X127555700Y-68786300D01*
X132075000Y-69591000D02*
X132075000Y-71120000D01*
X116586000Y-71120000D02*
X117830101Y-69875899D01*
X131270300Y-68786300D02*
X132075000Y-69591000D01*
X135207300Y-57832700D02*
X132254700Y-57832700D01*
X139700000Y-53340000D02*
X135207300Y-57832700D01*
X121026627Y-56869602D02*
X120568928Y-57327301D01*
X132254700Y-57832700D02*
X131291602Y-56869602D01*
X118033301Y-57327301D02*
X116586000Y-55880000D01*
X120568928Y-57327301D02*
X118033301Y-57327301D01*
X131291602Y-56869602D02*
X121026627Y-56869602D01*
X120396000Y-55245000D02*
X120396000Y-56515000D01*
X127255646Y-55578300D02*
X126313245Y-54635899D01*
X118491000Y-56896000D02*
X117856000Y-56261000D01*
X117856000Y-55245000D02*
X117221000Y-54610000D01*
X115316000Y-54610000D02*
X114046000Y-53340000D01*
X117221000Y-54610000D02*
X115316000Y-54610000D01*
X120015000Y-56896000D02*
X118491000Y-56896000D01*
X134921700Y-55578300D02*
X127255646Y-55578300D01*
X120726699Y-54914301D02*
X120396000Y-55245000D01*
X123368755Y-54635899D02*
X123090353Y-54914301D01*
X117856000Y-56261000D02*
X117856000Y-55245000D01*
X120396000Y-56515000D02*
X120015000Y-56896000D01*
X126313245Y-54635899D02*
X123368755Y-54635899D01*
X123090353Y-54914301D02*
X120726699Y-54914301D01*
X137160000Y-53340000D02*
X134921700Y-55578300D01*
X128295899Y-57175899D02*
X129339794Y-58219794D01*
X137360206Y-58219794D02*
X142240000Y-53340000D01*
X120694974Y-57631602D02*
X121150677Y-57175899D01*
X115264701Y-56717701D02*
X116178602Y-57631602D01*
X115264701Y-55574701D02*
X115264701Y-56717701D01*
X129339794Y-58219794D02*
X137360206Y-58219794D01*
X121150677Y-57175899D02*
X128295899Y-57175899D01*
X113969800Y-54279800D02*
X115264701Y-55574701D01*
X116178602Y-57631602D02*
X120694974Y-57631602D01*
X111506000Y-53340000D02*
X112445800Y-54279800D01*
X112445800Y-54279800D02*
X113969800Y-54279800D01*
X112511788Y-55880000D02*
X114567691Y-57935903D01*
X139595905Y-58524095D02*
X144780000Y-53340000D01*
X127076200Y-57480200D02*
X128120095Y-58524095D01*
X114567691Y-57935903D02*
X120821019Y-57935903D01*
X120821019Y-57935903D02*
X121276722Y-57480200D01*
X111506000Y-55880000D02*
X112511788Y-55880000D01*
X128120095Y-58524095D02*
X139595905Y-58524095D01*
X121276722Y-57480200D02*
X127076200Y-57480200D01*
X141831604Y-58828396D02*
X147320000Y-53340000D01*
X127000000Y-58293000D02*
X127535396Y-58828396D01*
X110363000Y-54737000D02*
X110363000Y-56388000D01*
X110363000Y-56388000D02*
X112649000Y-58674000D01*
X108966000Y-53340000D02*
X110363000Y-54737000D01*
X127535396Y-58828396D02*
X141831604Y-58828396D01*
X120396000Y-58674000D02*
X120523000Y-58801000D01*
X112649000Y-58674000D02*
X120396000Y-58674000D01*
X112418879Y-59055000D02*
X119483121Y-59055000D01*
X109243879Y-55880000D02*
X112418879Y-59055000D01*
X119483121Y-59055000D02*
X119865119Y-59436998D01*
X119865119Y-59436998D02*
X143763002Y-59436998D01*
X143763002Y-59436998D02*
X149860000Y-53340000D01*
X106426000Y-58420000D02*
X107492301Y-59486301D01*
X107492301Y-59486301D02*
X119484076Y-59486301D01*
X119484076Y-59486301D02*
X119739074Y-59741299D01*
X119739074Y-59741299D02*
X145998701Y-59741299D01*
X145998701Y-59741299D02*
X152400000Y-53340000D01*
X106426000Y-60960000D02*
X107595398Y-59790602D01*
X154940000Y-53340000D02*
X147574000Y-60706000D01*
X147574000Y-60706000D02*
X127381000Y-60706000D01*
X107595398Y-59790602D02*
X119226602Y-59790602D01*
X119226602Y-59790602D02*
X119888000Y-60452000D01*
X118975121Y-61214000D02*
X120269000Y-61214000D01*
X108966000Y-60960000D02*
X109831097Y-60094903D01*
X126920700Y-61261700D02*
X149558300Y-61261700D01*
X117856024Y-60094903D02*
X118975121Y-61214000D01*
X126492000Y-60833000D02*
X126920700Y-61261700D01*
X149558300Y-61261700D02*
X157480000Y-53340000D01*
X109831097Y-60094903D02*
X117856024Y-60094903D01*
X155926099Y-61951099D02*
X120604515Y-61951099D01*
X120604515Y-61951099D02*
X118420614Y-64135000D01*
X118420614Y-64135000D02*
X109601000Y-64135000D01*
X109601000Y-64135000D02*
X108966000Y-63500000D01*
X165095000Y-71120000D02*
X155926099Y-61951099D01*
X153690899Y-62255899D02*
X120730062Y-62255899D01*
X162555000Y-71120000D02*
X153690899Y-62255899D01*
X120730062Y-62255899D02*
X118495860Y-64490101D01*
X118495860Y-64490101D02*
X110515899Y-64490101D01*
X110515899Y-64490101D02*
X108966000Y-66040000D01*
X110468698Y-65454610D02*
X110468698Y-66343610D01*
X108026200Y-66979800D02*
X106426000Y-68580000D01*
X152657281Y-62560200D02*
X121237107Y-62560200D01*
X109832508Y-66979800D02*
X108026200Y-66979800D01*
X160015000Y-69917919D02*
X152657281Y-62560200D01*
X110468698Y-66343610D02*
X109832508Y-66979800D01*
X111128905Y-64794402D02*
X110468698Y-65454610D01*
X119002905Y-64794402D02*
X111128905Y-64794402D01*
X121237107Y-62560200D02*
X119002905Y-64794402D01*
X160015000Y-71120000D02*
X160015000Y-69917919D01*
X108610899Y-67284101D02*
X109958553Y-67284101D01*
X110772999Y-66469655D02*
X110772999Y-65580655D01*
X107950000Y-70104000D02*
X107950000Y-67945000D01*
X119128951Y-65098703D02*
X119431754Y-64795899D01*
X151150899Y-64795899D02*
X157475000Y-71120000D01*
X109958553Y-67284101D02*
X110772999Y-66469655D01*
X108966000Y-71120000D02*
X107950000Y-70104000D01*
X110772999Y-65580655D02*
X111254951Y-65098703D01*
X119431754Y-64795899D02*
X151150899Y-64795899D01*
X107950000Y-67945000D02*
X108610899Y-67284101D01*
X111254951Y-65098703D02*
X119128951Y-65098703D01*
X111077300Y-66595700D02*
X111077300Y-65706700D01*
X109522115Y-68150885D02*
X111077300Y-66595700D01*
X148915200Y-65100200D02*
X154935000Y-71120000D01*
X119557800Y-65100200D02*
X148915200Y-65100200D01*
X111380996Y-65403004D02*
X119254997Y-65403004D01*
X119254997Y-65403004D02*
X119557800Y-65100200D01*
X109522115Y-68580000D02*
X109522115Y-68150885D01*
X111077300Y-65706700D02*
X111380996Y-65403004D01*
X148304602Y-67029602D02*
X152395000Y-71120000D01*
X110566200Y-68122800D02*
X111659398Y-67029602D01*
X111506000Y-71120000D02*
X110566200Y-70180200D01*
X111659398Y-67029602D02*
X148304602Y-67029602D01*
X110566200Y-70180200D02*
X110566200Y-68122800D01*
X149855000Y-71120000D02*
X146068903Y-67333903D01*
X112752097Y-67333903D02*
X111506000Y-68580000D01*
X146068903Y-67333903D02*
X112752097Y-67333903D01*
M02*
