%TF.GenerationSoftware,KiCad,Pcbnew,7.0.5-0*%
%TF.CreationDate,2023-06-22T12:24:31+02:00*%
%TF.ProjectId,atf1504_plcc44_breakout,61746631-3530-4345-9f70-6c636334345f,A*%
%TF.SameCoordinates,Original*%
%TF.FileFunction,Drillmap*%
%TF.FilePolarity,Positive*%
%FSLAX45Y45*%
G04 Gerber Fmt 4.5, Leading zero omitted, Abs format (unit mm)*
G04 Created by KiCad (PCBNEW 7.0.5-0) date 2023-06-22 12:24:31*
%MOMM*%
%LPD*%
G01*
G04 APERTURE LIST*
%ADD10C,0.100000*%
%ADD11C,0.200000*%
%ADD12C,0.030000*%
%ADD13C,0.040000*%
%ADD14C,0.060000*%
%ADD15C,0.080000*%
G04 APERTURE END LIST*
D10*
X9334500Y-5207000D02*
X17399000Y-5207000D01*
X17399000Y-7239000D01*
X9334500Y-7239000D01*
X9334500Y-5207000D01*
D11*
D12*
X11034000Y-5776200D02*
X11064000Y-5806200D01*
X11064000Y-5776200D02*
X11034000Y-5806200D01*
X11161000Y-6627100D02*
X11191000Y-6657100D01*
X11191000Y-6627100D02*
X11161000Y-6657100D01*
X11288000Y-5788900D02*
X11318000Y-5818900D01*
X11318000Y-5788900D02*
X11288000Y-5818900D01*
X11973800Y-6030200D02*
X12003800Y-6060200D01*
X12003800Y-6030200D02*
X11973800Y-6060200D01*
X12011900Y-6106400D02*
X12041900Y-6136400D01*
X12041900Y-6106400D02*
X12011900Y-6136400D01*
X12037300Y-5865100D02*
X12067300Y-5895100D01*
X12067300Y-5865100D02*
X12037300Y-5895100D01*
X12608800Y-5573000D02*
X12638800Y-5603000D01*
X12638800Y-5573000D02*
X12608800Y-5603000D01*
X12634200Y-6068300D02*
X12664200Y-6098300D01*
X12664200Y-6068300D02*
X12634200Y-6098300D01*
X12685000Y-5814300D02*
X12715000Y-5844300D01*
X12715000Y-5814300D02*
X12685000Y-5844300D01*
X12710400Y-6030200D02*
X12740400Y-6060200D01*
X12740400Y-6030200D02*
X12710400Y-6060200D01*
X13015200Y-6956650D02*
X13045200Y-6986650D01*
X13045200Y-6956650D02*
X13015200Y-6986650D01*
X13129500Y-6970000D02*
X13159500Y-7000000D01*
X13159500Y-6970000D02*
X13129500Y-7000000D01*
X13269200Y-5712700D02*
X13299200Y-5742700D01*
X13299200Y-5712700D02*
X13269200Y-5742700D01*
X13289830Y-6838230D02*
X13319830Y-6868230D01*
X13319830Y-6838230D02*
X13289830Y-6868230D01*
X13320000Y-5446000D02*
X13350000Y-5476000D01*
X13350000Y-5446000D02*
X13320000Y-5476000D01*
X13345400Y-5636500D02*
X13375400Y-5666500D01*
X13375400Y-5636500D02*
X13345400Y-5666500D01*
X13548600Y-5636500D02*
X13578600Y-5666500D01*
X13578600Y-5636500D02*
X13548600Y-5666500D01*
X13624800Y-6627100D02*
X13654800Y-6657100D01*
X13654800Y-6627100D02*
X13624800Y-6657100D01*
X14348700Y-5839700D02*
X14378700Y-5869700D01*
X14378700Y-5839700D02*
X14348700Y-5869700D01*
X15021800Y-6341350D02*
X15051800Y-6371350D01*
X15051800Y-6341350D02*
X15021800Y-6371350D01*
X15148800Y-6411199D02*
X15178800Y-6441199D01*
X15178800Y-6411199D02*
X15148800Y-6441199D01*
X16545800Y-5928599D02*
X16575800Y-5958599D01*
X16575800Y-5928599D02*
X16545800Y-5958599D01*
D13*
X11596778Y-6139722D02*
G75*
G03*
X11596778Y-6139722I-20000J0D01*
G01*
X11628872Y-6295822D02*
G75*
G03*
X11628872Y-6295822I-20000J0D01*
G01*
X11701273Y-6091077D02*
G75*
G03*
X11701273Y-6091077I-20000J0D01*
G01*
X11742100Y-6324600D02*
G75*
G03*
X11742100Y-6324600I-20000J0D01*
G01*
X16359600Y-6172200D02*
G75*
G03*
X16359600Y-6172200I-20000J0D01*
G01*
X16657000Y-6502400D02*
G75*
G03*
X16657000Y-6502400I-20000J0D01*
G01*
D14*
X12983340Y-6205700D02*
X12983340Y-6265700D01*
X12953340Y-6235700D02*
X13013340Y-6235700D01*
X13133340Y-6205700D02*
X13133340Y-6265700D01*
X13103340Y-6235700D02*
X13163340Y-6235700D01*
D15*
X10670885Y-5616284D02*
X10670885Y-5559716D01*
X10614316Y-5559716D01*
X10614316Y-5616284D01*
X10670885Y-5616284D01*
X10670885Y-5870284D02*
X10670885Y-5813715D01*
X10614316Y-5813715D01*
X10614316Y-5870284D01*
X10670885Y-5870284D01*
X10670885Y-6124284D02*
X10670885Y-6067715D01*
X10614316Y-6067715D01*
X10614316Y-6124284D01*
X10670885Y-6124284D01*
X10670885Y-6378284D02*
X10670885Y-6321715D01*
X10614316Y-6321715D01*
X10614316Y-6378284D01*
X10670885Y-6378284D01*
X10670885Y-6632284D02*
X10670885Y-6575715D01*
X10614316Y-6575715D01*
X10614316Y-6632284D01*
X10670885Y-6632284D01*
X10670885Y-6886284D02*
X10670885Y-6829715D01*
X10614316Y-6829715D01*
X10614316Y-6886284D01*
X10670885Y-6886284D01*
X10924885Y-5362285D02*
X10924885Y-5305716D01*
X10868316Y-5305716D01*
X10868316Y-5362285D01*
X10924885Y-5362285D01*
X10924885Y-5616284D02*
X10924885Y-5559716D01*
X10868316Y-5559716D01*
X10868316Y-5616284D01*
X10924885Y-5616284D01*
X10924885Y-5870284D02*
X10924885Y-5813715D01*
X10868316Y-5813715D01*
X10868316Y-5870284D01*
X10924885Y-5870284D01*
X10924885Y-6124284D02*
X10924885Y-6067715D01*
X10868316Y-6067715D01*
X10868316Y-6124284D01*
X10924885Y-6124284D01*
X10924885Y-6378284D02*
X10924885Y-6321715D01*
X10868316Y-6321715D01*
X10868316Y-6378284D01*
X10924885Y-6378284D01*
X10924885Y-6632284D02*
X10924885Y-6575715D01*
X10868316Y-6575715D01*
X10868316Y-6632284D01*
X10924885Y-6632284D01*
X10924885Y-6886284D02*
X10924885Y-6829715D01*
X10868316Y-6829715D01*
X10868316Y-6886284D01*
X10924885Y-6886284D01*
X10924885Y-7140284D02*
X10924885Y-7083715D01*
X10868316Y-7083715D01*
X10868316Y-7140284D01*
X10924885Y-7140284D01*
X11178885Y-5362285D02*
X11178885Y-5305716D01*
X11122316Y-5305716D01*
X11122316Y-5362285D01*
X11178885Y-5362285D01*
X11178885Y-5616284D02*
X11178885Y-5559716D01*
X11122316Y-5559716D01*
X11122316Y-5616284D01*
X11178885Y-5616284D01*
X11178885Y-6886284D02*
X11178885Y-6829715D01*
X11122316Y-6829715D01*
X11122316Y-6886284D01*
X11178885Y-6886284D01*
X11178885Y-7140284D02*
X11178885Y-7083715D01*
X11122316Y-7083715D01*
X11122316Y-7140284D01*
X11178885Y-7140284D01*
X11432884Y-5362285D02*
X11432884Y-5305716D01*
X11376315Y-5305716D01*
X11376315Y-5362285D01*
X11432884Y-5362285D01*
X11432884Y-5616284D02*
X11432884Y-5559716D01*
X11376315Y-5559716D01*
X11376315Y-5616284D01*
X11432884Y-5616284D01*
X11432884Y-6886284D02*
X11432884Y-6829715D01*
X11376315Y-6829715D01*
X11376315Y-6886284D01*
X11432884Y-6886284D01*
X11432884Y-7140284D02*
X11432884Y-7083715D01*
X11376315Y-7083715D01*
X11376315Y-7140284D01*
X11432884Y-7140284D01*
X11686884Y-5362285D02*
X11686884Y-5305716D01*
X11630315Y-5305716D01*
X11630315Y-5362285D01*
X11686884Y-5362285D01*
X11686884Y-5616284D02*
X11686884Y-5559716D01*
X11630315Y-5559716D01*
X11630315Y-5616284D01*
X11686884Y-5616284D01*
X11686884Y-6886284D02*
X11686884Y-6829715D01*
X11630315Y-6829715D01*
X11630315Y-6886284D01*
X11686884Y-6886284D01*
X11686884Y-7140284D02*
X11686884Y-7083715D01*
X11630315Y-7083715D01*
X11630315Y-7140284D01*
X11686884Y-7140284D01*
X11940884Y-5362285D02*
X11940884Y-5305716D01*
X11884315Y-5305716D01*
X11884315Y-5362285D01*
X11940884Y-5362285D01*
X11940884Y-5616284D02*
X11940884Y-5559716D01*
X11884315Y-5559716D01*
X11884315Y-5616284D01*
X11940884Y-5616284D01*
X11940884Y-6886284D02*
X11940884Y-6829715D01*
X11884315Y-6829715D01*
X11884315Y-6886284D01*
X11940884Y-6886284D01*
X11940884Y-7140284D02*
X11940884Y-7083715D01*
X11884315Y-7083715D01*
X11884315Y-7140284D01*
X11940884Y-7140284D01*
X12194884Y-5362285D02*
X12194884Y-5305716D01*
X12138315Y-5305716D01*
X12138315Y-5362285D01*
X12194884Y-5362285D01*
X12194884Y-5616284D02*
X12194884Y-5559716D01*
X12138315Y-5559716D01*
X12138315Y-5616284D01*
X12194884Y-5616284D01*
X12194884Y-5870284D02*
X12194884Y-5813715D01*
X12138315Y-5813715D01*
X12138315Y-5870284D01*
X12194884Y-5870284D01*
X12194884Y-6124284D02*
X12194884Y-6067715D01*
X12138315Y-6067715D01*
X12138315Y-6124284D01*
X12194884Y-6124284D01*
X12194884Y-6378284D02*
X12194884Y-6321715D01*
X12138315Y-6321715D01*
X12138315Y-6378284D01*
X12194884Y-6378284D01*
X12194884Y-6632284D02*
X12194884Y-6575715D01*
X12138315Y-6575715D01*
X12138315Y-6632284D01*
X12194884Y-6632284D01*
X12194884Y-6886284D02*
X12194884Y-6829715D01*
X12138315Y-6829715D01*
X12138315Y-6886284D01*
X12194884Y-6886284D01*
X12194884Y-7140284D02*
X12194884Y-7083715D01*
X12138315Y-7083715D01*
X12138315Y-7140284D01*
X12194884Y-7140284D01*
X12448884Y-5616284D02*
X12448884Y-5559716D01*
X12392315Y-5559716D01*
X12392315Y-5616284D01*
X12448884Y-5616284D01*
X12448884Y-5870284D02*
X12448884Y-5813715D01*
X12392315Y-5813715D01*
X12392315Y-5870284D01*
X12448884Y-5870284D01*
X12448884Y-6124284D02*
X12448884Y-6067715D01*
X12392315Y-6067715D01*
X12392315Y-6124284D01*
X12448884Y-6124284D01*
X12448884Y-6378284D02*
X12448884Y-6321715D01*
X12392315Y-6321715D01*
X12392315Y-6378284D01*
X12448884Y-6378284D01*
X12448884Y-6632284D02*
X12448884Y-6575715D01*
X12392315Y-6575715D01*
X12392315Y-6632284D01*
X12448884Y-6632284D01*
X12448884Y-6886284D02*
X12448884Y-6829715D01*
X12392315Y-6829715D01*
X12392315Y-6886284D01*
X12448884Y-6886284D01*
D10*
X9677400Y-5765000D02*
X9727400Y-5715000D01*
X9677400Y-5665000D01*
X9627400Y-5715000D01*
X9677400Y-5765000D01*
X9677400Y-6019000D02*
X9727400Y-5969000D01*
X9677400Y-5919000D01*
X9627400Y-5969000D01*
X9677400Y-6019000D01*
X9677400Y-6273000D02*
X9727400Y-6223000D01*
X9677400Y-6173000D01*
X9627400Y-6223000D01*
X9677400Y-6273000D01*
X9677400Y-6527000D02*
X9727400Y-6477000D01*
X9677400Y-6427000D01*
X9627400Y-6477000D01*
X9677400Y-6527000D01*
X9677400Y-6781000D02*
X9727400Y-6731000D01*
X9677400Y-6681000D01*
X9627400Y-6731000D01*
X9677400Y-6781000D01*
X9931400Y-5765000D02*
X9981400Y-5715000D01*
X9931400Y-5665000D01*
X9881400Y-5715000D01*
X9931400Y-5765000D01*
X9931400Y-6019000D02*
X9981400Y-5969000D01*
X9931400Y-5919000D01*
X9881400Y-5969000D01*
X9931400Y-6019000D01*
X9931400Y-6273000D02*
X9981400Y-6223000D01*
X9931400Y-6173000D01*
X9881400Y-6223000D01*
X9931400Y-6273000D01*
X9931400Y-6527000D02*
X9981400Y-6477000D01*
X9931400Y-6427000D01*
X9881400Y-6477000D01*
X9931400Y-6527000D01*
X9931400Y-6781000D02*
X9981400Y-6731000D01*
X9931400Y-6681000D01*
X9881400Y-6731000D01*
X9931400Y-6781000D01*
X12953500Y-7162000D02*
X13003500Y-7112000D01*
X12953500Y-7062000D01*
X12903500Y-7112000D01*
X12953500Y-7162000D01*
X12954000Y-5384000D02*
X13004000Y-5334000D01*
X12954000Y-5284000D01*
X12904000Y-5334000D01*
X12954000Y-5384000D01*
X13207500Y-7162000D02*
X13257500Y-7112000D01*
X13207500Y-7062000D01*
X13157500Y-7112000D01*
X13207500Y-7162000D01*
X13208000Y-5384000D02*
X13258000Y-5334000D01*
X13208000Y-5284000D01*
X13158000Y-5334000D01*
X13208000Y-5384000D01*
X13461500Y-7162000D02*
X13511500Y-7112000D01*
X13461500Y-7062000D01*
X13411500Y-7112000D01*
X13461500Y-7162000D01*
X13462000Y-5384000D02*
X13512000Y-5334000D01*
X13462000Y-5284000D01*
X13412000Y-5334000D01*
X13462000Y-5384000D01*
X13715500Y-7162000D02*
X13765500Y-7112000D01*
X13715500Y-7062000D01*
X13665500Y-7112000D01*
X13715500Y-7162000D01*
X13716000Y-5384000D02*
X13766000Y-5334000D01*
X13716000Y-5284000D01*
X13666000Y-5334000D01*
X13716000Y-5384000D01*
X13969500Y-7162000D02*
X14019500Y-7112000D01*
X13969500Y-7062000D01*
X13919500Y-7112000D01*
X13969500Y-7162000D01*
X13970000Y-5384000D02*
X14020000Y-5334000D01*
X13970000Y-5284000D01*
X13920000Y-5334000D01*
X13970000Y-5384000D01*
X14223500Y-7162000D02*
X14273500Y-7112000D01*
X14223500Y-7062000D01*
X14173500Y-7112000D01*
X14223500Y-7162000D01*
X14224000Y-5384000D02*
X14274000Y-5334000D01*
X14224000Y-5284000D01*
X14174000Y-5334000D01*
X14224000Y-5384000D01*
X14477500Y-7162000D02*
X14527500Y-7112000D01*
X14477500Y-7062000D01*
X14427500Y-7112000D01*
X14477500Y-7162000D01*
X14478000Y-5384000D02*
X14528000Y-5334000D01*
X14478000Y-5284000D01*
X14428000Y-5334000D01*
X14478000Y-5384000D01*
X14731500Y-7162000D02*
X14781500Y-7112000D01*
X14731500Y-7062000D01*
X14681500Y-7112000D01*
X14731500Y-7162000D01*
X14732000Y-5384000D02*
X14782000Y-5334000D01*
X14732000Y-5284000D01*
X14682000Y-5334000D01*
X14732000Y-5384000D01*
X14985500Y-7162000D02*
X15035500Y-7112000D01*
X14985500Y-7062000D01*
X14935500Y-7112000D01*
X14985500Y-7162000D01*
X14986000Y-5384000D02*
X15036000Y-5334000D01*
X14986000Y-5284000D01*
X14936000Y-5334000D01*
X14986000Y-5384000D01*
X15239500Y-7162000D02*
X15289500Y-7112000D01*
X15239500Y-7062000D01*
X15189500Y-7112000D01*
X15239500Y-7162000D01*
X15240000Y-5384000D02*
X15290000Y-5334000D01*
X15240000Y-5284000D01*
X15190000Y-5334000D01*
X15240000Y-5384000D01*
X15493500Y-7162000D02*
X15543500Y-7112000D01*
X15493500Y-7062000D01*
X15443500Y-7112000D01*
X15493500Y-7162000D01*
X15494000Y-5384000D02*
X15544000Y-5334000D01*
X15494000Y-5284000D01*
X15444000Y-5334000D01*
X15494000Y-5384000D01*
X15747500Y-7162000D02*
X15797500Y-7112000D01*
X15747500Y-7062000D01*
X15697500Y-7112000D01*
X15747500Y-7162000D01*
X15748000Y-5384000D02*
X15798000Y-5334000D01*
X15748000Y-5284000D01*
X15698000Y-5334000D01*
X15748000Y-5384000D01*
X16001500Y-7162000D02*
X16051500Y-7112000D01*
X16001500Y-7062000D01*
X15951500Y-7112000D01*
X16001500Y-7162000D01*
X16002000Y-5384000D02*
X16052000Y-5334000D01*
X16002000Y-5284000D01*
X15952000Y-5334000D01*
X16002000Y-5384000D01*
X16255500Y-7162000D02*
X16305500Y-7112000D01*
X16255500Y-7062000D01*
X16205500Y-7112000D01*
X16255500Y-7162000D01*
X16256000Y-5384000D02*
X16306000Y-5334000D01*
X16256000Y-5284000D01*
X16206000Y-5334000D01*
X16256000Y-5384000D01*
X16509500Y-7162000D02*
X16559500Y-7112000D01*
X16509500Y-7062000D01*
X16459500Y-7112000D01*
X16509500Y-7162000D01*
X16510000Y-5384000D02*
X16560000Y-5334000D01*
X16510000Y-5284000D01*
X16460000Y-5334000D01*
X16510000Y-5384000D01*
X16763500Y-7162000D02*
X16813500Y-7112000D01*
X16763500Y-7062000D01*
X16713500Y-7112000D01*
X16763500Y-7162000D01*
X16764000Y-5384000D02*
X16814000Y-5334000D01*
X16764000Y-5284000D01*
X16714000Y-5334000D01*
X16764000Y-5384000D01*
X17017500Y-7162000D02*
X17067500Y-7112000D01*
X17017500Y-7062000D01*
X16967500Y-7112000D01*
X17017500Y-7162000D01*
X17018000Y-5384000D02*
X17068000Y-5334000D01*
X17018000Y-5284000D01*
X16968000Y-5334000D01*
X17018000Y-5384000D01*
X17271500Y-7162000D02*
X17321500Y-7112000D01*
X17271500Y-7062000D01*
X17221500Y-7112000D01*
X17271500Y-7162000D01*
X17272000Y-5384000D02*
X17322000Y-5334000D01*
X17272000Y-5284000D01*
X17222000Y-5334000D01*
X17272000Y-5384000D01*
D11*
X9590277Y-7555484D02*
X9590277Y-7355484D01*
X9590277Y-7355484D02*
X9637896Y-7355484D01*
X9637896Y-7355484D02*
X9666467Y-7365008D01*
X9666467Y-7365008D02*
X9685515Y-7384055D01*
X9685515Y-7384055D02*
X9695039Y-7403103D01*
X9695039Y-7403103D02*
X9704563Y-7441198D01*
X9704563Y-7441198D02*
X9704563Y-7469769D01*
X9704563Y-7469769D02*
X9695039Y-7507865D01*
X9695039Y-7507865D02*
X9685515Y-7526912D01*
X9685515Y-7526912D02*
X9666467Y-7545960D01*
X9666467Y-7545960D02*
X9637896Y-7555484D01*
X9637896Y-7555484D02*
X9590277Y-7555484D01*
X9790277Y-7555484D02*
X9790277Y-7422150D01*
X9790277Y-7460246D02*
X9799801Y-7441198D01*
X9799801Y-7441198D02*
X9809324Y-7431674D01*
X9809324Y-7431674D02*
X9828372Y-7422150D01*
X9828372Y-7422150D02*
X9847420Y-7422150D01*
X9914086Y-7555484D02*
X9914086Y-7422150D01*
X9914086Y-7355484D02*
X9904563Y-7365008D01*
X9904563Y-7365008D02*
X9914086Y-7374531D01*
X9914086Y-7374531D02*
X9923610Y-7365008D01*
X9923610Y-7365008D02*
X9914086Y-7355484D01*
X9914086Y-7355484D02*
X9914086Y-7374531D01*
X10037896Y-7555484D02*
X10018848Y-7545960D01*
X10018848Y-7545960D02*
X10009324Y-7526912D01*
X10009324Y-7526912D02*
X10009324Y-7355484D01*
X10142658Y-7555484D02*
X10123610Y-7545960D01*
X10123610Y-7545960D02*
X10114086Y-7526912D01*
X10114086Y-7526912D02*
X10114086Y-7355484D01*
X10371229Y-7555484D02*
X10371229Y-7355484D01*
X10371229Y-7355484D02*
X10437896Y-7498341D01*
X10437896Y-7498341D02*
X10504563Y-7355484D01*
X10504563Y-7355484D02*
X10504563Y-7555484D01*
X10685515Y-7555484D02*
X10685515Y-7450722D01*
X10685515Y-7450722D02*
X10675991Y-7431674D01*
X10675991Y-7431674D02*
X10656944Y-7422150D01*
X10656944Y-7422150D02*
X10618848Y-7422150D01*
X10618848Y-7422150D02*
X10599801Y-7431674D01*
X10685515Y-7545960D02*
X10666467Y-7555484D01*
X10666467Y-7555484D02*
X10618848Y-7555484D01*
X10618848Y-7555484D02*
X10599801Y-7545960D01*
X10599801Y-7545960D02*
X10590277Y-7526912D01*
X10590277Y-7526912D02*
X10590277Y-7507865D01*
X10590277Y-7507865D02*
X10599801Y-7488817D01*
X10599801Y-7488817D02*
X10618848Y-7479293D01*
X10618848Y-7479293D02*
X10666467Y-7479293D01*
X10666467Y-7479293D02*
X10685515Y-7469769D01*
X10780753Y-7422150D02*
X10780753Y-7622150D01*
X10780753Y-7431674D02*
X10799801Y-7422150D01*
X10799801Y-7422150D02*
X10837896Y-7422150D01*
X10837896Y-7422150D02*
X10856944Y-7431674D01*
X10856944Y-7431674D02*
X10866467Y-7441198D01*
X10866467Y-7441198D02*
X10875991Y-7460246D01*
X10875991Y-7460246D02*
X10875991Y-7517388D01*
X10875991Y-7517388D02*
X10866467Y-7536436D01*
X10866467Y-7536436D02*
X10856944Y-7545960D01*
X10856944Y-7545960D02*
X10837896Y-7555484D01*
X10837896Y-7555484D02*
X10799801Y-7555484D01*
X10799801Y-7555484D02*
X10780753Y-7545960D01*
X10961705Y-7536436D02*
X10971229Y-7545960D01*
X10971229Y-7545960D02*
X10961705Y-7555484D01*
X10961705Y-7555484D02*
X10952182Y-7545960D01*
X10952182Y-7545960D02*
X10961705Y-7536436D01*
X10961705Y-7536436D02*
X10961705Y-7555484D01*
X10961705Y-7431674D02*
X10971229Y-7441198D01*
X10971229Y-7441198D02*
X10961705Y-7450722D01*
X10961705Y-7450722D02*
X10952182Y-7441198D01*
X10952182Y-7441198D02*
X10961705Y-7431674D01*
X10961705Y-7431674D02*
X10961705Y-7450722D01*
D12*
X9299500Y-7869000D02*
X9329500Y-7899000D01*
X9329500Y-7869000D02*
X9299500Y-7899000D01*
D11*
X9628372Y-7775484D02*
X9647420Y-7775484D01*
X9647420Y-7775484D02*
X9666467Y-7785008D01*
X9666467Y-7785008D02*
X9675991Y-7794531D01*
X9675991Y-7794531D02*
X9685515Y-7813579D01*
X9685515Y-7813579D02*
X9695039Y-7851674D01*
X9695039Y-7851674D02*
X9695039Y-7899293D01*
X9695039Y-7899293D02*
X9685515Y-7937388D01*
X9685515Y-7937388D02*
X9675991Y-7956436D01*
X9675991Y-7956436D02*
X9666467Y-7965960D01*
X9666467Y-7965960D02*
X9647420Y-7975484D01*
X9647420Y-7975484D02*
X9628372Y-7975484D01*
X9628372Y-7975484D02*
X9609324Y-7965960D01*
X9609324Y-7965960D02*
X9599801Y-7956436D01*
X9599801Y-7956436D02*
X9590277Y-7937388D01*
X9590277Y-7937388D02*
X9580753Y-7899293D01*
X9580753Y-7899293D02*
X9580753Y-7851674D01*
X9580753Y-7851674D02*
X9590277Y-7813579D01*
X9590277Y-7813579D02*
X9599801Y-7794531D01*
X9599801Y-7794531D02*
X9609324Y-7785008D01*
X9609324Y-7785008D02*
X9628372Y-7775484D01*
X9780753Y-7956436D02*
X9790277Y-7965960D01*
X9790277Y-7965960D02*
X9780753Y-7975484D01*
X9780753Y-7975484D02*
X9771229Y-7965960D01*
X9771229Y-7965960D02*
X9780753Y-7956436D01*
X9780753Y-7956436D02*
X9780753Y-7975484D01*
X9856944Y-7775484D02*
X9980753Y-7775484D01*
X9980753Y-7775484D02*
X9914086Y-7851674D01*
X9914086Y-7851674D02*
X9942658Y-7851674D01*
X9942658Y-7851674D02*
X9961705Y-7861198D01*
X9961705Y-7861198D02*
X9971229Y-7870722D01*
X9971229Y-7870722D02*
X9980753Y-7889769D01*
X9980753Y-7889769D02*
X9980753Y-7937388D01*
X9980753Y-7937388D02*
X9971229Y-7956436D01*
X9971229Y-7956436D02*
X9961705Y-7965960D01*
X9961705Y-7965960D02*
X9942658Y-7975484D01*
X9942658Y-7975484D02*
X9885515Y-7975484D01*
X9885515Y-7975484D02*
X9866467Y-7965960D01*
X9866467Y-7965960D02*
X9856944Y-7956436D01*
X10104563Y-7775484D02*
X10123610Y-7775484D01*
X10123610Y-7775484D02*
X10142658Y-7785008D01*
X10142658Y-7785008D02*
X10152182Y-7794531D01*
X10152182Y-7794531D02*
X10161705Y-7813579D01*
X10161705Y-7813579D02*
X10171229Y-7851674D01*
X10171229Y-7851674D02*
X10171229Y-7899293D01*
X10171229Y-7899293D02*
X10161705Y-7937388D01*
X10161705Y-7937388D02*
X10152182Y-7956436D01*
X10152182Y-7956436D02*
X10142658Y-7965960D01*
X10142658Y-7965960D02*
X10123610Y-7975484D01*
X10123610Y-7975484D02*
X10104563Y-7975484D01*
X10104563Y-7975484D02*
X10085515Y-7965960D01*
X10085515Y-7965960D02*
X10075991Y-7956436D01*
X10075991Y-7956436D02*
X10066467Y-7937388D01*
X10066467Y-7937388D02*
X10056944Y-7899293D01*
X10056944Y-7899293D02*
X10056944Y-7851674D01*
X10056944Y-7851674D02*
X10066467Y-7813579D01*
X10066467Y-7813579D02*
X10075991Y-7794531D01*
X10075991Y-7794531D02*
X10085515Y-7785008D01*
X10085515Y-7785008D02*
X10104563Y-7775484D01*
X10295039Y-7775484D02*
X10314086Y-7775484D01*
X10314086Y-7775484D02*
X10333134Y-7785008D01*
X10333134Y-7785008D02*
X10342658Y-7794531D01*
X10342658Y-7794531D02*
X10352182Y-7813579D01*
X10352182Y-7813579D02*
X10361705Y-7851674D01*
X10361705Y-7851674D02*
X10361705Y-7899293D01*
X10361705Y-7899293D02*
X10352182Y-7937388D01*
X10352182Y-7937388D02*
X10342658Y-7956436D01*
X10342658Y-7956436D02*
X10333134Y-7965960D01*
X10333134Y-7965960D02*
X10314086Y-7975484D01*
X10314086Y-7975484D02*
X10295039Y-7975484D01*
X10295039Y-7975484D02*
X10275991Y-7965960D01*
X10275991Y-7965960D02*
X10266467Y-7956436D01*
X10266467Y-7956436D02*
X10256944Y-7937388D01*
X10256944Y-7937388D02*
X10247420Y-7899293D01*
X10247420Y-7899293D02*
X10247420Y-7851674D01*
X10247420Y-7851674D02*
X10256944Y-7813579D01*
X10256944Y-7813579D02*
X10266467Y-7794531D01*
X10266467Y-7794531D02*
X10275991Y-7785008D01*
X10275991Y-7785008D02*
X10295039Y-7775484D01*
X10447420Y-7975484D02*
X10447420Y-7842150D01*
X10447420Y-7861198D02*
X10456944Y-7851674D01*
X10456944Y-7851674D02*
X10475991Y-7842150D01*
X10475991Y-7842150D02*
X10504563Y-7842150D01*
X10504563Y-7842150D02*
X10523610Y-7851674D01*
X10523610Y-7851674D02*
X10533134Y-7870722D01*
X10533134Y-7870722D02*
X10533134Y-7975484D01*
X10533134Y-7870722D02*
X10542658Y-7851674D01*
X10542658Y-7851674D02*
X10561705Y-7842150D01*
X10561705Y-7842150D02*
X10590277Y-7842150D01*
X10590277Y-7842150D02*
X10609325Y-7851674D01*
X10609325Y-7851674D02*
X10618848Y-7870722D01*
X10618848Y-7870722D02*
X10618848Y-7975484D01*
X10714086Y-7975484D02*
X10714086Y-7842150D01*
X10714086Y-7861198D02*
X10723610Y-7851674D01*
X10723610Y-7851674D02*
X10742658Y-7842150D01*
X10742658Y-7842150D02*
X10771229Y-7842150D01*
X10771229Y-7842150D02*
X10790277Y-7851674D01*
X10790277Y-7851674D02*
X10799801Y-7870722D01*
X10799801Y-7870722D02*
X10799801Y-7975484D01*
X10799801Y-7870722D02*
X10809325Y-7851674D01*
X10809325Y-7851674D02*
X10828372Y-7842150D01*
X10828372Y-7842150D02*
X10856944Y-7842150D01*
X10856944Y-7842150D02*
X10875991Y-7851674D01*
X10875991Y-7851674D02*
X10885515Y-7870722D01*
X10885515Y-7870722D02*
X10885515Y-7975484D01*
X11275991Y-7765960D02*
X11104563Y-8023103D01*
X11533134Y-7775484D02*
X11552182Y-7775484D01*
X11552182Y-7775484D02*
X11571229Y-7785008D01*
X11571229Y-7785008D02*
X11580753Y-7794531D01*
X11580753Y-7794531D02*
X11590277Y-7813579D01*
X11590277Y-7813579D02*
X11599801Y-7851674D01*
X11599801Y-7851674D02*
X11599801Y-7899293D01*
X11599801Y-7899293D02*
X11590277Y-7937388D01*
X11590277Y-7937388D02*
X11580753Y-7956436D01*
X11580753Y-7956436D02*
X11571229Y-7965960D01*
X11571229Y-7965960D02*
X11552182Y-7975484D01*
X11552182Y-7975484D02*
X11533134Y-7975484D01*
X11533134Y-7975484D02*
X11514086Y-7965960D01*
X11514086Y-7965960D02*
X11504563Y-7956436D01*
X11504563Y-7956436D02*
X11495039Y-7937388D01*
X11495039Y-7937388D02*
X11485515Y-7899293D01*
X11485515Y-7899293D02*
X11485515Y-7851674D01*
X11485515Y-7851674D02*
X11495039Y-7813579D01*
X11495039Y-7813579D02*
X11504563Y-7794531D01*
X11504563Y-7794531D02*
X11514086Y-7785008D01*
X11514086Y-7785008D02*
X11533134Y-7775484D01*
X11685515Y-7956436D02*
X11695039Y-7965960D01*
X11695039Y-7965960D02*
X11685515Y-7975484D01*
X11685515Y-7975484D02*
X11675991Y-7965960D01*
X11675991Y-7965960D02*
X11685515Y-7956436D01*
X11685515Y-7956436D02*
X11685515Y-7975484D01*
X11818848Y-7775484D02*
X11837896Y-7775484D01*
X11837896Y-7775484D02*
X11856944Y-7785008D01*
X11856944Y-7785008D02*
X11866467Y-7794531D01*
X11866467Y-7794531D02*
X11875991Y-7813579D01*
X11875991Y-7813579D02*
X11885515Y-7851674D01*
X11885515Y-7851674D02*
X11885515Y-7899293D01*
X11885515Y-7899293D02*
X11875991Y-7937388D01*
X11875991Y-7937388D02*
X11866467Y-7956436D01*
X11866467Y-7956436D02*
X11856944Y-7965960D01*
X11856944Y-7965960D02*
X11837896Y-7975484D01*
X11837896Y-7975484D02*
X11818848Y-7975484D01*
X11818848Y-7975484D02*
X11799801Y-7965960D01*
X11799801Y-7965960D02*
X11790277Y-7956436D01*
X11790277Y-7956436D02*
X11780753Y-7937388D01*
X11780753Y-7937388D02*
X11771229Y-7899293D01*
X11771229Y-7899293D02*
X11771229Y-7851674D01*
X11771229Y-7851674D02*
X11780753Y-7813579D01*
X11780753Y-7813579D02*
X11790277Y-7794531D01*
X11790277Y-7794531D02*
X11799801Y-7785008D01*
X11799801Y-7785008D02*
X11818848Y-7775484D01*
X12075991Y-7975484D02*
X11961706Y-7975484D01*
X12018848Y-7975484D02*
X12018848Y-7775484D01*
X12018848Y-7775484D02*
X11999801Y-7804055D01*
X11999801Y-7804055D02*
X11980753Y-7823103D01*
X11980753Y-7823103D02*
X11961706Y-7832627D01*
X12266467Y-7975484D02*
X12152182Y-7975484D01*
X12209325Y-7975484D02*
X12209325Y-7775484D01*
X12209325Y-7775484D02*
X12190277Y-7804055D01*
X12190277Y-7804055D02*
X12171229Y-7823103D01*
X12171229Y-7823103D02*
X12152182Y-7832627D01*
X12380753Y-7861198D02*
X12361706Y-7851674D01*
X12361706Y-7851674D02*
X12352182Y-7842150D01*
X12352182Y-7842150D02*
X12342658Y-7823103D01*
X12342658Y-7823103D02*
X12342658Y-7813579D01*
X12342658Y-7813579D02*
X12352182Y-7794531D01*
X12352182Y-7794531D02*
X12361706Y-7785008D01*
X12361706Y-7785008D02*
X12380753Y-7775484D01*
X12380753Y-7775484D02*
X12418848Y-7775484D01*
X12418848Y-7775484D02*
X12437896Y-7785008D01*
X12437896Y-7785008D02*
X12447420Y-7794531D01*
X12447420Y-7794531D02*
X12456944Y-7813579D01*
X12456944Y-7813579D02*
X12456944Y-7823103D01*
X12456944Y-7823103D02*
X12447420Y-7842150D01*
X12447420Y-7842150D02*
X12437896Y-7851674D01*
X12437896Y-7851674D02*
X12418848Y-7861198D01*
X12418848Y-7861198D02*
X12380753Y-7861198D01*
X12380753Y-7861198D02*
X12361706Y-7870722D01*
X12361706Y-7870722D02*
X12352182Y-7880246D01*
X12352182Y-7880246D02*
X12342658Y-7899293D01*
X12342658Y-7899293D02*
X12342658Y-7937388D01*
X12342658Y-7937388D02*
X12352182Y-7956436D01*
X12352182Y-7956436D02*
X12361706Y-7965960D01*
X12361706Y-7965960D02*
X12380753Y-7975484D01*
X12380753Y-7975484D02*
X12418848Y-7975484D01*
X12418848Y-7975484D02*
X12437896Y-7965960D01*
X12437896Y-7965960D02*
X12447420Y-7956436D01*
X12447420Y-7956436D02*
X12456944Y-7937388D01*
X12456944Y-7937388D02*
X12456944Y-7899293D01*
X12456944Y-7899293D02*
X12447420Y-7880246D01*
X12447420Y-7880246D02*
X12437896Y-7870722D01*
X12437896Y-7870722D02*
X12418848Y-7861198D01*
X12533134Y-7775484D02*
X12533134Y-7813579D01*
X12609325Y-7775484D02*
X12609325Y-7813579D01*
X12904563Y-8051674D02*
X12895039Y-8042150D01*
X12895039Y-8042150D02*
X12875991Y-8013579D01*
X12875991Y-8013579D02*
X12866468Y-7994531D01*
X12866468Y-7994531D02*
X12856944Y-7965960D01*
X12856944Y-7965960D02*
X12847420Y-7918341D01*
X12847420Y-7918341D02*
X12847420Y-7880246D01*
X12847420Y-7880246D02*
X12856944Y-7832627D01*
X12856944Y-7832627D02*
X12866468Y-7804055D01*
X12866468Y-7804055D02*
X12875991Y-7785008D01*
X12875991Y-7785008D02*
X12895039Y-7756436D01*
X12895039Y-7756436D02*
X12904563Y-7746912D01*
X12971229Y-7794531D02*
X12980753Y-7785008D01*
X12980753Y-7785008D02*
X12999801Y-7775484D01*
X12999801Y-7775484D02*
X13047420Y-7775484D01*
X13047420Y-7775484D02*
X13066468Y-7785008D01*
X13066468Y-7785008D02*
X13075991Y-7794531D01*
X13075991Y-7794531D02*
X13085515Y-7813579D01*
X13085515Y-7813579D02*
X13085515Y-7832627D01*
X13085515Y-7832627D02*
X13075991Y-7861198D01*
X13075991Y-7861198D02*
X12961706Y-7975484D01*
X12961706Y-7975484D02*
X13085515Y-7975484D01*
X13161706Y-7794531D02*
X13171229Y-7785008D01*
X13171229Y-7785008D02*
X13190277Y-7775484D01*
X13190277Y-7775484D02*
X13237896Y-7775484D01*
X13237896Y-7775484D02*
X13256944Y-7785008D01*
X13256944Y-7785008D02*
X13266468Y-7794531D01*
X13266468Y-7794531D02*
X13275991Y-7813579D01*
X13275991Y-7813579D02*
X13275991Y-7832627D01*
X13275991Y-7832627D02*
X13266468Y-7861198D01*
X13266468Y-7861198D02*
X13152182Y-7975484D01*
X13152182Y-7975484D02*
X13275991Y-7975484D01*
X13514087Y-7975484D02*
X13514087Y-7775484D01*
X13599801Y-7975484D02*
X13599801Y-7870722D01*
X13599801Y-7870722D02*
X13590277Y-7851674D01*
X13590277Y-7851674D02*
X13571230Y-7842150D01*
X13571230Y-7842150D02*
X13542658Y-7842150D01*
X13542658Y-7842150D02*
X13523610Y-7851674D01*
X13523610Y-7851674D02*
X13514087Y-7861198D01*
X13723610Y-7975484D02*
X13704563Y-7965960D01*
X13704563Y-7965960D02*
X13695039Y-7956436D01*
X13695039Y-7956436D02*
X13685515Y-7937388D01*
X13685515Y-7937388D02*
X13685515Y-7880246D01*
X13685515Y-7880246D02*
X13695039Y-7861198D01*
X13695039Y-7861198D02*
X13704563Y-7851674D01*
X13704563Y-7851674D02*
X13723610Y-7842150D01*
X13723610Y-7842150D02*
X13752182Y-7842150D01*
X13752182Y-7842150D02*
X13771230Y-7851674D01*
X13771230Y-7851674D02*
X13780753Y-7861198D01*
X13780753Y-7861198D02*
X13790277Y-7880246D01*
X13790277Y-7880246D02*
X13790277Y-7937388D01*
X13790277Y-7937388D02*
X13780753Y-7956436D01*
X13780753Y-7956436D02*
X13771230Y-7965960D01*
X13771230Y-7965960D02*
X13752182Y-7975484D01*
X13752182Y-7975484D02*
X13723610Y-7975484D01*
X13904563Y-7975484D02*
X13885515Y-7965960D01*
X13885515Y-7965960D02*
X13875991Y-7946912D01*
X13875991Y-7946912D02*
X13875991Y-7775484D01*
X14056944Y-7965960D02*
X14037896Y-7975484D01*
X14037896Y-7975484D02*
X13999801Y-7975484D01*
X13999801Y-7975484D02*
X13980753Y-7965960D01*
X13980753Y-7965960D02*
X13971230Y-7946912D01*
X13971230Y-7946912D02*
X13971230Y-7870722D01*
X13971230Y-7870722D02*
X13980753Y-7851674D01*
X13980753Y-7851674D02*
X13999801Y-7842150D01*
X13999801Y-7842150D02*
X14037896Y-7842150D01*
X14037896Y-7842150D02*
X14056944Y-7851674D01*
X14056944Y-7851674D02*
X14066468Y-7870722D01*
X14066468Y-7870722D02*
X14066468Y-7889769D01*
X14066468Y-7889769D02*
X13971230Y-7908817D01*
X14142658Y-7965960D02*
X14161706Y-7975484D01*
X14161706Y-7975484D02*
X14199801Y-7975484D01*
X14199801Y-7975484D02*
X14218849Y-7965960D01*
X14218849Y-7965960D02*
X14228372Y-7946912D01*
X14228372Y-7946912D02*
X14228372Y-7937388D01*
X14228372Y-7937388D02*
X14218849Y-7918341D01*
X14218849Y-7918341D02*
X14199801Y-7908817D01*
X14199801Y-7908817D02*
X14171230Y-7908817D01*
X14171230Y-7908817D02*
X14152182Y-7899293D01*
X14152182Y-7899293D02*
X14142658Y-7880246D01*
X14142658Y-7880246D02*
X14142658Y-7870722D01*
X14142658Y-7870722D02*
X14152182Y-7851674D01*
X14152182Y-7851674D02*
X14171230Y-7842150D01*
X14171230Y-7842150D02*
X14199801Y-7842150D01*
X14199801Y-7842150D02*
X14218849Y-7851674D01*
X14295039Y-8051674D02*
X14304563Y-8042150D01*
X14304563Y-8042150D02*
X14323611Y-8013579D01*
X14323611Y-8013579D02*
X14333134Y-7994531D01*
X14333134Y-7994531D02*
X14342658Y-7965960D01*
X14342658Y-7965960D02*
X14352182Y-7918341D01*
X14352182Y-7918341D02*
X14352182Y-7880246D01*
X14352182Y-7880246D02*
X14342658Y-7832627D01*
X14342658Y-7832627D02*
X14333134Y-7804055D01*
X14333134Y-7804055D02*
X14323611Y-7785008D01*
X14323611Y-7785008D02*
X14304563Y-7756436D01*
X14304563Y-7756436D02*
X14295039Y-7746912D01*
D13*
X9329500Y-8148000D02*
G75*
G03*
X9329500Y-8148000I-20000J0D01*
G01*
D11*
X9628372Y-8039484D02*
X9647420Y-8039484D01*
X9647420Y-8039484D02*
X9666467Y-8049008D01*
X9666467Y-8049008D02*
X9675991Y-8058531D01*
X9675991Y-8058531D02*
X9685515Y-8077579D01*
X9685515Y-8077579D02*
X9695039Y-8115674D01*
X9695039Y-8115674D02*
X9695039Y-8163293D01*
X9695039Y-8163293D02*
X9685515Y-8201388D01*
X9685515Y-8201388D02*
X9675991Y-8220436D01*
X9675991Y-8220436D02*
X9666467Y-8229960D01*
X9666467Y-8229960D02*
X9647420Y-8239484D01*
X9647420Y-8239484D02*
X9628372Y-8239484D01*
X9628372Y-8239484D02*
X9609324Y-8229960D01*
X9609324Y-8229960D02*
X9599801Y-8220436D01*
X9599801Y-8220436D02*
X9590277Y-8201388D01*
X9590277Y-8201388D02*
X9580753Y-8163293D01*
X9580753Y-8163293D02*
X9580753Y-8115674D01*
X9580753Y-8115674D02*
X9590277Y-8077579D01*
X9590277Y-8077579D02*
X9599801Y-8058531D01*
X9599801Y-8058531D02*
X9609324Y-8049008D01*
X9609324Y-8049008D02*
X9628372Y-8039484D01*
X9780753Y-8220436D02*
X9790277Y-8229960D01*
X9790277Y-8229960D02*
X9780753Y-8239484D01*
X9780753Y-8239484D02*
X9771229Y-8229960D01*
X9771229Y-8229960D02*
X9780753Y-8220436D01*
X9780753Y-8220436D02*
X9780753Y-8239484D01*
X9961705Y-8106150D02*
X9961705Y-8239484D01*
X9914086Y-8029960D02*
X9866467Y-8172817D01*
X9866467Y-8172817D02*
X9990277Y-8172817D01*
X10104563Y-8039484D02*
X10123610Y-8039484D01*
X10123610Y-8039484D02*
X10142658Y-8049008D01*
X10142658Y-8049008D02*
X10152182Y-8058531D01*
X10152182Y-8058531D02*
X10161705Y-8077579D01*
X10161705Y-8077579D02*
X10171229Y-8115674D01*
X10171229Y-8115674D02*
X10171229Y-8163293D01*
X10171229Y-8163293D02*
X10161705Y-8201388D01*
X10161705Y-8201388D02*
X10152182Y-8220436D01*
X10152182Y-8220436D02*
X10142658Y-8229960D01*
X10142658Y-8229960D02*
X10123610Y-8239484D01*
X10123610Y-8239484D02*
X10104563Y-8239484D01*
X10104563Y-8239484D02*
X10085515Y-8229960D01*
X10085515Y-8229960D02*
X10075991Y-8220436D01*
X10075991Y-8220436D02*
X10066467Y-8201388D01*
X10066467Y-8201388D02*
X10056944Y-8163293D01*
X10056944Y-8163293D02*
X10056944Y-8115674D01*
X10056944Y-8115674D02*
X10066467Y-8077579D01*
X10066467Y-8077579D02*
X10075991Y-8058531D01*
X10075991Y-8058531D02*
X10085515Y-8049008D01*
X10085515Y-8049008D02*
X10104563Y-8039484D01*
X10295039Y-8039484D02*
X10314086Y-8039484D01*
X10314086Y-8039484D02*
X10333134Y-8049008D01*
X10333134Y-8049008D02*
X10342658Y-8058531D01*
X10342658Y-8058531D02*
X10352182Y-8077579D01*
X10352182Y-8077579D02*
X10361705Y-8115674D01*
X10361705Y-8115674D02*
X10361705Y-8163293D01*
X10361705Y-8163293D02*
X10352182Y-8201388D01*
X10352182Y-8201388D02*
X10342658Y-8220436D01*
X10342658Y-8220436D02*
X10333134Y-8229960D01*
X10333134Y-8229960D02*
X10314086Y-8239484D01*
X10314086Y-8239484D02*
X10295039Y-8239484D01*
X10295039Y-8239484D02*
X10275991Y-8229960D01*
X10275991Y-8229960D02*
X10266467Y-8220436D01*
X10266467Y-8220436D02*
X10256944Y-8201388D01*
X10256944Y-8201388D02*
X10247420Y-8163293D01*
X10247420Y-8163293D02*
X10247420Y-8115674D01*
X10247420Y-8115674D02*
X10256944Y-8077579D01*
X10256944Y-8077579D02*
X10266467Y-8058531D01*
X10266467Y-8058531D02*
X10275991Y-8049008D01*
X10275991Y-8049008D02*
X10295039Y-8039484D01*
X10447420Y-8239484D02*
X10447420Y-8106150D01*
X10447420Y-8125198D02*
X10456944Y-8115674D01*
X10456944Y-8115674D02*
X10475991Y-8106150D01*
X10475991Y-8106150D02*
X10504563Y-8106150D01*
X10504563Y-8106150D02*
X10523610Y-8115674D01*
X10523610Y-8115674D02*
X10533134Y-8134722D01*
X10533134Y-8134722D02*
X10533134Y-8239484D01*
X10533134Y-8134722D02*
X10542658Y-8115674D01*
X10542658Y-8115674D02*
X10561705Y-8106150D01*
X10561705Y-8106150D02*
X10590277Y-8106150D01*
X10590277Y-8106150D02*
X10609325Y-8115674D01*
X10609325Y-8115674D02*
X10618848Y-8134722D01*
X10618848Y-8134722D02*
X10618848Y-8239484D01*
X10714086Y-8239484D02*
X10714086Y-8106150D01*
X10714086Y-8125198D02*
X10723610Y-8115674D01*
X10723610Y-8115674D02*
X10742658Y-8106150D01*
X10742658Y-8106150D02*
X10771229Y-8106150D01*
X10771229Y-8106150D02*
X10790277Y-8115674D01*
X10790277Y-8115674D02*
X10799801Y-8134722D01*
X10799801Y-8134722D02*
X10799801Y-8239484D01*
X10799801Y-8134722D02*
X10809325Y-8115674D01*
X10809325Y-8115674D02*
X10828372Y-8106150D01*
X10828372Y-8106150D02*
X10856944Y-8106150D01*
X10856944Y-8106150D02*
X10875991Y-8115674D01*
X10875991Y-8115674D02*
X10885515Y-8134722D01*
X10885515Y-8134722D02*
X10885515Y-8239484D01*
X11275991Y-8029960D02*
X11104563Y-8287103D01*
X11533134Y-8039484D02*
X11552182Y-8039484D01*
X11552182Y-8039484D02*
X11571229Y-8049008D01*
X11571229Y-8049008D02*
X11580753Y-8058531D01*
X11580753Y-8058531D02*
X11590277Y-8077579D01*
X11590277Y-8077579D02*
X11599801Y-8115674D01*
X11599801Y-8115674D02*
X11599801Y-8163293D01*
X11599801Y-8163293D02*
X11590277Y-8201388D01*
X11590277Y-8201388D02*
X11580753Y-8220436D01*
X11580753Y-8220436D02*
X11571229Y-8229960D01*
X11571229Y-8229960D02*
X11552182Y-8239484D01*
X11552182Y-8239484D02*
X11533134Y-8239484D01*
X11533134Y-8239484D02*
X11514086Y-8229960D01*
X11514086Y-8229960D02*
X11504563Y-8220436D01*
X11504563Y-8220436D02*
X11495039Y-8201388D01*
X11495039Y-8201388D02*
X11485515Y-8163293D01*
X11485515Y-8163293D02*
X11485515Y-8115674D01*
X11485515Y-8115674D02*
X11495039Y-8077579D01*
X11495039Y-8077579D02*
X11504563Y-8058531D01*
X11504563Y-8058531D02*
X11514086Y-8049008D01*
X11514086Y-8049008D02*
X11533134Y-8039484D01*
X11685515Y-8220436D02*
X11695039Y-8229960D01*
X11695039Y-8229960D02*
X11685515Y-8239484D01*
X11685515Y-8239484D02*
X11675991Y-8229960D01*
X11675991Y-8229960D02*
X11685515Y-8220436D01*
X11685515Y-8220436D02*
X11685515Y-8239484D01*
X11818848Y-8039484D02*
X11837896Y-8039484D01*
X11837896Y-8039484D02*
X11856944Y-8049008D01*
X11856944Y-8049008D02*
X11866467Y-8058531D01*
X11866467Y-8058531D02*
X11875991Y-8077579D01*
X11875991Y-8077579D02*
X11885515Y-8115674D01*
X11885515Y-8115674D02*
X11885515Y-8163293D01*
X11885515Y-8163293D02*
X11875991Y-8201388D01*
X11875991Y-8201388D02*
X11866467Y-8220436D01*
X11866467Y-8220436D02*
X11856944Y-8229960D01*
X11856944Y-8229960D02*
X11837896Y-8239484D01*
X11837896Y-8239484D02*
X11818848Y-8239484D01*
X11818848Y-8239484D02*
X11799801Y-8229960D01*
X11799801Y-8229960D02*
X11790277Y-8220436D01*
X11790277Y-8220436D02*
X11780753Y-8201388D01*
X11780753Y-8201388D02*
X11771229Y-8163293D01*
X11771229Y-8163293D02*
X11771229Y-8115674D01*
X11771229Y-8115674D02*
X11780753Y-8077579D01*
X11780753Y-8077579D02*
X11790277Y-8058531D01*
X11790277Y-8058531D02*
X11799801Y-8049008D01*
X11799801Y-8049008D02*
X11818848Y-8039484D01*
X12075991Y-8239484D02*
X11961706Y-8239484D01*
X12018848Y-8239484D02*
X12018848Y-8039484D01*
X12018848Y-8039484D02*
X11999801Y-8068055D01*
X11999801Y-8068055D02*
X11980753Y-8087103D01*
X11980753Y-8087103D02*
X11961706Y-8096627D01*
X12256944Y-8039484D02*
X12161706Y-8039484D01*
X12161706Y-8039484D02*
X12152182Y-8134722D01*
X12152182Y-8134722D02*
X12161706Y-8125198D01*
X12161706Y-8125198D02*
X12180753Y-8115674D01*
X12180753Y-8115674D02*
X12228372Y-8115674D01*
X12228372Y-8115674D02*
X12247420Y-8125198D01*
X12247420Y-8125198D02*
X12256944Y-8134722D01*
X12256944Y-8134722D02*
X12266467Y-8153769D01*
X12266467Y-8153769D02*
X12266467Y-8201388D01*
X12266467Y-8201388D02*
X12256944Y-8220436D01*
X12256944Y-8220436D02*
X12247420Y-8229960D01*
X12247420Y-8229960D02*
X12228372Y-8239484D01*
X12228372Y-8239484D02*
X12180753Y-8239484D01*
X12180753Y-8239484D02*
X12161706Y-8229960D01*
X12161706Y-8229960D02*
X12152182Y-8220436D01*
X12333134Y-8039484D02*
X12466467Y-8039484D01*
X12466467Y-8039484D02*
X12380753Y-8239484D01*
X12533134Y-8039484D02*
X12533134Y-8077579D01*
X12609325Y-8039484D02*
X12609325Y-8077579D01*
X12904563Y-8315674D02*
X12895039Y-8306150D01*
X12895039Y-8306150D02*
X12875991Y-8277579D01*
X12875991Y-8277579D02*
X12866468Y-8258531D01*
X12866468Y-8258531D02*
X12856944Y-8229960D01*
X12856944Y-8229960D02*
X12847420Y-8182341D01*
X12847420Y-8182341D02*
X12847420Y-8144246D01*
X12847420Y-8144246D02*
X12856944Y-8096627D01*
X12856944Y-8096627D02*
X12866468Y-8068055D01*
X12866468Y-8068055D02*
X12875991Y-8049008D01*
X12875991Y-8049008D02*
X12895039Y-8020436D01*
X12895039Y-8020436D02*
X12904563Y-8010912D01*
X13066468Y-8039484D02*
X13028372Y-8039484D01*
X13028372Y-8039484D02*
X13009325Y-8049008D01*
X13009325Y-8049008D02*
X12999801Y-8058531D01*
X12999801Y-8058531D02*
X12980753Y-8087103D01*
X12980753Y-8087103D02*
X12971229Y-8125198D01*
X12971229Y-8125198D02*
X12971229Y-8201388D01*
X12971229Y-8201388D02*
X12980753Y-8220436D01*
X12980753Y-8220436D02*
X12990277Y-8229960D01*
X12990277Y-8229960D02*
X13009325Y-8239484D01*
X13009325Y-8239484D02*
X13047420Y-8239484D01*
X13047420Y-8239484D02*
X13066468Y-8229960D01*
X13066468Y-8229960D02*
X13075991Y-8220436D01*
X13075991Y-8220436D02*
X13085515Y-8201388D01*
X13085515Y-8201388D02*
X13085515Y-8153769D01*
X13085515Y-8153769D02*
X13075991Y-8134722D01*
X13075991Y-8134722D02*
X13066468Y-8125198D01*
X13066468Y-8125198D02*
X13047420Y-8115674D01*
X13047420Y-8115674D02*
X13009325Y-8115674D01*
X13009325Y-8115674D02*
X12990277Y-8125198D01*
X12990277Y-8125198D02*
X12980753Y-8134722D01*
X12980753Y-8134722D02*
X12971229Y-8153769D01*
X13323610Y-8239484D02*
X13323610Y-8039484D01*
X13409325Y-8239484D02*
X13409325Y-8134722D01*
X13409325Y-8134722D02*
X13399801Y-8115674D01*
X13399801Y-8115674D02*
X13380753Y-8106150D01*
X13380753Y-8106150D02*
X13352182Y-8106150D01*
X13352182Y-8106150D02*
X13333134Y-8115674D01*
X13333134Y-8115674D02*
X13323610Y-8125198D01*
X13533134Y-8239484D02*
X13514087Y-8229960D01*
X13514087Y-8229960D02*
X13504563Y-8220436D01*
X13504563Y-8220436D02*
X13495039Y-8201388D01*
X13495039Y-8201388D02*
X13495039Y-8144246D01*
X13495039Y-8144246D02*
X13504563Y-8125198D01*
X13504563Y-8125198D02*
X13514087Y-8115674D01*
X13514087Y-8115674D02*
X13533134Y-8106150D01*
X13533134Y-8106150D02*
X13561706Y-8106150D01*
X13561706Y-8106150D02*
X13580753Y-8115674D01*
X13580753Y-8115674D02*
X13590277Y-8125198D01*
X13590277Y-8125198D02*
X13599801Y-8144246D01*
X13599801Y-8144246D02*
X13599801Y-8201388D01*
X13599801Y-8201388D02*
X13590277Y-8220436D01*
X13590277Y-8220436D02*
X13580753Y-8229960D01*
X13580753Y-8229960D02*
X13561706Y-8239484D01*
X13561706Y-8239484D02*
X13533134Y-8239484D01*
X13714087Y-8239484D02*
X13695039Y-8229960D01*
X13695039Y-8229960D02*
X13685515Y-8210912D01*
X13685515Y-8210912D02*
X13685515Y-8039484D01*
X13866468Y-8229960D02*
X13847420Y-8239484D01*
X13847420Y-8239484D02*
X13809325Y-8239484D01*
X13809325Y-8239484D02*
X13790277Y-8229960D01*
X13790277Y-8229960D02*
X13780753Y-8210912D01*
X13780753Y-8210912D02*
X13780753Y-8134722D01*
X13780753Y-8134722D02*
X13790277Y-8115674D01*
X13790277Y-8115674D02*
X13809325Y-8106150D01*
X13809325Y-8106150D02*
X13847420Y-8106150D01*
X13847420Y-8106150D02*
X13866468Y-8115674D01*
X13866468Y-8115674D02*
X13875991Y-8134722D01*
X13875991Y-8134722D02*
X13875991Y-8153769D01*
X13875991Y-8153769D02*
X13780753Y-8172817D01*
X13952182Y-8229960D02*
X13971230Y-8239484D01*
X13971230Y-8239484D02*
X14009325Y-8239484D01*
X14009325Y-8239484D02*
X14028372Y-8229960D01*
X14028372Y-8229960D02*
X14037896Y-8210912D01*
X14037896Y-8210912D02*
X14037896Y-8201388D01*
X14037896Y-8201388D02*
X14028372Y-8182341D01*
X14028372Y-8182341D02*
X14009325Y-8172817D01*
X14009325Y-8172817D02*
X13980753Y-8172817D01*
X13980753Y-8172817D02*
X13961706Y-8163293D01*
X13961706Y-8163293D02*
X13952182Y-8144246D01*
X13952182Y-8144246D02*
X13952182Y-8134722D01*
X13952182Y-8134722D02*
X13961706Y-8115674D01*
X13961706Y-8115674D02*
X13980753Y-8106150D01*
X13980753Y-8106150D02*
X14009325Y-8106150D01*
X14009325Y-8106150D02*
X14028372Y-8115674D01*
X14104563Y-8315674D02*
X14114087Y-8306150D01*
X14114087Y-8306150D02*
X14133134Y-8277579D01*
X14133134Y-8277579D02*
X14142658Y-8258531D01*
X14142658Y-8258531D02*
X14152182Y-8229960D01*
X14152182Y-8229960D02*
X14161706Y-8182341D01*
X14161706Y-8182341D02*
X14161706Y-8144246D01*
X14161706Y-8144246D02*
X14152182Y-8096627D01*
X14152182Y-8096627D02*
X14142658Y-8068055D01*
X14142658Y-8068055D02*
X14133134Y-8049008D01*
X14133134Y-8049008D02*
X14114087Y-8020436D01*
X14114087Y-8020436D02*
X14104563Y-8010912D01*
D14*
X9299500Y-8382000D02*
X9299500Y-8442000D01*
X9269500Y-8412000D02*
X9329500Y-8412000D01*
D11*
X9628372Y-8303484D02*
X9647420Y-8303484D01*
X9647420Y-8303484D02*
X9666467Y-8313008D01*
X9666467Y-8313008D02*
X9675991Y-8322531D01*
X9675991Y-8322531D02*
X9685515Y-8341579D01*
X9685515Y-8341579D02*
X9695039Y-8379674D01*
X9695039Y-8379674D02*
X9695039Y-8427293D01*
X9695039Y-8427293D02*
X9685515Y-8465389D01*
X9685515Y-8465389D02*
X9675991Y-8484436D01*
X9675991Y-8484436D02*
X9666467Y-8493960D01*
X9666467Y-8493960D02*
X9647420Y-8503484D01*
X9647420Y-8503484D02*
X9628372Y-8503484D01*
X9628372Y-8503484D02*
X9609324Y-8493960D01*
X9609324Y-8493960D02*
X9599801Y-8484436D01*
X9599801Y-8484436D02*
X9590277Y-8465389D01*
X9590277Y-8465389D02*
X9580753Y-8427293D01*
X9580753Y-8427293D02*
X9580753Y-8379674D01*
X9580753Y-8379674D02*
X9590277Y-8341579D01*
X9590277Y-8341579D02*
X9599801Y-8322531D01*
X9599801Y-8322531D02*
X9609324Y-8313008D01*
X9609324Y-8313008D02*
X9628372Y-8303484D01*
X9780753Y-8484436D02*
X9790277Y-8493960D01*
X9790277Y-8493960D02*
X9780753Y-8503484D01*
X9780753Y-8503484D02*
X9771229Y-8493960D01*
X9771229Y-8493960D02*
X9780753Y-8484436D01*
X9780753Y-8484436D02*
X9780753Y-8503484D01*
X9961705Y-8303484D02*
X9923610Y-8303484D01*
X9923610Y-8303484D02*
X9904563Y-8313008D01*
X9904563Y-8313008D02*
X9895039Y-8322531D01*
X9895039Y-8322531D02*
X9875991Y-8351103D01*
X9875991Y-8351103D02*
X9866467Y-8389198D01*
X9866467Y-8389198D02*
X9866467Y-8465389D01*
X9866467Y-8465389D02*
X9875991Y-8484436D01*
X9875991Y-8484436D02*
X9885515Y-8493960D01*
X9885515Y-8493960D02*
X9904563Y-8503484D01*
X9904563Y-8503484D02*
X9942658Y-8503484D01*
X9942658Y-8503484D02*
X9961705Y-8493960D01*
X9961705Y-8493960D02*
X9971229Y-8484436D01*
X9971229Y-8484436D02*
X9980753Y-8465389D01*
X9980753Y-8465389D02*
X9980753Y-8417770D01*
X9980753Y-8417770D02*
X9971229Y-8398722D01*
X9971229Y-8398722D02*
X9961705Y-8389198D01*
X9961705Y-8389198D02*
X9942658Y-8379674D01*
X9942658Y-8379674D02*
X9904563Y-8379674D01*
X9904563Y-8379674D02*
X9885515Y-8389198D01*
X9885515Y-8389198D02*
X9875991Y-8398722D01*
X9875991Y-8398722D02*
X9866467Y-8417770D01*
X10104563Y-8303484D02*
X10123610Y-8303484D01*
X10123610Y-8303484D02*
X10142658Y-8313008D01*
X10142658Y-8313008D02*
X10152182Y-8322531D01*
X10152182Y-8322531D02*
X10161705Y-8341579D01*
X10161705Y-8341579D02*
X10171229Y-8379674D01*
X10171229Y-8379674D02*
X10171229Y-8427293D01*
X10171229Y-8427293D02*
X10161705Y-8465389D01*
X10161705Y-8465389D02*
X10152182Y-8484436D01*
X10152182Y-8484436D02*
X10142658Y-8493960D01*
X10142658Y-8493960D02*
X10123610Y-8503484D01*
X10123610Y-8503484D02*
X10104563Y-8503484D01*
X10104563Y-8503484D02*
X10085515Y-8493960D01*
X10085515Y-8493960D02*
X10075991Y-8484436D01*
X10075991Y-8484436D02*
X10066467Y-8465389D01*
X10066467Y-8465389D02*
X10056944Y-8427293D01*
X10056944Y-8427293D02*
X10056944Y-8379674D01*
X10056944Y-8379674D02*
X10066467Y-8341579D01*
X10066467Y-8341579D02*
X10075991Y-8322531D01*
X10075991Y-8322531D02*
X10085515Y-8313008D01*
X10085515Y-8313008D02*
X10104563Y-8303484D01*
X10295039Y-8303484D02*
X10314086Y-8303484D01*
X10314086Y-8303484D02*
X10333134Y-8313008D01*
X10333134Y-8313008D02*
X10342658Y-8322531D01*
X10342658Y-8322531D02*
X10352182Y-8341579D01*
X10352182Y-8341579D02*
X10361705Y-8379674D01*
X10361705Y-8379674D02*
X10361705Y-8427293D01*
X10361705Y-8427293D02*
X10352182Y-8465389D01*
X10352182Y-8465389D02*
X10342658Y-8484436D01*
X10342658Y-8484436D02*
X10333134Y-8493960D01*
X10333134Y-8493960D02*
X10314086Y-8503484D01*
X10314086Y-8503484D02*
X10295039Y-8503484D01*
X10295039Y-8503484D02*
X10275991Y-8493960D01*
X10275991Y-8493960D02*
X10266467Y-8484436D01*
X10266467Y-8484436D02*
X10256944Y-8465389D01*
X10256944Y-8465389D02*
X10247420Y-8427293D01*
X10247420Y-8427293D02*
X10247420Y-8379674D01*
X10247420Y-8379674D02*
X10256944Y-8341579D01*
X10256944Y-8341579D02*
X10266467Y-8322531D01*
X10266467Y-8322531D02*
X10275991Y-8313008D01*
X10275991Y-8313008D02*
X10295039Y-8303484D01*
X10447420Y-8503484D02*
X10447420Y-8370150D01*
X10447420Y-8389198D02*
X10456944Y-8379674D01*
X10456944Y-8379674D02*
X10475991Y-8370150D01*
X10475991Y-8370150D02*
X10504563Y-8370150D01*
X10504563Y-8370150D02*
X10523610Y-8379674D01*
X10523610Y-8379674D02*
X10533134Y-8398722D01*
X10533134Y-8398722D02*
X10533134Y-8503484D01*
X10533134Y-8398722D02*
X10542658Y-8379674D01*
X10542658Y-8379674D02*
X10561705Y-8370150D01*
X10561705Y-8370150D02*
X10590277Y-8370150D01*
X10590277Y-8370150D02*
X10609325Y-8379674D01*
X10609325Y-8379674D02*
X10618848Y-8398722D01*
X10618848Y-8398722D02*
X10618848Y-8503484D01*
X10714086Y-8503484D02*
X10714086Y-8370150D01*
X10714086Y-8389198D02*
X10723610Y-8379674D01*
X10723610Y-8379674D02*
X10742658Y-8370150D01*
X10742658Y-8370150D02*
X10771229Y-8370150D01*
X10771229Y-8370150D02*
X10790277Y-8379674D01*
X10790277Y-8379674D02*
X10799801Y-8398722D01*
X10799801Y-8398722D02*
X10799801Y-8503484D01*
X10799801Y-8398722D02*
X10809325Y-8379674D01*
X10809325Y-8379674D02*
X10828372Y-8370150D01*
X10828372Y-8370150D02*
X10856944Y-8370150D01*
X10856944Y-8370150D02*
X10875991Y-8379674D01*
X10875991Y-8379674D02*
X10885515Y-8398722D01*
X10885515Y-8398722D02*
X10885515Y-8503484D01*
X11275991Y-8293960D02*
X11104563Y-8551103D01*
X11533134Y-8303484D02*
X11552182Y-8303484D01*
X11552182Y-8303484D02*
X11571229Y-8313008D01*
X11571229Y-8313008D02*
X11580753Y-8322531D01*
X11580753Y-8322531D02*
X11590277Y-8341579D01*
X11590277Y-8341579D02*
X11599801Y-8379674D01*
X11599801Y-8379674D02*
X11599801Y-8427293D01*
X11599801Y-8427293D02*
X11590277Y-8465389D01*
X11590277Y-8465389D02*
X11580753Y-8484436D01*
X11580753Y-8484436D02*
X11571229Y-8493960D01*
X11571229Y-8493960D02*
X11552182Y-8503484D01*
X11552182Y-8503484D02*
X11533134Y-8503484D01*
X11533134Y-8503484D02*
X11514086Y-8493960D01*
X11514086Y-8493960D02*
X11504563Y-8484436D01*
X11504563Y-8484436D02*
X11495039Y-8465389D01*
X11495039Y-8465389D02*
X11485515Y-8427293D01*
X11485515Y-8427293D02*
X11485515Y-8379674D01*
X11485515Y-8379674D02*
X11495039Y-8341579D01*
X11495039Y-8341579D02*
X11504563Y-8322531D01*
X11504563Y-8322531D02*
X11514086Y-8313008D01*
X11514086Y-8313008D02*
X11533134Y-8303484D01*
X11685515Y-8484436D02*
X11695039Y-8493960D01*
X11695039Y-8493960D02*
X11685515Y-8503484D01*
X11685515Y-8503484D02*
X11675991Y-8493960D01*
X11675991Y-8493960D02*
X11685515Y-8484436D01*
X11685515Y-8484436D02*
X11685515Y-8503484D01*
X11818848Y-8303484D02*
X11837896Y-8303484D01*
X11837896Y-8303484D02*
X11856944Y-8313008D01*
X11856944Y-8313008D02*
X11866467Y-8322531D01*
X11866467Y-8322531D02*
X11875991Y-8341579D01*
X11875991Y-8341579D02*
X11885515Y-8379674D01*
X11885515Y-8379674D02*
X11885515Y-8427293D01*
X11885515Y-8427293D02*
X11875991Y-8465389D01*
X11875991Y-8465389D02*
X11866467Y-8484436D01*
X11866467Y-8484436D02*
X11856944Y-8493960D01*
X11856944Y-8493960D02*
X11837896Y-8503484D01*
X11837896Y-8503484D02*
X11818848Y-8503484D01*
X11818848Y-8503484D02*
X11799801Y-8493960D01*
X11799801Y-8493960D02*
X11790277Y-8484436D01*
X11790277Y-8484436D02*
X11780753Y-8465389D01*
X11780753Y-8465389D02*
X11771229Y-8427293D01*
X11771229Y-8427293D02*
X11771229Y-8379674D01*
X11771229Y-8379674D02*
X11780753Y-8341579D01*
X11780753Y-8341579D02*
X11790277Y-8322531D01*
X11790277Y-8322531D02*
X11799801Y-8313008D01*
X11799801Y-8313008D02*
X11818848Y-8303484D01*
X11961706Y-8322531D02*
X11971229Y-8313008D01*
X11971229Y-8313008D02*
X11990277Y-8303484D01*
X11990277Y-8303484D02*
X12037896Y-8303484D01*
X12037896Y-8303484D02*
X12056944Y-8313008D01*
X12056944Y-8313008D02*
X12066467Y-8322531D01*
X12066467Y-8322531D02*
X12075991Y-8341579D01*
X12075991Y-8341579D02*
X12075991Y-8360627D01*
X12075991Y-8360627D02*
X12066467Y-8389198D01*
X12066467Y-8389198D02*
X11952182Y-8503484D01*
X11952182Y-8503484D02*
X12075991Y-8503484D01*
X12142658Y-8303484D02*
X12266467Y-8303484D01*
X12266467Y-8303484D02*
X12199801Y-8379674D01*
X12199801Y-8379674D02*
X12228372Y-8379674D01*
X12228372Y-8379674D02*
X12247420Y-8389198D01*
X12247420Y-8389198D02*
X12256944Y-8398722D01*
X12256944Y-8398722D02*
X12266467Y-8417770D01*
X12266467Y-8417770D02*
X12266467Y-8465389D01*
X12266467Y-8465389D02*
X12256944Y-8484436D01*
X12256944Y-8484436D02*
X12247420Y-8493960D01*
X12247420Y-8493960D02*
X12228372Y-8503484D01*
X12228372Y-8503484D02*
X12171229Y-8503484D01*
X12171229Y-8503484D02*
X12152182Y-8493960D01*
X12152182Y-8493960D02*
X12142658Y-8484436D01*
X12437896Y-8303484D02*
X12399801Y-8303484D01*
X12399801Y-8303484D02*
X12380753Y-8313008D01*
X12380753Y-8313008D02*
X12371229Y-8322531D01*
X12371229Y-8322531D02*
X12352182Y-8351103D01*
X12352182Y-8351103D02*
X12342658Y-8389198D01*
X12342658Y-8389198D02*
X12342658Y-8465389D01*
X12342658Y-8465389D02*
X12352182Y-8484436D01*
X12352182Y-8484436D02*
X12361706Y-8493960D01*
X12361706Y-8493960D02*
X12380753Y-8503484D01*
X12380753Y-8503484D02*
X12418848Y-8503484D01*
X12418848Y-8503484D02*
X12437896Y-8493960D01*
X12437896Y-8493960D02*
X12447420Y-8484436D01*
X12447420Y-8484436D02*
X12456944Y-8465389D01*
X12456944Y-8465389D02*
X12456944Y-8417770D01*
X12456944Y-8417770D02*
X12447420Y-8398722D01*
X12447420Y-8398722D02*
X12437896Y-8389198D01*
X12437896Y-8389198D02*
X12418848Y-8379674D01*
X12418848Y-8379674D02*
X12380753Y-8379674D01*
X12380753Y-8379674D02*
X12361706Y-8389198D01*
X12361706Y-8389198D02*
X12352182Y-8398722D01*
X12352182Y-8398722D02*
X12342658Y-8417770D01*
X12533134Y-8303484D02*
X12533134Y-8341579D01*
X12609325Y-8303484D02*
X12609325Y-8341579D01*
X12904563Y-8579674D02*
X12895039Y-8570150D01*
X12895039Y-8570150D02*
X12875991Y-8541579D01*
X12875991Y-8541579D02*
X12866468Y-8522531D01*
X12866468Y-8522531D02*
X12856944Y-8493960D01*
X12856944Y-8493960D02*
X12847420Y-8446341D01*
X12847420Y-8446341D02*
X12847420Y-8408246D01*
X12847420Y-8408246D02*
X12856944Y-8360627D01*
X12856944Y-8360627D02*
X12866468Y-8332055D01*
X12866468Y-8332055D02*
X12875991Y-8313008D01*
X12875991Y-8313008D02*
X12895039Y-8284436D01*
X12895039Y-8284436D02*
X12904563Y-8274912D01*
X12971229Y-8322531D02*
X12980753Y-8313008D01*
X12980753Y-8313008D02*
X12999801Y-8303484D01*
X12999801Y-8303484D02*
X13047420Y-8303484D01*
X13047420Y-8303484D02*
X13066468Y-8313008D01*
X13066468Y-8313008D02*
X13075991Y-8322531D01*
X13075991Y-8322531D02*
X13085515Y-8341579D01*
X13085515Y-8341579D02*
X13085515Y-8360627D01*
X13085515Y-8360627D02*
X13075991Y-8389198D01*
X13075991Y-8389198D02*
X12961706Y-8503484D01*
X12961706Y-8503484D02*
X13085515Y-8503484D01*
X13323610Y-8503484D02*
X13323610Y-8303484D01*
X13409325Y-8503484D02*
X13409325Y-8398722D01*
X13409325Y-8398722D02*
X13399801Y-8379674D01*
X13399801Y-8379674D02*
X13380753Y-8370150D01*
X13380753Y-8370150D02*
X13352182Y-8370150D01*
X13352182Y-8370150D02*
X13333134Y-8379674D01*
X13333134Y-8379674D02*
X13323610Y-8389198D01*
X13533134Y-8503484D02*
X13514087Y-8493960D01*
X13514087Y-8493960D02*
X13504563Y-8484436D01*
X13504563Y-8484436D02*
X13495039Y-8465389D01*
X13495039Y-8465389D02*
X13495039Y-8408246D01*
X13495039Y-8408246D02*
X13504563Y-8389198D01*
X13504563Y-8389198D02*
X13514087Y-8379674D01*
X13514087Y-8379674D02*
X13533134Y-8370150D01*
X13533134Y-8370150D02*
X13561706Y-8370150D01*
X13561706Y-8370150D02*
X13580753Y-8379674D01*
X13580753Y-8379674D02*
X13590277Y-8389198D01*
X13590277Y-8389198D02*
X13599801Y-8408246D01*
X13599801Y-8408246D02*
X13599801Y-8465389D01*
X13599801Y-8465389D02*
X13590277Y-8484436D01*
X13590277Y-8484436D02*
X13580753Y-8493960D01*
X13580753Y-8493960D02*
X13561706Y-8503484D01*
X13561706Y-8503484D02*
X13533134Y-8503484D01*
X13714087Y-8503484D02*
X13695039Y-8493960D01*
X13695039Y-8493960D02*
X13685515Y-8474912D01*
X13685515Y-8474912D02*
X13685515Y-8303484D01*
X13866468Y-8493960D02*
X13847420Y-8503484D01*
X13847420Y-8503484D02*
X13809325Y-8503484D01*
X13809325Y-8503484D02*
X13790277Y-8493960D01*
X13790277Y-8493960D02*
X13780753Y-8474912D01*
X13780753Y-8474912D02*
X13780753Y-8398722D01*
X13780753Y-8398722D02*
X13790277Y-8379674D01*
X13790277Y-8379674D02*
X13809325Y-8370150D01*
X13809325Y-8370150D02*
X13847420Y-8370150D01*
X13847420Y-8370150D02*
X13866468Y-8379674D01*
X13866468Y-8379674D02*
X13875991Y-8398722D01*
X13875991Y-8398722D02*
X13875991Y-8417770D01*
X13875991Y-8417770D02*
X13780753Y-8436817D01*
X13952182Y-8493960D02*
X13971230Y-8503484D01*
X13971230Y-8503484D02*
X14009325Y-8503484D01*
X14009325Y-8503484D02*
X14028372Y-8493960D01*
X14028372Y-8493960D02*
X14037896Y-8474912D01*
X14037896Y-8474912D02*
X14037896Y-8465389D01*
X14037896Y-8465389D02*
X14028372Y-8446341D01*
X14028372Y-8446341D02*
X14009325Y-8436817D01*
X14009325Y-8436817D02*
X13980753Y-8436817D01*
X13980753Y-8436817D02*
X13961706Y-8427293D01*
X13961706Y-8427293D02*
X13952182Y-8408246D01*
X13952182Y-8408246D02*
X13952182Y-8398722D01*
X13952182Y-8398722D02*
X13961706Y-8379674D01*
X13961706Y-8379674D02*
X13980753Y-8370150D01*
X13980753Y-8370150D02*
X14009325Y-8370150D01*
X14009325Y-8370150D02*
X14028372Y-8379674D01*
X14104563Y-8579674D02*
X14114087Y-8570150D01*
X14114087Y-8570150D02*
X14133134Y-8541579D01*
X14133134Y-8541579D02*
X14142658Y-8522531D01*
X14142658Y-8522531D02*
X14152182Y-8493960D01*
X14152182Y-8493960D02*
X14161706Y-8446341D01*
X14161706Y-8446341D02*
X14161706Y-8408246D01*
X14161706Y-8408246D02*
X14152182Y-8360627D01*
X14152182Y-8360627D02*
X14142658Y-8332055D01*
X14142658Y-8332055D02*
X14133134Y-8313008D01*
X14133134Y-8313008D02*
X14114087Y-8284436D01*
X14114087Y-8284436D02*
X14104563Y-8274912D01*
D15*
X9317785Y-8704285D02*
X9317785Y-8647716D01*
X9261216Y-8647716D01*
X9261216Y-8704285D01*
X9317785Y-8704285D01*
D11*
X9628372Y-8567484D02*
X9647420Y-8567484D01*
X9647420Y-8567484D02*
X9666467Y-8577008D01*
X9666467Y-8577008D02*
X9675991Y-8586531D01*
X9675991Y-8586531D02*
X9685515Y-8605579D01*
X9685515Y-8605579D02*
X9695039Y-8643674D01*
X9695039Y-8643674D02*
X9695039Y-8691293D01*
X9695039Y-8691293D02*
X9685515Y-8729389D01*
X9685515Y-8729389D02*
X9675991Y-8748436D01*
X9675991Y-8748436D02*
X9666467Y-8757960D01*
X9666467Y-8757960D02*
X9647420Y-8767484D01*
X9647420Y-8767484D02*
X9628372Y-8767484D01*
X9628372Y-8767484D02*
X9609324Y-8757960D01*
X9609324Y-8757960D02*
X9599801Y-8748436D01*
X9599801Y-8748436D02*
X9590277Y-8729389D01*
X9590277Y-8729389D02*
X9580753Y-8691293D01*
X9580753Y-8691293D02*
X9580753Y-8643674D01*
X9580753Y-8643674D02*
X9590277Y-8605579D01*
X9590277Y-8605579D02*
X9599801Y-8586531D01*
X9599801Y-8586531D02*
X9609324Y-8577008D01*
X9609324Y-8577008D02*
X9628372Y-8567484D01*
X9780753Y-8748436D02*
X9790277Y-8757960D01*
X9790277Y-8757960D02*
X9780753Y-8767484D01*
X9780753Y-8767484D02*
X9771229Y-8757960D01*
X9771229Y-8757960D02*
X9780753Y-8748436D01*
X9780753Y-8748436D02*
X9780753Y-8767484D01*
X9904563Y-8653198D02*
X9885515Y-8643674D01*
X9885515Y-8643674D02*
X9875991Y-8634150D01*
X9875991Y-8634150D02*
X9866467Y-8615103D01*
X9866467Y-8615103D02*
X9866467Y-8605579D01*
X9866467Y-8605579D02*
X9875991Y-8586531D01*
X9875991Y-8586531D02*
X9885515Y-8577008D01*
X9885515Y-8577008D02*
X9904563Y-8567484D01*
X9904563Y-8567484D02*
X9942658Y-8567484D01*
X9942658Y-8567484D02*
X9961705Y-8577008D01*
X9961705Y-8577008D02*
X9971229Y-8586531D01*
X9971229Y-8586531D02*
X9980753Y-8605579D01*
X9980753Y-8605579D02*
X9980753Y-8615103D01*
X9980753Y-8615103D02*
X9971229Y-8634150D01*
X9971229Y-8634150D02*
X9961705Y-8643674D01*
X9961705Y-8643674D02*
X9942658Y-8653198D01*
X9942658Y-8653198D02*
X9904563Y-8653198D01*
X9904563Y-8653198D02*
X9885515Y-8662722D01*
X9885515Y-8662722D02*
X9875991Y-8672246D01*
X9875991Y-8672246D02*
X9866467Y-8691293D01*
X9866467Y-8691293D02*
X9866467Y-8729389D01*
X9866467Y-8729389D02*
X9875991Y-8748436D01*
X9875991Y-8748436D02*
X9885515Y-8757960D01*
X9885515Y-8757960D02*
X9904563Y-8767484D01*
X9904563Y-8767484D02*
X9942658Y-8767484D01*
X9942658Y-8767484D02*
X9961705Y-8757960D01*
X9961705Y-8757960D02*
X9971229Y-8748436D01*
X9971229Y-8748436D02*
X9980753Y-8729389D01*
X9980753Y-8729389D02*
X9980753Y-8691293D01*
X9980753Y-8691293D02*
X9971229Y-8672246D01*
X9971229Y-8672246D02*
X9961705Y-8662722D01*
X9961705Y-8662722D02*
X9942658Y-8653198D01*
X10104563Y-8567484D02*
X10123610Y-8567484D01*
X10123610Y-8567484D02*
X10142658Y-8577008D01*
X10142658Y-8577008D02*
X10152182Y-8586531D01*
X10152182Y-8586531D02*
X10161705Y-8605579D01*
X10161705Y-8605579D02*
X10171229Y-8643674D01*
X10171229Y-8643674D02*
X10171229Y-8691293D01*
X10171229Y-8691293D02*
X10161705Y-8729389D01*
X10161705Y-8729389D02*
X10152182Y-8748436D01*
X10152182Y-8748436D02*
X10142658Y-8757960D01*
X10142658Y-8757960D02*
X10123610Y-8767484D01*
X10123610Y-8767484D02*
X10104563Y-8767484D01*
X10104563Y-8767484D02*
X10085515Y-8757960D01*
X10085515Y-8757960D02*
X10075991Y-8748436D01*
X10075991Y-8748436D02*
X10066467Y-8729389D01*
X10066467Y-8729389D02*
X10056944Y-8691293D01*
X10056944Y-8691293D02*
X10056944Y-8643674D01*
X10056944Y-8643674D02*
X10066467Y-8605579D01*
X10066467Y-8605579D02*
X10075991Y-8586531D01*
X10075991Y-8586531D02*
X10085515Y-8577008D01*
X10085515Y-8577008D02*
X10104563Y-8567484D01*
X10295039Y-8567484D02*
X10314086Y-8567484D01*
X10314086Y-8567484D02*
X10333134Y-8577008D01*
X10333134Y-8577008D02*
X10342658Y-8586531D01*
X10342658Y-8586531D02*
X10352182Y-8605579D01*
X10352182Y-8605579D02*
X10361705Y-8643674D01*
X10361705Y-8643674D02*
X10361705Y-8691293D01*
X10361705Y-8691293D02*
X10352182Y-8729389D01*
X10352182Y-8729389D02*
X10342658Y-8748436D01*
X10342658Y-8748436D02*
X10333134Y-8757960D01*
X10333134Y-8757960D02*
X10314086Y-8767484D01*
X10314086Y-8767484D02*
X10295039Y-8767484D01*
X10295039Y-8767484D02*
X10275991Y-8757960D01*
X10275991Y-8757960D02*
X10266467Y-8748436D01*
X10266467Y-8748436D02*
X10256944Y-8729389D01*
X10256944Y-8729389D02*
X10247420Y-8691293D01*
X10247420Y-8691293D02*
X10247420Y-8643674D01*
X10247420Y-8643674D02*
X10256944Y-8605579D01*
X10256944Y-8605579D02*
X10266467Y-8586531D01*
X10266467Y-8586531D02*
X10275991Y-8577008D01*
X10275991Y-8577008D02*
X10295039Y-8567484D01*
X10447420Y-8767484D02*
X10447420Y-8634150D01*
X10447420Y-8653198D02*
X10456944Y-8643674D01*
X10456944Y-8643674D02*
X10475991Y-8634150D01*
X10475991Y-8634150D02*
X10504563Y-8634150D01*
X10504563Y-8634150D02*
X10523610Y-8643674D01*
X10523610Y-8643674D02*
X10533134Y-8662722D01*
X10533134Y-8662722D02*
X10533134Y-8767484D01*
X10533134Y-8662722D02*
X10542658Y-8643674D01*
X10542658Y-8643674D02*
X10561705Y-8634150D01*
X10561705Y-8634150D02*
X10590277Y-8634150D01*
X10590277Y-8634150D02*
X10609325Y-8643674D01*
X10609325Y-8643674D02*
X10618848Y-8662722D01*
X10618848Y-8662722D02*
X10618848Y-8767484D01*
X10714086Y-8767484D02*
X10714086Y-8634150D01*
X10714086Y-8653198D02*
X10723610Y-8643674D01*
X10723610Y-8643674D02*
X10742658Y-8634150D01*
X10742658Y-8634150D02*
X10771229Y-8634150D01*
X10771229Y-8634150D02*
X10790277Y-8643674D01*
X10790277Y-8643674D02*
X10799801Y-8662722D01*
X10799801Y-8662722D02*
X10799801Y-8767484D01*
X10799801Y-8662722D02*
X10809325Y-8643674D01*
X10809325Y-8643674D02*
X10828372Y-8634150D01*
X10828372Y-8634150D02*
X10856944Y-8634150D01*
X10856944Y-8634150D02*
X10875991Y-8643674D01*
X10875991Y-8643674D02*
X10885515Y-8662722D01*
X10885515Y-8662722D02*
X10885515Y-8767484D01*
X11275991Y-8557960D02*
X11104563Y-8815103D01*
X11533134Y-8567484D02*
X11552182Y-8567484D01*
X11552182Y-8567484D02*
X11571229Y-8577008D01*
X11571229Y-8577008D02*
X11580753Y-8586531D01*
X11580753Y-8586531D02*
X11590277Y-8605579D01*
X11590277Y-8605579D02*
X11599801Y-8643674D01*
X11599801Y-8643674D02*
X11599801Y-8691293D01*
X11599801Y-8691293D02*
X11590277Y-8729389D01*
X11590277Y-8729389D02*
X11580753Y-8748436D01*
X11580753Y-8748436D02*
X11571229Y-8757960D01*
X11571229Y-8757960D02*
X11552182Y-8767484D01*
X11552182Y-8767484D02*
X11533134Y-8767484D01*
X11533134Y-8767484D02*
X11514086Y-8757960D01*
X11514086Y-8757960D02*
X11504563Y-8748436D01*
X11504563Y-8748436D02*
X11495039Y-8729389D01*
X11495039Y-8729389D02*
X11485515Y-8691293D01*
X11485515Y-8691293D02*
X11485515Y-8643674D01*
X11485515Y-8643674D02*
X11495039Y-8605579D01*
X11495039Y-8605579D02*
X11504563Y-8586531D01*
X11504563Y-8586531D02*
X11514086Y-8577008D01*
X11514086Y-8577008D02*
X11533134Y-8567484D01*
X11685515Y-8748436D02*
X11695039Y-8757960D01*
X11695039Y-8757960D02*
X11685515Y-8767484D01*
X11685515Y-8767484D02*
X11675991Y-8757960D01*
X11675991Y-8757960D02*
X11685515Y-8748436D01*
X11685515Y-8748436D02*
X11685515Y-8767484D01*
X11818848Y-8567484D02*
X11837896Y-8567484D01*
X11837896Y-8567484D02*
X11856944Y-8577008D01*
X11856944Y-8577008D02*
X11866467Y-8586531D01*
X11866467Y-8586531D02*
X11875991Y-8605579D01*
X11875991Y-8605579D02*
X11885515Y-8643674D01*
X11885515Y-8643674D02*
X11885515Y-8691293D01*
X11885515Y-8691293D02*
X11875991Y-8729389D01*
X11875991Y-8729389D02*
X11866467Y-8748436D01*
X11866467Y-8748436D02*
X11856944Y-8757960D01*
X11856944Y-8757960D02*
X11837896Y-8767484D01*
X11837896Y-8767484D02*
X11818848Y-8767484D01*
X11818848Y-8767484D02*
X11799801Y-8757960D01*
X11799801Y-8757960D02*
X11790277Y-8748436D01*
X11790277Y-8748436D02*
X11780753Y-8729389D01*
X11780753Y-8729389D02*
X11771229Y-8691293D01*
X11771229Y-8691293D02*
X11771229Y-8643674D01*
X11771229Y-8643674D02*
X11780753Y-8605579D01*
X11780753Y-8605579D02*
X11790277Y-8586531D01*
X11790277Y-8586531D02*
X11799801Y-8577008D01*
X11799801Y-8577008D02*
X11818848Y-8567484D01*
X11952182Y-8567484D02*
X12075991Y-8567484D01*
X12075991Y-8567484D02*
X12009325Y-8643674D01*
X12009325Y-8643674D02*
X12037896Y-8643674D01*
X12037896Y-8643674D02*
X12056944Y-8653198D01*
X12056944Y-8653198D02*
X12066467Y-8662722D01*
X12066467Y-8662722D02*
X12075991Y-8681770D01*
X12075991Y-8681770D02*
X12075991Y-8729389D01*
X12075991Y-8729389D02*
X12066467Y-8748436D01*
X12066467Y-8748436D02*
X12056944Y-8757960D01*
X12056944Y-8757960D02*
X12037896Y-8767484D01*
X12037896Y-8767484D02*
X11980753Y-8767484D01*
X11980753Y-8767484D02*
X11961706Y-8757960D01*
X11961706Y-8757960D02*
X11952182Y-8748436D01*
X12266467Y-8767484D02*
X12152182Y-8767484D01*
X12209325Y-8767484D02*
X12209325Y-8567484D01*
X12209325Y-8567484D02*
X12190277Y-8596055D01*
X12190277Y-8596055D02*
X12171229Y-8615103D01*
X12171229Y-8615103D02*
X12152182Y-8624627D01*
X12447420Y-8567484D02*
X12352182Y-8567484D01*
X12352182Y-8567484D02*
X12342658Y-8662722D01*
X12342658Y-8662722D02*
X12352182Y-8653198D01*
X12352182Y-8653198D02*
X12371229Y-8643674D01*
X12371229Y-8643674D02*
X12418848Y-8643674D01*
X12418848Y-8643674D02*
X12437896Y-8653198D01*
X12437896Y-8653198D02*
X12447420Y-8662722D01*
X12447420Y-8662722D02*
X12456944Y-8681770D01*
X12456944Y-8681770D02*
X12456944Y-8729389D01*
X12456944Y-8729389D02*
X12447420Y-8748436D01*
X12447420Y-8748436D02*
X12437896Y-8757960D01*
X12437896Y-8757960D02*
X12418848Y-8767484D01*
X12418848Y-8767484D02*
X12371229Y-8767484D01*
X12371229Y-8767484D02*
X12352182Y-8757960D01*
X12352182Y-8757960D02*
X12342658Y-8748436D01*
X12533134Y-8567484D02*
X12533134Y-8605579D01*
X12609325Y-8567484D02*
X12609325Y-8605579D01*
X12904563Y-8843674D02*
X12895039Y-8834150D01*
X12895039Y-8834150D02*
X12875991Y-8805579D01*
X12875991Y-8805579D02*
X12866468Y-8786531D01*
X12866468Y-8786531D02*
X12856944Y-8757960D01*
X12856944Y-8757960D02*
X12847420Y-8710341D01*
X12847420Y-8710341D02*
X12847420Y-8672246D01*
X12847420Y-8672246D02*
X12856944Y-8624627D01*
X12856944Y-8624627D02*
X12866468Y-8596055D01*
X12866468Y-8596055D02*
X12875991Y-8577008D01*
X12875991Y-8577008D02*
X12895039Y-8548436D01*
X12895039Y-8548436D02*
X12904563Y-8538912D01*
X13066468Y-8634150D02*
X13066468Y-8767484D01*
X13018848Y-8557960D02*
X12971229Y-8700817D01*
X12971229Y-8700817D02*
X13095039Y-8700817D01*
X13256944Y-8634150D02*
X13256944Y-8767484D01*
X13209325Y-8557960D02*
X13161706Y-8700817D01*
X13161706Y-8700817D02*
X13285515Y-8700817D01*
X13514087Y-8767484D02*
X13514087Y-8567484D01*
X13599801Y-8767484D02*
X13599801Y-8662722D01*
X13599801Y-8662722D02*
X13590277Y-8643674D01*
X13590277Y-8643674D02*
X13571230Y-8634150D01*
X13571230Y-8634150D02*
X13542658Y-8634150D01*
X13542658Y-8634150D02*
X13523610Y-8643674D01*
X13523610Y-8643674D02*
X13514087Y-8653198D01*
X13723610Y-8767484D02*
X13704563Y-8757960D01*
X13704563Y-8757960D02*
X13695039Y-8748436D01*
X13695039Y-8748436D02*
X13685515Y-8729389D01*
X13685515Y-8729389D02*
X13685515Y-8672246D01*
X13685515Y-8672246D02*
X13695039Y-8653198D01*
X13695039Y-8653198D02*
X13704563Y-8643674D01*
X13704563Y-8643674D02*
X13723610Y-8634150D01*
X13723610Y-8634150D02*
X13752182Y-8634150D01*
X13752182Y-8634150D02*
X13771230Y-8643674D01*
X13771230Y-8643674D02*
X13780753Y-8653198D01*
X13780753Y-8653198D02*
X13790277Y-8672246D01*
X13790277Y-8672246D02*
X13790277Y-8729389D01*
X13790277Y-8729389D02*
X13780753Y-8748436D01*
X13780753Y-8748436D02*
X13771230Y-8757960D01*
X13771230Y-8757960D02*
X13752182Y-8767484D01*
X13752182Y-8767484D02*
X13723610Y-8767484D01*
X13904563Y-8767484D02*
X13885515Y-8757960D01*
X13885515Y-8757960D02*
X13875991Y-8738912D01*
X13875991Y-8738912D02*
X13875991Y-8567484D01*
X14056944Y-8757960D02*
X14037896Y-8767484D01*
X14037896Y-8767484D02*
X13999801Y-8767484D01*
X13999801Y-8767484D02*
X13980753Y-8757960D01*
X13980753Y-8757960D02*
X13971230Y-8738912D01*
X13971230Y-8738912D02*
X13971230Y-8662722D01*
X13971230Y-8662722D02*
X13980753Y-8643674D01*
X13980753Y-8643674D02*
X13999801Y-8634150D01*
X13999801Y-8634150D02*
X14037896Y-8634150D01*
X14037896Y-8634150D02*
X14056944Y-8643674D01*
X14056944Y-8643674D02*
X14066468Y-8662722D01*
X14066468Y-8662722D02*
X14066468Y-8681770D01*
X14066468Y-8681770D02*
X13971230Y-8700817D01*
X14142658Y-8757960D02*
X14161706Y-8767484D01*
X14161706Y-8767484D02*
X14199801Y-8767484D01*
X14199801Y-8767484D02*
X14218849Y-8757960D01*
X14218849Y-8757960D02*
X14228372Y-8738912D01*
X14228372Y-8738912D02*
X14228372Y-8729389D01*
X14228372Y-8729389D02*
X14218849Y-8710341D01*
X14218849Y-8710341D02*
X14199801Y-8700817D01*
X14199801Y-8700817D02*
X14171230Y-8700817D01*
X14171230Y-8700817D02*
X14152182Y-8691293D01*
X14152182Y-8691293D02*
X14142658Y-8672246D01*
X14142658Y-8672246D02*
X14142658Y-8662722D01*
X14142658Y-8662722D02*
X14152182Y-8643674D01*
X14152182Y-8643674D02*
X14171230Y-8634150D01*
X14171230Y-8634150D02*
X14199801Y-8634150D01*
X14199801Y-8634150D02*
X14218849Y-8643674D01*
X14295039Y-8843674D02*
X14304563Y-8834150D01*
X14304563Y-8834150D02*
X14323611Y-8805579D01*
X14323611Y-8805579D02*
X14333134Y-8786531D01*
X14333134Y-8786531D02*
X14342658Y-8757960D01*
X14342658Y-8757960D02*
X14352182Y-8710341D01*
X14352182Y-8710341D02*
X14352182Y-8672246D01*
X14352182Y-8672246D02*
X14342658Y-8624627D01*
X14342658Y-8624627D02*
X14333134Y-8596055D01*
X14333134Y-8596055D02*
X14323611Y-8577008D01*
X14323611Y-8577008D02*
X14304563Y-8548436D01*
X14304563Y-8548436D02*
X14295039Y-8538912D01*
D10*
X9279500Y-8990000D02*
X9329500Y-8940000D01*
X9279500Y-8890000D01*
X9229500Y-8940000D01*
X9279500Y-8990000D01*
D11*
X9695039Y-9031484D02*
X9580753Y-9031484D01*
X9637896Y-9031484D02*
X9637896Y-8831484D01*
X9637896Y-8831484D02*
X9618848Y-8860055D01*
X9618848Y-8860055D02*
X9599801Y-8879103D01*
X9599801Y-8879103D02*
X9580753Y-8888627D01*
X9780753Y-9012436D02*
X9790277Y-9021960D01*
X9790277Y-9021960D02*
X9780753Y-9031484D01*
X9780753Y-9031484D02*
X9771229Y-9021960D01*
X9771229Y-9021960D02*
X9780753Y-9012436D01*
X9780753Y-9012436D02*
X9780753Y-9031484D01*
X9914086Y-8831484D02*
X9933134Y-8831484D01*
X9933134Y-8831484D02*
X9952182Y-8841008D01*
X9952182Y-8841008D02*
X9961705Y-8850531D01*
X9961705Y-8850531D02*
X9971229Y-8869579D01*
X9971229Y-8869579D02*
X9980753Y-8907674D01*
X9980753Y-8907674D02*
X9980753Y-8955293D01*
X9980753Y-8955293D02*
X9971229Y-8993389D01*
X9971229Y-8993389D02*
X9961705Y-9012436D01*
X9961705Y-9012436D02*
X9952182Y-9021960D01*
X9952182Y-9021960D02*
X9933134Y-9031484D01*
X9933134Y-9031484D02*
X9914086Y-9031484D01*
X9914086Y-9031484D02*
X9895039Y-9021960D01*
X9895039Y-9021960D02*
X9885515Y-9012436D01*
X9885515Y-9012436D02*
X9875991Y-8993389D01*
X9875991Y-8993389D02*
X9866467Y-8955293D01*
X9866467Y-8955293D02*
X9866467Y-8907674D01*
X9866467Y-8907674D02*
X9875991Y-8869579D01*
X9875991Y-8869579D02*
X9885515Y-8850531D01*
X9885515Y-8850531D02*
X9895039Y-8841008D01*
X9895039Y-8841008D02*
X9914086Y-8831484D01*
X10104563Y-8831484D02*
X10123610Y-8831484D01*
X10123610Y-8831484D02*
X10142658Y-8841008D01*
X10142658Y-8841008D02*
X10152182Y-8850531D01*
X10152182Y-8850531D02*
X10161705Y-8869579D01*
X10161705Y-8869579D02*
X10171229Y-8907674D01*
X10171229Y-8907674D02*
X10171229Y-8955293D01*
X10171229Y-8955293D02*
X10161705Y-8993389D01*
X10161705Y-8993389D02*
X10152182Y-9012436D01*
X10152182Y-9012436D02*
X10142658Y-9021960D01*
X10142658Y-9021960D02*
X10123610Y-9031484D01*
X10123610Y-9031484D02*
X10104563Y-9031484D01*
X10104563Y-9031484D02*
X10085515Y-9021960D01*
X10085515Y-9021960D02*
X10075991Y-9012436D01*
X10075991Y-9012436D02*
X10066467Y-8993389D01*
X10066467Y-8993389D02*
X10056944Y-8955293D01*
X10056944Y-8955293D02*
X10056944Y-8907674D01*
X10056944Y-8907674D02*
X10066467Y-8869579D01*
X10066467Y-8869579D02*
X10075991Y-8850531D01*
X10075991Y-8850531D02*
X10085515Y-8841008D01*
X10085515Y-8841008D02*
X10104563Y-8831484D01*
X10295039Y-8831484D02*
X10314086Y-8831484D01*
X10314086Y-8831484D02*
X10333134Y-8841008D01*
X10333134Y-8841008D02*
X10342658Y-8850531D01*
X10342658Y-8850531D02*
X10352182Y-8869579D01*
X10352182Y-8869579D02*
X10361705Y-8907674D01*
X10361705Y-8907674D02*
X10361705Y-8955293D01*
X10361705Y-8955293D02*
X10352182Y-8993389D01*
X10352182Y-8993389D02*
X10342658Y-9012436D01*
X10342658Y-9012436D02*
X10333134Y-9021960D01*
X10333134Y-9021960D02*
X10314086Y-9031484D01*
X10314086Y-9031484D02*
X10295039Y-9031484D01*
X10295039Y-9031484D02*
X10275991Y-9021960D01*
X10275991Y-9021960D02*
X10266467Y-9012436D01*
X10266467Y-9012436D02*
X10256944Y-8993389D01*
X10256944Y-8993389D02*
X10247420Y-8955293D01*
X10247420Y-8955293D02*
X10247420Y-8907674D01*
X10247420Y-8907674D02*
X10256944Y-8869579D01*
X10256944Y-8869579D02*
X10266467Y-8850531D01*
X10266467Y-8850531D02*
X10275991Y-8841008D01*
X10275991Y-8841008D02*
X10295039Y-8831484D01*
X10447420Y-9031484D02*
X10447420Y-8898150D01*
X10447420Y-8917198D02*
X10456944Y-8907674D01*
X10456944Y-8907674D02*
X10475991Y-8898150D01*
X10475991Y-8898150D02*
X10504563Y-8898150D01*
X10504563Y-8898150D02*
X10523610Y-8907674D01*
X10523610Y-8907674D02*
X10533134Y-8926722D01*
X10533134Y-8926722D02*
X10533134Y-9031484D01*
X10533134Y-8926722D02*
X10542658Y-8907674D01*
X10542658Y-8907674D02*
X10561705Y-8898150D01*
X10561705Y-8898150D02*
X10590277Y-8898150D01*
X10590277Y-8898150D02*
X10609325Y-8907674D01*
X10609325Y-8907674D02*
X10618848Y-8926722D01*
X10618848Y-8926722D02*
X10618848Y-9031484D01*
X10714086Y-9031484D02*
X10714086Y-8898150D01*
X10714086Y-8917198D02*
X10723610Y-8907674D01*
X10723610Y-8907674D02*
X10742658Y-8898150D01*
X10742658Y-8898150D02*
X10771229Y-8898150D01*
X10771229Y-8898150D02*
X10790277Y-8907674D01*
X10790277Y-8907674D02*
X10799801Y-8926722D01*
X10799801Y-8926722D02*
X10799801Y-9031484D01*
X10799801Y-8926722D02*
X10809325Y-8907674D01*
X10809325Y-8907674D02*
X10828372Y-8898150D01*
X10828372Y-8898150D02*
X10856944Y-8898150D01*
X10856944Y-8898150D02*
X10875991Y-8907674D01*
X10875991Y-8907674D02*
X10885515Y-8926722D01*
X10885515Y-8926722D02*
X10885515Y-9031484D01*
X11275991Y-8821960D02*
X11104563Y-9079103D01*
X11533134Y-8831484D02*
X11552182Y-8831484D01*
X11552182Y-8831484D02*
X11571229Y-8841008D01*
X11571229Y-8841008D02*
X11580753Y-8850531D01*
X11580753Y-8850531D02*
X11590277Y-8869579D01*
X11590277Y-8869579D02*
X11599801Y-8907674D01*
X11599801Y-8907674D02*
X11599801Y-8955293D01*
X11599801Y-8955293D02*
X11590277Y-8993389D01*
X11590277Y-8993389D02*
X11580753Y-9012436D01*
X11580753Y-9012436D02*
X11571229Y-9021960D01*
X11571229Y-9021960D02*
X11552182Y-9031484D01*
X11552182Y-9031484D02*
X11533134Y-9031484D01*
X11533134Y-9031484D02*
X11514086Y-9021960D01*
X11514086Y-9021960D02*
X11504563Y-9012436D01*
X11504563Y-9012436D02*
X11495039Y-8993389D01*
X11495039Y-8993389D02*
X11485515Y-8955293D01*
X11485515Y-8955293D02*
X11485515Y-8907674D01*
X11485515Y-8907674D02*
X11495039Y-8869579D01*
X11495039Y-8869579D02*
X11504563Y-8850531D01*
X11504563Y-8850531D02*
X11514086Y-8841008D01*
X11514086Y-8841008D02*
X11533134Y-8831484D01*
X11685515Y-9012436D02*
X11695039Y-9021960D01*
X11695039Y-9021960D02*
X11685515Y-9031484D01*
X11685515Y-9031484D02*
X11675991Y-9021960D01*
X11675991Y-9021960D02*
X11685515Y-9012436D01*
X11685515Y-9012436D02*
X11685515Y-9031484D01*
X11818848Y-8831484D02*
X11837896Y-8831484D01*
X11837896Y-8831484D02*
X11856944Y-8841008D01*
X11856944Y-8841008D02*
X11866467Y-8850531D01*
X11866467Y-8850531D02*
X11875991Y-8869579D01*
X11875991Y-8869579D02*
X11885515Y-8907674D01*
X11885515Y-8907674D02*
X11885515Y-8955293D01*
X11885515Y-8955293D02*
X11875991Y-8993389D01*
X11875991Y-8993389D02*
X11866467Y-9012436D01*
X11866467Y-9012436D02*
X11856944Y-9021960D01*
X11856944Y-9021960D02*
X11837896Y-9031484D01*
X11837896Y-9031484D02*
X11818848Y-9031484D01*
X11818848Y-9031484D02*
X11799801Y-9021960D01*
X11799801Y-9021960D02*
X11790277Y-9012436D01*
X11790277Y-9012436D02*
X11780753Y-8993389D01*
X11780753Y-8993389D02*
X11771229Y-8955293D01*
X11771229Y-8955293D02*
X11771229Y-8907674D01*
X11771229Y-8907674D02*
X11780753Y-8869579D01*
X11780753Y-8869579D02*
X11790277Y-8850531D01*
X11790277Y-8850531D02*
X11799801Y-8841008D01*
X11799801Y-8841008D02*
X11818848Y-8831484D01*
X11952182Y-8831484D02*
X12075991Y-8831484D01*
X12075991Y-8831484D02*
X12009325Y-8907674D01*
X12009325Y-8907674D02*
X12037896Y-8907674D01*
X12037896Y-8907674D02*
X12056944Y-8917198D01*
X12056944Y-8917198D02*
X12066467Y-8926722D01*
X12066467Y-8926722D02*
X12075991Y-8945770D01*
X12075991Y-8945770D02*
X12075991Y-8993389D01*
X12075991Y-8993389D02*
X12066467Y-9012436D01*
X12066467Y-9012436D02*
X12056944Y-9021960D01*
X12056944Y-9021960D02*
X12037896Y-9031484D01*
X12037896Y-9031484D02*
X11980753Y-9031484D01*
X11980753Y-9031484D02*
X11961706Y-9021960D01*
X11961706Y-9021960D02*
X11952182Y-9012436D01*
X12171229Y-9031484D02*
X12209325Y-9031484D01*
X12209325Y-9031484D02*
X12228372Y-9021960D01*
X12228372Y-9021960D02*
X12237896Y-9012436D01*
X12237896Y-9012436D02*
X12256944Y-8983865D01*
X12256944Y-8983865D02*
X12266467Y-8945770D01*
X12266467Y-8945770D02*
X12266467Y-8869579D01*
X12266467Y-8869579D02*
X12256944Y-8850531D01*
X12256944Y-8850531D02*
X12247420Y-8841008D01*
X12247420Y-8841008D02*
X12228372Y-8831484D01*
X12228372Y-8831484D02*
X12190277Y-8831484D01*
X12190277Y-8831484D02*
X12171229Y-8841008D01*
X12171229Y-8841008D02*
X12161706Y-8850531D01*
X12161706Y-8850531D02*
X12152182Y-8869579D01*
X12152182Y-8869579D02*
X12152182Y-8917198D01*
X12152182Y-8917198D02*
X12161706Y-8936246D01*
X12161706Y-8936246D02*
X12171229Y-8945770D01*
X12171229Y-8945770D02*
X12190277Y-8955293D01*
X12190277Y-8955293D02*
X12228372Y-8955293D01*
X12228372Y-8955293D02*
X12247420Y-8945770D01*
X12247420Y-8945770D02*
X12256944Y-8936246D01*
X12256944Y-8936246D02*
X12266467Y-8917198D01*
X12437896Y-8898150D02*
X12437896Y-9031484D01*
X12390277Y-8821960D02*
X12342658Y-8964817D01*
X12342658Y-8964817D02*
X12466467Y-8964817D01*
X12533134Y-8831484D02*
X12533134Y-8869579D01*
X12609325Y-8831484D02*
X12609325Y-8869579D01*
X12904563Y-9107674D02*
X12895039Y-9098150D01*
X12895039Y-9098150D02*
X12875991Y-9069579D01*
X12875991Y-9069579D02*
X12866468Y-9050531D01*
X12866468Y-9050531D02*
X12856944Y-9021960D01*
X12856944Y-9021960D02*
X12847420Y-8974341D01*
X12847420Y-8974341D02*
X12847420Y-8936246D01*
X12847420Y-8936246D02*
X12856944Y-8888627D01*
X12856944Y-8888627D02*
X12866468Y-8860055D01*
X12866468Y-8860055D02*
X12875991Y-8841008D01*
X12875991Y-8841008D02*
X12895039Y-8812436D01*
X12895039Y-8812436D02*
X12904563Y-8802912D01*
X13066468Y-8898150D02*
X13066468Y-9031484D01*
X13018848Y-8821960D02*
X12971229Y-8964817D01*
X12971229Y-8964817D02*
X13095039Y-8964817D01*
X13256944Y-8831484D02*
X13218848Y-8831484D01*
X13218848Y-8831484D02*
X13199801Y-8841008D01*
X13199801Y-8841008D02*
X13190277Y-8850531D01*
X13190277Y-8850531D02*
X13171229Y-8879103D01*
X13171229Y-8879103D02*
X13161706Y-8917198D01*
X13161706Y-8917198D02*
X13161706Y-8993389D01*
X13161706Y-8993389D02*
X13171229Y-9012436D01*
X13171229Y-9012436D02*
X13180753Y-9021960D01*
X13180753Y-9021960D02*
X13199801Y-9031484D01*
X13199801Y-9031484D02*
X13237896Y-9031484D01*
X13237896Y-9031484D02*
X13256944Y-9021960D01*
X13256944Y-9021960D02*
X13266468Y-9012436D01*
X13266468Y-9012436D02*
X13275991Y-8993389D01*
X13275991Y-8993389D02*
X13275991Y-8945770D01*
X13275991Y-8945770D02*
X13266468Y-8926722D01*
X13266468Y-8926722D02*
X13256944Y-8917198D01*
X13256944Y-8917198D02*
X13237896Y-8907674D01*
X13237896Y-8907674D02*
X13199801Y-8907674D01*
X13199801Y-8907674D02*
X13180753Y-8917198D01*
X13180753Y-8917198D02*
X13171229Y-8926722D01*
X13171229Y-8926722D02*
X13161706Y-8945770D01*
X13514087Y-9031484D02*
X13514087Y-8831484D01*
X13599801Y-9031484D02*
X13599801Y-8926722D01*
X13599801Y-8926722D02*
X13590277Y-8907674D01*
X13590277Y-8907674D02*
X13571230Y-8898150D01*
X13571230Y-8898150D02*
X13542658Y-8898150D01*
X13542658Y-8898150D02*
X13523610Y-8907674D01*
X13523610Y-8907674D02*
X13514087Y-8917198D01*
X13723610Y-9031484D02*
X13704563Y-9021960D01*
X13704563Y-9021960D02*
X13695039Y-9012436D01*
X13695039Y-9012436D02*
X13685515Y-8993389D01*
X13685515Y-8993389D02*
X13685515Y-8936246D01*
X13685515Y-8936246D02*
X13695039Y-8917198D01*
X13695039Y-8917198D02*
X13704563Y-8907674D01*
X13704563Y-8907674D02*
X13723610Y-8898150D01*
X13723610Y-8898150D02*
X13752182Y-8898150D01*
X13752182Y-8898150D02*
X13771230Y-8907674D01*
X13771230Y-8907674D02*
X13780753Y-8917198D01*
X13780753Y-8917198D02*
X13790277Y-8936246D01*
X13790277Y-8936246D02*
X13790277Y-8993389D01*
X13790277Y-8993389D02*
X13780753Y-9012436D01*
X13780753Y-9012436D02*
X13771230Y-9021960D01*
X13771230Y-9021960D02*
X13752182Y-9031484D01*
X13752182Y-9031484D02*
X13723610Y-9031484D01*
X13904563Y-9031484D02*
X13885515Y-9021960D01*
X13885515Y-9021960D02*
X13875991Y-9002912D01*
X13875991Y-9002912D02*
X13875991Y-8831484D01*
X14056944Y-9021960D02*
X14037896Y-9031484D01*
X14037896Y-9031484D02*
X13999801Y-9031484D01*
X13999801Y-9031484D02*
X13980753Y-9021960D01*
X13980753Y-9021960D02*
X13971230Y-9002912D01*
X13971230Y-9002912D02*
X13971230Y-8926722D01*
X13971230Y-8926722D02*
X13980753Y-8907674D01*
X13980753Y-8907674D02*
X13999801Y-8898150D01*
X13999801Y-8898150D02*
X14037896Y-8898150D01*
X14037896Y-8898150D02*
X14056944Y-8907674D01*
X14056944Y-8907674D02*
X14066468Y-8926722D01*
X14066468Y-8926722D02*
X14066468Y-8945770D01*
X14066468Y-8945770D02*
X13971230Y-8964817D01*
X14142658Y-9021960D02*
X14161706Y-9031484D01*
X14161706Y-9031484D02*
X14199801Y-9031484D01*
X14199801Y-9031484D02*
X14218849Y-9021960D01*
X14218849Y-9021960D02*
X14228372Y-9002912D01*
X14228372Y-9002912D02*
X14228372Y-8993389D01*
X14228372Y-8993389D02*
X14218849Y-8974341D01*
X14218849Y-8974341D02*
X14199801Y-8964817D01*
X14199801Y-8964817D02*
X14171230Y-8964817D01*
X14171230Y-8964817D02*
X14152182Y-8955293D01*
X14152182Y-8955293D02*
X14142658Y-8936246D01*
X14142658Y-8936246D02*
X14142658Y-8926722D01*
X14142658Y-8926722D02*
X14152182Y-8907674D01*
X14152182Y-8907674D02*
X14171230Y-8898150D01*
X14171230Y-8898150D02*
X14199801Y-8898150D01*
X14199801Y-8898150D02*
X14218849Y-8907674D01*
X14295039Y-9107674D02*
X14304563Y-9098150D01*
X14304563Y-9098150D02*
X14323611Y-9069579D01*
X14323611Y-9069579D02*
X14333134Y-9050531D01*
X14333134Y-9050531D02*
X14342658Y-9021960D01*
X14342658Y-9021960D02*
X14352182Y-8974341D01*
X14352182Y-8974341D02*
X14352182Y-8936246D01*
X14352182Y-8936246D02*
X14342658Y-8888627D01*
X14342658Y-8888627D02*
X14333134Y-8860055D01*
X14333134Y-8860055D02*
X14323611Y-8841008D01*
X14323611Y-8841008D02*
X14304563Y-8812436D01*
X14304563Y-8812436D02*
X14295039Y-8802912D01*
M02*
