G04 #@! TF.GenerationSoftware,KiCad,Pcbnew,(6.0.11-0)*
G04 #@! TF.CreationDate,2023-06-20T14:36:58+02:00*
G04 #@! TF.ProjectId,atf1504_plcc44_breakout,61746631-3530-4345-9f70-6c636334345f,A*
G04 #@! TF.SameCoordinates,Original*
G04 #@! TF.FileFunction,Legend,Top*
G04 #@! TF.FilePolarity,Positive*
%FSLAX46Y46*%
G04 Gerber Fmt 4.6, Leading zero omitted, Abs format (unit mm)*
G04 Created by KiCad (PCBNEW (6.0.11-0)) date 2023-06-20 14:36:58*
%MOMM*%
%LPD*%
G01*
G04 APERTURE LIST*
G04 Aperture macros list*
%AMRoundRect*
0 Rectangle with rounded corners*
0 $1 Rounding radius*
0 $2 $3 $4 $5 $6 $7 $8 $9 X,Y pos of 4 corners*
0 Add a 4 corners polygon primitive as box body*
4,1,4,$2,$3,$4,$5,$6,$7,$8,$9,$2,$3,0*
0 Add four circle primitives for the rounded corners*
1,1,$1+$1,$2,$3*
1,1,$1+$1,$4,$5*
1,1,$1+$1,$6,$7*
1,1,$1+$1,$8,$9*
0 Add four rect primitives between the rounded corners*
20,1,$1+$1,$2,$3,$4,$5,0*
20,1,$1+$1,$4,$5,$6,$7,0*
20,1,$1+$1,$6,$7,$8,$9,0*
20,1,$1+$1,$8,$9,$2,$3,0*%
G04 Aperture macros list end*
%ADD10C,0.150000*%
%ADD11C,0.120000*%
%ADD12R,1.422400X1.422400*%
%ADD13C,1.422400*%
%ADD14RoundRect,0.250000X-0.600000X-0.600000X0.600000X-0.600000X0.600000X0.600000X-0.600000X0.600000X0*%
%ADD15C,1.700000*%
%ADD16R,1.700000X1.700000*%
%ADD17O,1.700000X1.700000*%
G04 APERTURE END LIST*
D10*
X150026666Y-56326547D02*
X150026666Y-55850357D01*
X150312380Y-56421785D02*
X149312380Y-56088452D01*
X150312380Y-55755119D01*
X149740952Y-55278928D02*
X149693333Y-55374166D01*
X149645714Y-55421785D01*
X149550476Y-55469404D01*
X149502857Y-55469404D01*
X149407619Y-55421785D01*
X149360000Y-55374166D01*
X149312380Y-55278928D01*
X149312380Y-55088452D01*
X149360000Y-54993214D01*
X149407619Y-54945595D01*
X149502857Y-54897976D01*
X149550476Y-54897976D01*
X149645714Y-54945595D01*
X149693333Y-54993214D01*
X149740952Y-55088452D01*
X149740952Y-55278928D01*
X149788571Y-55374166D01*
X149836190Y-55421785D01*
X149931428Y-55469404D01*
X150121904Y-55469404D01*
X150217142Y-55421785D01*
X150264761Y-55374166D01*
X150312380Y-55278928D01*
X150312380Y-55088452D01*
X150264761Y-54993214D01*
X150217142Y-54945595D01*
X150121904Y-54897976D01*
X149931428Y-54897976D01*
X149836190Y-54945595D01*
X149788571Y-54993214D01*
X149740952Y-55088452D01*
X157646666Y-57278928D02*
X157646666Y-56802738D01*
X157932380Y-57374166D02*
X156932380Y-57040833D01*
X157932380Y-56707500D01*
X157932380Y-55850357D02*
X157932380Y-56421785D01*
X157932380Y-56136071D02*
X156932380Y-56136071D01*
X157075238Y-56231309D01*
X157170476Y-56326547D01*
X157218095Y-56421785D01*
X157027619Y-55469404D02*
X156980000Y-55421785D01*
X156932380Y-55326547D01*
X156932380Y-55088452D01*
X156980000Y-54993214D01*
X157027619Y-54945595D01*
X157122857Y-54897976D01*
X157218095Y-54897976D01*
X157360952Y-54945595D01*
X157932380Y-55517023D01*
X157932380Y-54897976D01*
X131532380Y-57183690D02*
X131532380Y-56993214D01*
X131580000Y-56897976D01*
X131675238Y-56802738D01*
X131865714Y-56755119D01*
X132199047Y-56755119D01*
X132389523Y-56802738D01*
X132484761Y-56897976D01*
X132532380Y-56993214D01*
X132532380Y-57183690D01*
X132484761Y-57278928D01*
X132389523Y-57374166D01*
X132199047Y-57421785D01*
X131865714Y-57421785D01*
X131675238Y-57374166D01*
X131580000Y-57278928D01*
X131532380Y-57183690D01*
X132008571Y-56326547D02*
X132008571Y-55993214D01*
X132532380Y-55850357D02*
X132532380Y-56326547D01*
X131532380Y-56326547D01*
X131532380Y-55850357D01*
X132532380Y-54897976D02*
X132532380Y-55469404D01*
X132532380Y-55183690D02*
X131532380Y-55183690D01*
X131675238Y-55278928D01*
X131770476Y-55374166D01*
X131818095Y-55469404D01*
X142406666Y-56326547D02*
X142406666Y-55850357D01*
X142692380Y-56421785D02*
X141692380Y-56088452D01*
X142692380Y-55755119D01*
X142025714Y-54993214D02*
X142692380Y-54993214D01*
X141644761Y-55231309D02*
X142359047Y-55469404D01*
X142359047Y-54850357D01*
X170632380Y-69514404D02*
X169632380Y-69514404D01*
X169632380Y-69276309D01*
X169680000Y-69133452D01*
X169775238Y-69038214D01*
X169870476Y-68990595D01*
X170060952Y-68942976D01*
X170203809Y-68942976D01*
X170394285Y-68990595D01*
X170489523Y-69038214D01*
X170584761Y-69133452D01*
X170632380Y-69276309D01*
X170632380Y-69514404D01*
X169632380Y-68609642D02*
X169632380Y-67990595D01*
X170013333Y-68323928D01*
X170013333Y-68181071D01*
X170060952Y-68085833D01*
X170108571Y-68038214D01*
X170203809Y-67990595D01*
X170441904Y-67990595D01*
X170537142Y-68038214D01*
X170584761Y-68085833D01*
X170632380Y-68181071D01*
X170632380Y-68466785D01*
X170584761Y-68562023D01*
X170537142Y-68609642D01*
X169632380Y-67657261D02*
X169632380Y-67038214D01*
X170013333Y-67371547D01*
X170013333Y-67228690D01*
X170060952Y-67133452D01*
X170108571Y-67085833D01*
X170203809Y-67038214D01*
X170441904Y-67038214D01*
X170537142Y-67085833D01*
X170584761Y-67133452D01*
X170632380Y-67228690D01*
X170632380Y-67514404D01*
X170584761Y-67609642D01*
X170537142Y-67657261D01*
X140057142Y-68942976D02*
X140104761Y-68990595D01*
X140152380Y-69133452D01*
X140152380Y-69228690D01*
X140104761Y-69371547D01*
X140009523Y-69466785D01*
X139914285Y-69514404D01*
X139723809Y-69562023D01*
X139580952Y-69562023D01*
X139390476Y-69514404D01*
X139295238Y-69466785D01*
X139200000Y-69371547D01*
X139152380Y-69228690D01*
X139152380Y-69133452D01*
X139200000Y-68990595D01*
X139247619Y-68942976D01*
X139247619Y-68562023D02*
X139200000Y-68514404D01*
X139152380Y-68419166D01*
X139152380Y-68181071D01*
X139200000Y-68085833D01*
X139247619Y-68038214D01*
X139342857Y-67990595D01*
X139438095Y-67990595D01*
X139580952Y-68038214D01*
X140152380Y-68609642D01*
X140152380Y-67990595D01*
X139152380Y-67657261D02*
X139152380Y-66990595D01*
X140152380Y-67419166D01*
X110950952Y-61682380D02*
X110950952Y-62396666D01*
X110903333Y-62539523D01*
X110808095Y-62634761D01*
X110665238Y-62682380D01*
X110570000Y-62682380D01*
X111903333Y-62682380D02*
X111427142Y-62682380D01*
X111427142Y-61682380D01*
X112808095Y-62587142D02*
X112760476Y-62634761D01*
X112617619Y-62682380D01*
X112522380Y-62682380D01*
X112379523Y-62634761D01*
X112284285Y-62539523D01*
X112236666Y-62444285D01*
X112189047Y-62253809D01*
X112189047Y-62110952D01*
X112236666Y-61920476D01*
X112284285Y-61825238D01*
X112379523Y-61730000D01*
X112522380Y-61682380D01*
X112617619Y-61682380D01*
X112760476Y-61730000D01*
X112808095Y-61777619D01*
X113522380Y-61682380D02*
X113522380Y-62396666D01*
X113474761Y-62539523D01*
X113379523Y-62634761D01*
X113236666Y-62682380D01*
X113141428Y-62682380D01*
X114474761Y-62682380D02*
X113998571Y-62682380D01*
X113998571Y-61682380D01*
X115379523Y-62587142D02*
X115331904Y-62634761D01*
X115189047Y-62682380D01*
X115093809Y-62682380D01*
X114950952Y-62634761D01*
X114855714Y-62539523D01*
X114808095Y-62444285D01*
X114760476Y-62253809D01*
X114760476Y-62110952D01*
X114808095Y-61920476D01*
X114855714Y-61825238D01*
X114950952Y-61730000D01*
X115093809Y-61682380D01*
X115189047Y-61682380D01*
X115331904Y-61730000D01*
X115379523Y-61777619D01*
X116093809Y-61682380D02*
X116093809Y-62396666D01*
X116046190Y-62539523D01*
X115950952Y-62634761D01*
X115808095Y-62682380D01*
X115712857Y-62682380D01*
X117046190Y-62682380D02*
X116570000Y-62682380D01*
X116570000Y-61682380D01*
X117950952Y-62587142D02*
X117903333Y-62634761D01*
X117760476Y-62682380D01*
X117665238Y-62682380D01*
X117522380Y-62634761D01*
X117427142Y-62539523D01*
X117379523Y-62444285D01*
X117331904Y-62253809D01*
X117331904Y-62110952D01*
X117379523Y-61920476D01*
X117427142Y-61825238D01*
X117522380Y-61730000D01*
X117665238Y-61682380D01*
X117760476Y-61682380D01*
X117903333Y-61730000D01*
X117950952Y-61777619D01*
X118665238Y-61682380D02*
X118665238Y-62396666D01*
X118617619Y-62539523D01*
X118522380Y-62634761D01*
X118379523Y-62682380D01*
X118284285Y-62682380D01*
X119617619Y-62682380D02*
X119141428Y-62682380D01*
X119141428Y-61682380D01*
X120522380Y-62587142D02*
X120474761Y-62634761D01*
X120331904Y-62682380D01*
X120236666Y-62682380D01*
X120093809Y-62634761D01*
X119998571Y-62539523D01*
X119950952Y-62444285D01*
X119903333Y-62253809D01*
X119903333Y-62110952D01*
X119950952Y-61920476D01*
X119998571Y-61825238D01*
X120093809Y-61730000D01*
X120236666Y-61682380D01*
X120331904Y-61682380D01*
X120474761Y-61730000D01*
X120522380Y-61777619D01*
X134977142Y-68942976D02*
X135024761Y-68990595D01*
X135072380Y-69133452D01*
X135072380Y-69228690D01*
X135024761Y-69371547D01*
X134929523Y-69466785D01*
X134834285Y-69514404D01*
X134643809Y-69562023D01*
X134500952Y-69562023D01*
X134310476Y-69514404D01*
X134215238Y-69466785D01*
X134120000Y-69371547D01*
X134072380Y-69228690D01*
X134072380Y-69133452D01*
X134120000Y-68990595D01*
X134167619Y-68942976D01*
X134167619Y-68562023D02*
X134120000Y-68514404D01*
X134072380Y-68419166D01*
X134072380Y-68181071D01*
X134120000Y-68085833D01*
X134167619Y-68038214D01*
X134262857Y-67990595D01*
X134358095Y-67990595D01*
X134500952Y-68038214D01*
X135072380Y-68609642D01*
X135072380Y-67990595D01*
X134072380Y-67085833D02*
X134072380Y-67562023D01*
X134548571Y-67609642D01*
X134500952Y-67562023D01*
X134453333Y-67466785D01*
X134453333Y-67228690D01*
X134500952Y-67133452D01*
X134548571Y-67085833D01*
X134643809Y-67038214D01*
X134881904Y-67038214D01*
X134977142Y-67085833D01*
X135024761Y-67133452D01*
X135072380Y-67228690D01*
X135072380Y-67466785D01*
X135024761Y-67562023D01*
X134977142Y-67609642D01*
X134024761Y-65895357D02*
X135310476Y-66752500D01*
X135072380Y-65562023D02*
X134072380Y-65562023D01*
X134072380Y-65181071D01*
X134120000Y-65085833D01*
X134167619Y-65038214D01*
X134262857Y-64990595D01*
X134405714Y-64990595D01*
X134500952Y-65038214D01*
X134548571Y-65085833D01*
X134596190Y-65181071D01*
X134596190Y-65562023D01*
X135072380Y-64562023D02*
X134072380Y-64562023D01*
X134072380Y-64323928D01*
X134120000Y-64181071D01*
X134215238Y-64085833D01*
X134310476Y-64038214D01*
X134500952Y-63990595D01*
X134643809Y-63990595D01*
X134834285Y-64038214D01*
X134929523Y-64085833D01*
X135024761Y-64181071D01*
X135072380Y-64323928D01*
X135072380Y-64562023D01*
X134167619Y-63609642D02*
X134120000Y-63562023D01*
X134072380Y-63466785D01*
X134072380Y-63228690D01*
X134120000Y-63133452D01*
X134167619Y-63085833D01*
X134262857Y-63038214D01*
X134358095Y-63038214D01*
X134500952Y-63085833D01*
X135072380Y-63657261D01*
X135072380Y-63038214D01*
X139200000Y-57755119D02*
X139152380Y-57850357D01*
X139152380Y-57993214D01*
X139200000Y-58136071D01*
X139295238Y-58231309D01*
X139390476Y-58278928D01*
X139580952Y-58326547D01*
X139723809Y-58326547D01*
X139914285Y-58278928D01*
X140009523Y-58231309D01*
X140104761Y-58136071D01*
X140152380Y-57993214D01*
X140152380Y-57897976D01*
X140104761Y-57755119D01*
X140057142Y-57707500D01*
X139723809Y-57707500D01*
X139723809Y-57897976D01*
X140057142Y-56707500D02*
X140104761Y-56755119D01*
X140152380Y-56897976D01*
X140152380Y-56993214D01*
X140104761Y-57136071D01*
X140009523Y-57231309D01*
X139914285Y-57278928D01*
X139723809Y-57326547D01*
X139580952Y-57326547D01*
X139390476Y-57278928D01*
X139295238Y-57231309D01*
X139200000Y-57136071D01*
X139152380Y-56993214D01*
X139152380Y-56897976D01*
X139200000Y-56755119D01*
X139247619Y-56707500D01*
X140152380Y-55802738D02*
X140152380Y-56278928D01*
X139152380Y-56278928D01*
X140152380Y-54897976D02*
X139676190Y-55231309D01*
X140152380Y-55469404D02*
X139152380Y-55469404D01*
X139152380Y-55088452D01*
X139200000Y-54993214D01*
X139247619Y-54945595D01*
X139342857Y-54897976D01*
X139485714Y-54897976D01*
X139580952Y-54945595D01*
X139628571Y-54993214D01*
X139676190Y-55088452D01*
X139676190Y-55469404D01*
X128992380Y-57469404D02*
X129992380Y-57136071D01*
X128992380Y-56802738D01*
X129897142Y-55897976D02*
X129944761Y-55945595D01*
X129992380Y-56088452D01*
X129992380Y-56183690D01*
X129944761Y-56326547D01*
X129849523Y-56421785D01*
X129754285Y-56469404D01*
X129563809Y-56517023D01*
X129420952Y-56517023D01*
X129230476Y-56469404D01*
X129135238Y-56421785D01*
X129040000Y-56326547D01*
X128992380Y-56183690D01*
X128992380Y-56088452D01*
X129040000Y-55945595D01*
X129087619Y-55897976D01*
X129897142Y-54897976D02*
X129944761Y-54945595D01*
X129992380Y-55088452D01*
X129992380Y-55183690D01*
X129944761Y-55326547D01*
X129849523Y-55421785D01*
X129754285Y-55469404D01*
X129563809Y-55517023D01*
X129420952Y-55517023D01*
X129230476Y-55469404D01*
X129135238Y-55421785D01*
X129040000Y-55326547D01*
X128992380Y-55183690D01*
X128992380Y-55088452D01*
X129040000Y-54945595D01*
X129087619Y-54897976D01*
X165028571Y-69181071D02*
X165076190Y-69038214D01*
X165123809Y-68990595D01*
X165219047Y-68942976D01*
X165361904Y-68942976D01*
X165457142Y-68990595D01*
X165504761Y-69038214D01*
X165552380Y-69133452D01*
X165552380Y-69514404D01*
X164552380Y-69514404D01*
X164552380Y-69181071D01*
X164600000Y-69085833D01*
X164647619Y-69038214D01*
X164742857Y-68990595D01*
X164838095Y-68990595D01*
X164933333Y-69038214D01*
X164980952Y-69085833D01*
X165028571Y-69181071D01*
X165028571Y-69514404D01*
X165552380Y-67990595D02*
X165552380Y-68562023D01*
X165552380Y-68276309D02*
X164552380Y-68276309D01*
X164695238Y-68371547D01*
X164790476Y-68466785D01*
X164838095Y-68562023D01*
X164885714Y-67133452D02*
X165552380Y-67133452D01*
X164504761Y-67371547D02*
X165219047Y-67609642D01*
X165219047Y-66990595D01*
X147677142Y-68942976D02*
X147724761Y-68990595D01*
X147772380Y-69133452D01*
X147772380Y-69228690D01*
X147724761Y-69371547D01*
X147629523Y-69466785D01*
X147534285Y-69514404D01*
X147343809Y-69562023D01*
X147200952Y-69562023D01*
X147010476Y-69514404D01*
X146915238Y-69466785D01*
X146820000Y-69371547D01*
X146772380Y-69228690D01*
X146772380Y-69133452D01*
X146820000Y-68990595D01*
X146867619Y-68942976D01*
X146772380Y-68609642D02*
X146772380Y-67990595D01*
X147153333Y-68323928D01*
X147153333Y-68181071D01*
X147200952Y-68085833D01*
X147248571Y-68038214D01*
X147343809Y-67990595D01*
X147581904Y-67990595D01*
X147677142Y-68038214D01*
X147724761Y-68085833D01*
X147772380Y-68181071D01*
X147772380Y-68466785D01*
X147724761Y-68562023D01*
X147677142Y-68609642D01*
X147772380Y-67038214D02*
X147772380Y-67609642D01*
X147772380Y-67323928D02*
X146772380Y-67323928D01*
X146915238Y-67419166D01*
X147010476Y-67514404D01*
X147058095Y-67609642D01*
X132437142Y-68942976D02*
X132484761Y-68990595D01*
X132532380Y-69133452D01*
X132532380Y-69228690D01*
X132484761Y-69371547D01*
X132389523Y-69466785D01*
X132294285Y-69514404D01*
X132103809Y-69562023D01*
X131960952Y-69562023D01*
X131770476Y-69514404D01*
X131675238Y-69466785D01*
X131580000Y-69371547D01*
X131532380Y-69228690D01*
X131532380Y-69133452D01*
X131580000Y-68990595D01*
X131627619Y-68942976D01*
X131627619Y-68562023D02*
X131580000Y-68514404D01*
X131532380Y-68419166D01*
X131532380Y-68181071D01*
X131580000Y-68085833D01*
X131627619Y-68038214D01*
X131722857Y-67990595D01*
X131818095Y-67990595D01*
X131960952Y-68038214D01*
X132532380Y-68609642D01*
X132532380Y-67990595D01*
X131865714Y-67133452D02*
X132532380Y-67133452D01*
X131484761Y-67371547D02*
X132199047Y-67609642D01*
X132199047Y-66990595D01*
X172220000Y-56993214D02*
X172172380Y-57088452D01*
X172172380Y-57231309D01*
X172220000Y-57374166D01*
X172315238Y-57469404D01*
X172410476Y-57517023D01*
X172600952Y-57564642D01*
X172743809Y-57564642D01*
X172934285Y-57517023D01*
X173029523Y-57469404D01*
X173124761Y-57374166D01*
X173172380Y-57231309D01*
X173172380Y-57136071D01*
X173124761Y-56993214D01*
X173077142Y-56945595D01*
X172743809Y-56945595D01*
X172743809Y-57136071D01*
X173172380Y-56517023D02*
X172172380Y-56517023D01*
X173172380Y-55945595D01*
X172172380Y-55945595D01*
X173172380Y-55469404D02*
X172172380Y-55469404D01*
X172172380Y-55231309D01*
X172220000Y-55088452D01*
X172315238Y-54993214D01*
X172410476Y-54945595D01*
X172600952Y-54897976D01*
X172743809Y-54897976D01*
X172934285Y-54945595D01*
X173029523Y-54993214D01*
X173124761Y-55088452D01*
X173172380Y-55231309D01*
X173172380Y-55469404D01*
X136612380Y-62993214D02*
X136612380Y-62802738D01*
X136660000Y-62707500D01*
X136755238Y-62612261D01*
X136945714Y-62564642D01*
X137279047Y-62564642D01*
X137469523Y-62612261D01*
X137564761Y-62707500D01*
X137612380Y-62802738D01*
X137612380Y-62993214D01*
X137564761Y-63088452D01*
X137469523Y-63183690D01*
X137279047Y-63231309D01*
X136945714Y-63231309D01*
X136755238Y-63183690D01*
X136660000Y-63088452D01*
X136612380Y-62993214D01*
X137088571Y-62136071D02*
X137088571Y-61802738D01*
X137612380Y-61659880D02*
X137612380Y-62136071D01*
X136612380Y-62136071D01*
X136612380Y-61659880D01*
X136707619Y-61278928D02*
X136660000Y-61231309D01*
X136612380Y-61136071D01*
X136612380Y-60897976D01*
X136660000Y-60802738D01*
X136707619Y-60755119D01*
X136802857Y-60707500D01*
X136898095Y-60707500D01*
X137040952Y-60755119D01*
X137612380Y-61326547D01*
X137612380Y-60707500D01*
X136564761Y-59564642D02*
X137850476Y-60421785D01*
X136660000Y-58707500D02*
X136612380Y-58802738D01*
X136612380Y-58945595D01*
X136660000Y-59088452D01*
X136755238Y-59183690D01*
X136850476Y-59231309D01*
X137040952Y-59278928D01*
X137183809Y-59278928D01*
X137374285Y-59231309D01*
X137469523Y-59183690D01*
X137564761Y-59088452D01*
X137612380Y-58945595D01*
X137612380Y-58850357D01*
X137564761Y-58707500D01*
X137517142Y-58659880D01*
X137183809Y-58659880D01*
X137183809Y-58850357D01*
X137517142Y-57659880D02*
X137564761Y-57707500D01*
X137612380Y-57850357D01*
X137612380Y-57945595D01*
X137564761Y-58088452D01*
X137469523Y-58183690D01*
X137374285Y-58231309D01*
X137183809Y-58278928D01*
X137040952Y-58278928D01*
X136850476Y-58231309D01*
X136755238Y-58183690D01*
X136660000Y-58088452D01*
X136612380Y-57945595D01*
X136612380Y-57850357D01*
X136660000Y-57707500D01*
X136707619Y-57659880D01*
X137612380Y-56755119D02*
X137612380Y-57231309D01*
X136612380Y-57231309D01*
X137612380Y-56421785D02*
X136612380Y-56421785D01*
X137612380Y-55850357D02*
X137040952Y-56278928D01*
X136612380Y-55850357D02*
X137183809Y-56421785D01*
X136707619Y-55469404D02*
X136660000Y-55421785D01*
X136612380Y-55326547D01*
X136612380Y-55088452D01*
X136660000Y-54993214D01*
X136707619Y-54945595D01*
X136802857Y-54897976D01*
X136898095Y-54897976D01*
X137040952Y-54945595D01*
X137612380Y-55517023D01*
X137612380Y-54897976D01*
X155392380Y-61231309D02*
X154392380Y-61231309D01*
X154392380Y-60850357D01*
X154440000Y-60755119D01*
X154487619Y-60707500D01*
X154582857Y-60659880D01*
X154725714Y-60659880D01*
X154820952Y-60707500D01*
X154868571Y-60755119D01*
X154916190Y-60850357D01*
X154916190Y-61231309D01*
X155392380Y-60231309D02*
X154392380Y-60231309D01*
X154392380Y-59993214D01*
X154440000Y-59850357D01*
X154535238Y-59755119D01*
X154630476Y-59707500D01*
X154820952Y-59659880D01*
X154963809Y-59659880D01*
X155154285Y-59707500D01*
X155249523Y-59755119D01*
X155344761Y-59850357D01*
X155392380Y-59993214D01*
X155392380Y-60231309D01*
X155392380Y-58707500D02*
X155392380Y-59278928D01*
X155392380Y-58993214D02*
X154392380Y-58993214D01*
X154535238Y-59088452D01*
X154630476Y-59183690D01*
X154678095Y-59278928D01*
X154344761Y-57564642D02*
X155630476Y-58421785D01*
X155106666Y-57278928D02*
X155106666Y-56802738D01*
X155392380Y-57374166D02*
X154392380Y-57040833D01*
X155392380Y-56707500D01*
X155392380Y-55850357D02*
X155392380Y-56421785D01*
X155392380Y-56136071D02*
X154392380Y-56136071D01*
X154535238Y-56231309D01*
X154630476Y-56326547D01*
X154678095Y-56421785D01*
X155392380Y-54897976D02*
X155392380Y-55469404D01*
X155392380Y-55183690D02*
X154392380Y-55183690D01*
X154535238Y-55278928D01*
X154630476Y-55374166D01*
X154678095Y-55469404D01*
X168092380Y-57374166D02*
X167092380Y-57374166D01*
X167092380Y-57136071D01*
X167140000Y-56993214D01*
X167235238Y-56897976D01*
X167330476Y-56850357D01*
X167520952Y-56802738D01*
X167663809Y-56802738D01*
X167854285Y-56850357D01*
X167949523Y-56897976D01*
X168044761Y-56993214D01*
X168092380Y-57136071D01*
X168092380Y-57374166D01*
X167092380Y-56469404D02*
X167092380Y-55850357D01*
X167473333Y-56183690D01*
X167473333Y-56040833D01*
X167520952Y-55945595D01*
X167568571Y-55897976D01*
X167663809Y-55850357D01*
X167901904Y-55850357D01*
X167997142Y-55897976D01*
X168044761Y-55945595D01*
X168092380Y-56040833D01*
X168092380Y-56326547D01*
X168044761Y-56421785D01*
X167997142Y-56469404D01*
X167092380Y-55517023D02*
X167092380Y-54850357D01*
X168092380Y-55278928D01*
X142597142Y-68942976D02*
X142644761Y-68990595D01*
X142692380Y-69133452D01*
X142692380Y-69228690D01*
X142644761Y-69371547D01*
X142549523Y-69466785D01*
X142454285Y-69514404D01*
X142263809Y-69562023D01*
X142120952Y-69562023D01*
X141930476Y-69514404D01*
X141835238Y-69466785D01*
X141740000Y-69371547D01*
X141692380Y-69228690D01*
X141692380Y-69133452D01*
X141740000Y-68990595D01*
X141787619Y-68942976D01*
X141787619Y-68562023D02*
X141740000Y-68514404D01*
X141692380Y-68419166D01*
X141692380Y-68181071D01*
X141740000Y-68085833D01*
X141787619Y-68038214D01*
X141882857Y-67990595D01*
X141978095Y-67990595D01*
X142120952Y-68038214D01*
X142692380Y-68609642D01*
X142692380Y-67990595D01*
X142120952Y-67419166D02*
X142073333Y-67514404D01*
X142025714Y-67562023D01*
X141930476Y-67609642D01*
X141882857Y-67609642D01*
X141787619Y-67562023D01*
X141740000Y-67514404D01*
X141692380Y-67419166D01*
X141692380Y-67228690D01*
X141740000Y-67133452D01*
X141787619Y-67085833D01*
X141882857Y-67038214D01*
X141930476Y-67038214D01*
X142025714Y-67085833D01*
X142073333Y-67133452D01*
X142120952Y-67228690D01*
X142120952Y-67419166D01*
X142168571Y-67514404D01*
X142216190Y-67562023D01*
X142311428Y-67609642D01*
X142501904Y-67609642D01*
X142597142Y-67562023D01*
X142644761Y-67514404D01*
X142692380Y-67419166D01*
X142692380Y-67228690D01*
X142644761Y-67133452D01*
X142597142Y-67085833D01*
X142501904Y-67038214D01*
X142311428Y-67038214D01*
X142216190Y-67085833D01*
X142168571Y-67133452D01*
X142120952Y-67228690D01*
X152328571Y-69181071D02*
X152376190Y-69038214D01*
X152423809Y-68990595D01*
X152519047Y-68942976D01*
X152661904Y-68942976D01*
X152757142Y-68990595D01*
X152804761Y-69038214D01*
X152852380Y-69133452D01*
X152852380Y-69514404D01*
X151852380Y-69514404D01*
X151852380Y-69181071D01*
X151900000Y-69085833D01*
X151947619Y-69038214D01*
X152042857Y-68990595D01*
X152138095Y-68990595D01*
X152233333Y-69038214D01*
X152280952Y-69085833D01*
X152328571Y-69181071D01*
X152328571Y-69514404D01*
X151947619Y-68562023D02*
X151900000Y-68514404D01*
X151852380Y-68419166D01*
X151852380Y-68181071D01*
X151900000Y-68085833D01*
X151947619Y-68038214D01*
X152042857Y-67990595D01*
X152138095Y-67990595D01*
X152280952Y-68038214D01*
X152852380Y-68609642D01*
X152852380Y-67990595D01*
X151852380Y-67371547D02*
X151852380Y-67276309D01*
X151900000Y-67181071D01*
X151947619Y-67133452D01*
X152042857Y-67085833D01*
X152233333Y-67038214D01*
X152471428Y-67038214D01*
X152661904Y-67085833D01*
X152757142Y-67133452D01*
X152804761Y-67181071D01*
X152852380Y-67276309D01*
X152852380Y-67371547D01*
X152804761Y-67466785D01*
X152757142Y-67514404D01*
X152661904Y-67562023D01*
X152471428Y-67609642D01*
X152233333Y-67609642D01*
X152042857Y-67562023D01*
X151947619Y-67514404D01*
X151900000Y-67466785D01*
X151852380Y-67371547D01*
X162488571Y-69181071D02*
X162536190Y-69038214D01*
X162583809Y-68990595D01*
X162679047Y-68942976D01*
X162821904Y-68942976D01*
X162917142Y-68990595D01*
X162964761Y-69038214D01*
X163012380Y-69133452D01*
X163012380Y-69514404D01*
X162012380Y-69514404D01*
X162012380Y-69181071D01*
X162060000Y-69085833D01*
X162107619Y-69038214D01*
X162202857Y-68990595D01*
X162298095Y-68990595D01*
X162393333Y-69038214D01*
X162440952Y-69085833D01*
X162488571Y-69181071D01*
X162488571Y-69514404D01*
X163012380Y-67990595D02*
X163012380Y-68562023D01*
X163012380Y-68276309D02*
X162012380Y-68276309D01*
X162155238Y-68371547D01*
X162250476Y-68466785D01*
X162298095Y-68562023D01*
X162012380Y-67133452D02*
X162012380Y-67323928D01*
X162060000Y-67419166D01*
X162107619Y-67466785D01*
X162250476Y-67562023D01*
X162440952Y-67609642D01*
X162821904Y-67609642D01*
X162917142Y-67562023D01*
X162964761Y-67514404D01*
X163012380Y-67419166D01*
X163012380Y-67228690D01*
X162964761Y-67133452D01*
X162917142Y-67085833D01*
X162821904Y-67038214D01*
X162583809Y-67038214D01*
X162488571Y-67085833D01*
X162440952Y-67133452D01*
X162393333Y-67228690D01*
X162393333Y-67419166D01*
X162440952Y-67514404D01*
X162488571Y-67562023D01*
X162583809Y-67609642D01*
X165552380Y-57374166D02*
X164552380Y-57374166D01*
X164552380Y-57136071D01*
X164600000Y-56993214D01*
X164695238Y-56897976D01*
X164790476Y-56850357D01*
X164980952Y-56802738D01*
X165123809Y-56802738D01*
X165314285Y-56850357D01*
X165409523Y-56897976D01*
X165504761Y-56993214D01*
X165552380Y-57136071D01*
X165552380Y-57374166D01*
X164552380Y-56469404D02*
X164552380Y-55850357D01*
X164933333Y-56183690D01*
X164933333Y-56040833D01*
X164980952Y-55945595D01*
X165028571Y-55897976D01*
X165123809Y-55850357D01*
X165361904Y-55850357D01*
X165457142Y-55897976D01*
X165504761Y-55945595D01*
X165552380Y-56040833D01*
X165552380Y-56326547D01*
X165504761Y-56421785D01*
X165457142Y-56469404D01*
X165552380Y-55374166D02*
X165552380Y-55183690D01*
X165504761Y-55088452D01*
X165457142Y-55040833D01*
X165314285Y-54945595D01*
X165123809Y-54897976D01*
X164742857Y-54897976D01*
X164647619Y-54945595D01*
X164600000Y-54993214D01*
X164552380Y-55088452D01*
X164552380Y-55278928D01*
X164600000Y-55374166D01*
X164647619Y-55421785D01*
X164742857Y-55469404D01*
X164980952Y-55469404D01*
X165076190Y-55421785D01*
X165123809Y-55374166D01*
X165171428Y-55278928D01*
X165171428Y-55088452D01*
X165123809Y-54993214D01*
X165076190Y-54945595D01*
X164980952Y-54897976D01*
X170632380Y-57374166D02*
X169632380Y-57374166D01*
X169632380Y-57136071D01*
X169680000Y-56993214D01*
X169775238Y-56897976D01*
X169870476Y-56850357D01*
X170060952Y-56802738D01*
X170203809Y-56802738D01*
X170394285Y-56850357D01*
X170489523Y-56897976D01*
X170584761Y-56993214D01*
X170632380Y-57136071D01*
X170632380Y-57374166D01*
X169632380Y-56469404D02*
X169632380Y-55850357D01*
X170013333Y-56183690D01*
X170013333Y-56040833D01*
X170060952Y-55945595D01*
X170108571Y-55897976D01*
X170203809Y-55850357D01*
X170441904Y-55850357D01*
X170537142Y-55897976D01*
X170584761Y-55945595D01*
X170632380Y-56040833D01*
X170632380Y-56326547D01*
X170584761Y-56421785D01*
X170537142Y-56469404D01*
X169632380Y-54993214D02*
X169632380Y-55183690D01*
X169680000Y-55278928D01*
X169727619Y-55326547D01*
X169870476Y-55421785D01*
X170060952Y-55469404D01*
X170441904Y-55469404D01*
X170537142Y-55421785D01*
X170584761Y-55374166D01*
X170632380Y-55278928D01*
X170632380Y-55088452D01*
X170584761Y-54993214D01*
X170537142Y-54945595D01*
X170441904Y-54897976D01*
X170203809Y-54897976D01*
X170108571Y-54945595D01*
X170060952Y-54993214D01*
X170013333Y-55088452D01*
X170013333Y-55278928D01*
X170060952Y-55374166D01*
X170108571Y-55421785D01*
X170203809Y-55469404D01*
X149788571Y-69181071D02*
X149836190Y-69038214D01*
X149883809Y-68990595D01*
X149979047Y-68942976D01*
X150121904Y-68942976D01*
X150217142Y-68990595D01*
X150264761Y-69038214D01*
X150312380Y-69133452D01*
X150312380Y-69514404D01*
X149312380Y-69514404D01*
X149312380Y-69181071D01*
X149360000Y-69085833D01*
X149407619Y-69038214D01*
X149502857Y-68990595D01*
X149598095Y-68990595D01*
X149693333Y-69038214D01*
X149740952Y-69085833D01*
X149788571Y-69181071D01*
X149788571Y-69514404D01*
X149407619Y-68562023D02*
X149360000Y-68514404D01*
X149312380Y-68419166D01*
X149312380Y-68181071D01*
X149360000Y-68085833D01*
X149407619Y-68038214D01*
X149502857Y-67990595D01*
X149598095Y-67990595D01*
X149740952Y-68038214D01*
X150312380Y-68609642D01*
X150312380Y-67990595D01*
X150312380Y-67038214D02*
X150312380Y-67609642D01*
X150312380Y-67323928D02*
X149312380Y-67323928D01*
X149455238Y-67419166D01*
X149550476Y-67514404D01*
X149598095Y-67609642D01*
X168092380Y-69514404D02*
X167092380Y-69514404D01*
X167092380Y-69276309D01*
X167140000Y-69133452D01*
X167235238Y-69038214D01*
X167330476Y-68990595D01*
X167520952Y-68942976D01*
X167663809Y-68942976D01*
X167854285Y-68990595D01*
X167949523Y-69038214D01*
X168044761Y-69133452D01*
X168092380Y-69276309D01*
X168092380Y-69514404D01*
X167092380Y-68609642D02*
X167092380Y-67990595D01*
X167473333Y-68323928D01*
X167473333Y-68181071D01*
X167520952Y-68085833D01*
X167568571Y-68038214D01*
X167663809Y-67990595D01*
X167901904Y-67990595D01*
X167997142Y-68038214D01*
X168044761Y-68085833D01*
X168092380Y-68181071D01*
X168092380Y-68466785D01*
X168044761Y-68562023D01*
X167997142Y-68609642D01*
X167425714Y-67133452D02*
X168092380Y-67133452D01*
X167044761Y-67371547D02*
X167759047Y-67609642D01*
X167759047Y-66990595D01*
X145137142Y-68942976D02*
X145184761Y-68990595D01*
X145232380Y-69133452D01*
X145232380Y-69228690D01*
X145184761Y-69371547D01*
X145089523Y-69466785D01*
X144994285Y-69514404D01*
X144803809Y-69562023D01*
X144660952Y-69562023D01*
X144470476Y-69514404D01*
X144375238Y-69466785D01*
X144280000Y-69371547D01*
X144232380Y-69228690D01*
X144232380Y-69133452D01*
X144280000Y-68990595D01*
X144327619Y-68942976D01*
X144327619Y-68562023D02*
X144280000Y-68514404D01*
X144232380Y-68419166D01*
X144232380Y-68181071D01*
X144280000Y-68085833D01*
X144327619Y-68038214D01*
X144422857Y-67990595D01*
X144518095Y-67990595D01*
X144660952Y-68038214D01*
X145232380Y-68609642D01*
X145232380Y-67990595D01*
X145232380Y-67514404D02*
X145232380Y-67323928D01*
X145184761Y-67228690D01*
X145137142Y-67181071D01*
X144994285Y-67085833D01*
X144803809Y-67038214D01*
X144422857Y-67038214D01*
X144327619Y-67085833D01*
X144280000Y-67133452D01*
X144232380Y-67228690D01*
X144232380Y-67419166D01*
X144280000Y-67514404D01*
X144327619Y-67562023D01*
X144422857Y-67609642D01*
X144660952Y-67609642D01*
X144756190Y-67562023D01*
X144803809Y-67514404D01*
X144851428Y-67419166D01*
X144851428Y-67228690D01*
X144803809Y-67133452D01*
X144756190Y-67085833D01*
X144660952Y-67038214D01*
X137517142Y-68942976D02*
X137564761Y-68990595D01*
X137612380Y-69133452D01*
X137612380Y-69228690D01*
X137564761Y-69371547D01*
X137469523Y-69466785D01*
X137374285Y-69514404D01*
X137183809Y-69562023D01*
X137040952Y-69562023D01*
X136850476Y-69514404D01*
X136755238Y-69466785D01*
X136660000Y-69371547D01*
X136612380Y-69228690D01*
X136612380Y-69133452D01*
X136660000Y-68990595D01*
X136707619Y-68942976D01*
X136707619Y-68562023D02*
X136660000Y-68514404D01*
X136612380Y-68419166D01*
X136612380Y-68181071D01*
X136660000Y-68085833D01*
X136707619Y-68038214D01*
X136802857Y-67990595D01*
X136898095Y-67990595D01*
X137040952Y-68038214D01*
X137612380Y-68609642D01*
X137612380Y-67990595D01*
X136612380Y-67133452D02*
X136612380Y-67323928D01*
X136660000Y-67419166D01*
X136707619Y-67466785D01*
X136850476Y-67562023D01*
X137040952Y-67609642D01*
X137421904Y-67609642D01*
X137517142Y-67562023D01*
X137564761Y-67514404D01*
X137612380Y-67419166D01*
X137612380Y-67228690D01*
X137564761Y-67133452D01*
X137517142Y-67085833D01*
X137421904Y-67038214D01*
X137183809Y-67038214D01*
X137088571Y-67085833D01*
X137040952Y-67133452D01*
X136993333Y-67228690D01*
X136993333Y-67419166D01*
X137040952Y-67514404D01*
X137088571Y-67562023D01*
X137183809Y-67609642D01*
X147486666Y-56326547D02*
X147486666Y-55850357D01*
X147772380Y-56421785D02*
X146772380Y-56088452D01*
X147772380Y-55755119D01*
X146772380Y-54993214D02*
X146772380Y-55183690D01*
X146820000Y-55278928D01*
X146867619Y-55326547D01*
X147010476Y-55421785D01*
X147200952Y-55469404D01*
X147581904Y-55469404D01*
X147677142Y-55421785D01*
X147724761Y-55374166D01*
X147772380Y-55278928D01*
X147772380Y-55088452D01*
X147724761Y-54993214D01*
X147677142Y-54945595D01*
X147581904Y-54897976D01*
X147343809Y-54897976D01*
X147248571Y-54945595D01*
X147200952Y-54993214D01*
X147153333Y-55088452D01*
X147153333Y-55278928D01*
X147200952Y-55374166D01*
X147248571Y-55421785D01*
X147343809Y-55469404D01*
X129040000Y-68990595D02*
X128992380Y-69085833D01*
X128992380Y-69228690D01*
X129040000Y-69371547D01*
X129135238Y-69466785D01*
X129230476Y-69514404D01*
X129420952Y-69562023D01*
X129563809Y-69562023D01*
X129754285Y-69514404D01*
X129849523Y-69466785D01*
X129944761Y-69371547D01*
X129992380Y-69228690D01*
X129992380Y-69133452D01*
X129944761Y-68990595D01*
X129897142Y-68942976D01*
X129563809Y-68942976D01*
X129563809Y-69133452D01*
X129992380Y-68514404D02*
X128992380Y-68514404D01*
X129992380Y-67942976D01*
X128992380Y-67942976D01*
X129992380Y-67466785D02*
X128992380Y-67466785D01*
X128992380Y-67228690D01*
X129040000Y-67085833D01*
X129135238Y-66990595D01*
X129230476Y-66942976D01*
X129420952Y-66895357D01*
X129563809Y-66895357D01*
X129754285Y-66942976D01*
X129849523Y-66990595D01*
X129944761Y-67085833D01*
X129992380Y-67228690D01*
X129992380Y-67466785D01*
X172220000Y-68990595D02*
X172172380Y-69085833D01*
X172172380Y-69228690D01*
X172220000Y-69371547D01*
X172315238Y-69466785D01*
X172410476Y-69514404D01*
X172600952Y-69562023D01*
X172743809Y-69562023D01*
X172934285Y-69514404D01*
X173029523Y-69466785D01*
X173124761Y-69371547D01*
X173172380Y-69228690D01*
X173172380Y-69133452D01*
X173124761Y-68990595D01*
X173077142Y-68942976D01*
X172743809Y-68942976D01*
X172743809Y-69133452D01*
X173172380Y-68514404D02*
X172172380Y-68514404D01*
X173172380Y-67942976D01*
X172172380Y-67942976D01*
X173172380Y-67466785D02*
X172172380Y-67466785D01*
X172172380Y-67228690D01*
X172220000Y-67085833D01*
X172315238Y-66990595D01*
X172410476Y-66942976D01*
X172600952Y-66895357D01*
X172743809Y-66895357D01*
X172934285Y-66942976D01*
X173029523Y-66990595D01*
X173124761Y-67085833D01*
X173172380Y-67228690D01*
X173172380Y-67466785D01*
X157408571Y-69181071D02*
X157456190Y-69038214D01*
X157503809Y-68990595D01*
X157599047Y-68942976D01*
X157741904Y-68942976D01*
X157837142Y-68990595D01*
X157884761Y-69038214D01*
X157932380Y-69133452D01*
X157932380Y-69514404D01*
X156932380Y-69514404D01*
X156932380Y-69181071D01*
X156980000Y-69085833D01*
X157027619Y-69038214D01*
X157122857Y-68990595D01*
X157218095Y-68990595D01*
X157313333Y-69038214D01*
X157360952Y-69085833D01*
X157408571Y-69181071D01*
X157408571Y-69514404D01*
X157932380Y-67990595D02*
X157932380Y-68562023D01*
X157932380Y-68276309D02*
X156932380Y-68276309D01*
X157075238Y-68371547D01*
X157170476Y-68466785D01*
X157218095Y-68562023D01*
X157360952Y-67419166D02*
X157313333Y-67514404D01*
X157265714Y-67562023D01*
X157170476Y-67609642D01*
X157122857Y-67609642D01*
X157027619Y-67562023D01*
X156980000Y-67514404D01*
X156932380Y-67419166D01*
X156932380Y-67228690D01*
X156980000Y-67133452D01*
X157027619Y-67085833D01*
X157122857Y-67038214D01*
X157170476Y-67038214D01*
X157265714Y-67085833D01*
X157313333Y-67133452D01*
X157360952Y-67228690D01*
X157360952Y-67419166D01*
X157408571Y-67514404D01*
X157456190Y-67562023D01*
X157551428Y-67609642D01*
X157741904Y-67609642D01*
X157837142Y-67562023D01*
X157884761Y-67514404D01*
X157932380Y-67419166D01*
X157932380Y-67228690D01*
X157884761Y-67133452D01*
X157837142Y-67085833D01*
X157741904Y-67038214D01*
X157551428Y-67038214D01*
X157456190Y-67085833D01*
X157408571Y-67133452D01*
X157360952Y-67228690D01*
X134120000Y-58707500D02*
X134072380Y-58802738D01*
X134072380Y-58945595D01*
X134120000Y-59088452D01*
X134215238Y-59183690D01*
X134310476Y-59231309D01*
X134500952Y-59278928D01*
X134643809Y-59278928D01*
X134834285Y-59231309D01*
X134929523Y-59183690D01*
X135024761Y-59088452D01*
X135072380Y-58945595D01*
X135072380Y-58850357D01*
X135024761Y-58707500D01*
X134977142Y-58659880D01*
X134643809Y-58659880D01*
X134643809Y-58850357D01*
X134977142Y-57659880D02*
X135024761Y-57707500D01*
X135072380Y-57850357D01*
X135072380Y-57945595D01*
X135024761Y-58088452D01*
X134929523Y-58183690D01*
X134834285Y-58231309D01*
X134643809Y-58278928D01*
X134500952Y-58278928D01*
X134310476Y-58231309D01*
X134215238Y-58183690D01*
X134120000Y-58088452D01*
X134072380Y-57945595D01*
X134072380Y-57850357D01*
X134120000Y-57707500D01*
X134167619Y-57659880D01*
X135072380Y-56755119D02*
X135072380Y-57231309D01*
X134072380Y-57231309D01*
X135072380Y-56421785D02*
X134072380Y-56421785D01*
X135072380Y-55850357D02*
X134500952Y-56278928D01*
X134072380Y-55850357D02*
X134643809Y-56421785D01*
X135072380Y-54897976D02*
X135072380Y-55469404D01*
X135072380Y-55183690D02*
X134072380Y-55183690D01*
X134215238Y-55278928D01*
X134310476Y-55374166D01*
X134358095Y-55469404D01*
X152566666Y-56326547D02*
X152566666Y-55850357D01*
X152852380Y-56421785D02*
X151852380Y-56088452D01*
X152852380Y-55755119D01*
X152852380Y-55374166D02*
X152852380Y-55183690D01*
X152804761Y-55088452D01*
X152757142Y-55040833D01*
X152614285Y-54945595D01*
X152423809Y-54897976D01*
X152042857Y-54897976D01*
X151947619Y-54945595D01*
X151900000Y-54993214D01*
X151852380Y-55088452D01*
X151852380Y-55278928D01*
X151900000Y-55374166D01*
X151947619Y-55421785D01*
X152042857Y-55469404D01*
X152280952Y-55469404D01*
X152376190Y-55421785D01*
X152423809Y-55374166D01*
X152471428Y-55278928D01*
X152471428Y-55088452D01*
X152423809Y-54993214D01*
X152376190Y-54945595D01*
X152280952Y-54897976D01*
X159948571Y-69181071D02*
X159996190Y-69038214D01*
X160043809Y-68990595D01*
X160139047Y-68942976D01*
X160281904Y-68942976D01*
X160377142Y-68990595D01*
X160424761Y-69038214D01*
X160472380Y-69133452D01*
X160472380Y-69514404D01*
X159472380Y-69514404D01*
X159472380Y-69181071D01*
X159520000Y-69085833D01*
X159567619Y-69038214D01*
X159662857Y-68990595D01*
X159758095Y-68990595D01*
X159853333Y-69038214D01*
X159900952Y-69085833D01*
X159948571Y-69181071D01*
X159948571Y-69514404D01*
X160472380Y-67990595D02*
X160472380Y-68562023D01*
X160472380Y-68276309D02*
X159472380Y-68276309D01*
X159615238Y-68371547D01*
X159710476Y-68466785D01*
X159758095Y-68562023D01*
X159472380Y-67657261D02*
X159472380Y-66990595D01*
X160472380Y-67419166D01*
X144946666Y-56326547D02*
X144946666Y-55850357D01*
X145232380Y-56421785D02*
X144232380Y-56088452D01*
X145232380Y-55755119D01*
X144232380Y-54945595D02*
X144232380Y-55421785D01*
X144708571Y-55469404D01*
X144660952Y-55421785D01*
X144613333Y-55326547D01*
X144613333Y-55088452D01*
X144660952Y-54993214D01*
X144708571Y-54945595D01*
X144803809Y-54897976D01*
X145041904Y-54897976D01*
X145137142Y-54945595D01*
X145184761Y-54993214D01*
X145232380Y-55088452D01*
X145232380Y-55326547D01*
X145184761Y-55421785D01*
X145137142Y-55469404D01*
X154868571Y-69181071D02*
X154916190Y-69038214D01*
X154963809Y-68990595D01*
X155059047Y-68942976D01*
X155201904Y-68942976D01*
X155297142Y-68990595D01*
X155344761Y-69038214D01*
X155392380Y-69133452D01*
X155392380Y-69514404D01*
X154392380Y-69514404D01*
X154392380Y-69181071D01*
X154440000Y-69085833D01*
X154487619Y-69038214D01*
X154582857Y-68990595D01*
X154678095Y-68990595D01*
X154773333Y-69038214D01*
X154820952Y-69085833D01*
X154868571Y-69181071D01*
X154868571Y-69514404D01*
X155392380Y-67990595D02*
X155392380Y-68562023D01*
X155392380Y-68276309D02*
X154392380Y-68276309D01*
X154535238Y-68371547D01*
X154630476Y-68466785D01*
X154678095Y-68562023D01*
X155392380Y-67514404D02*
X155392380Y-67323928D01*
X155344761Y-67228690D01*
X155297142Y-67181071D01*
X155154285Y-67085833D01*
X154963809Y-67038214D01*
X154582857Y-67038214D01*
X154487619Y-67085833D01*
X154440000Y-67133452D01*
X154392380Y-67228690D01*
X154392380Y-67419166D01*
X154440000Y-67514404D01*
X154487619Y-67562023D01*
X154582857Y-67609642D01*
X154820952Y-67609642D01*
X154916190Y-67562023D01*
X154963809Y-67514404D01*
X155011428Y-67419166D01*
X155011428Y-67228690D01*
X154963809Y-67133452D01*
X154916190Y-67085833D01*
X154820952Y-67038214D01*
X159520000Y-62659880D02*
X159472380Y-62755119D01*
X159472380Y-62897976D01*
X159520000Y-63040833D01*
X159615238Y-63136071D01*
X159710476Y-63183690D01*
X159900952Y-63231309D01*
X160043809Y-63231309D01*
X160234285Y-63183690D01*
X160329523Y-63136071D01*
X160424761Y-63040833D01*
X160472380Y-62897976D01*
X160472380Y-62802738D01*
X160424761Y-62659880D01*
X160377142Y-62612261D01*
X160043809Y-62612261D01*
X160043809Y-62802738D01*
X160377142Y-61612261D02*
X160424761Y-61659880D01*
X160472380Y-61802738D01*
X160472380Y-61897976D01*
X160424761Y-62040833D01*
X160329523Y-62136071D01*
X160234285Y-62183690D01*
X160043809Y-62231309D01*
X159900952Y-62231309D01*
X159710476Y-62183690D01*
X159615238Y-62136071D01*
X159520000Y-62040833D01*
X159472380Y-61897976D01*
X159472380Y-61802738D01*
X159520000Y-61659880D01*
X159567619Y-61612261D01*
X160472380Y-60707500D02*
X160472380Y-61183690D01*
X159472380Y-61183690D01*
X160472380Y-60374166D02*
X159472380Y-60374166D01*
X160472380Y-59802738D02*
X159900952Y-60231309D01*
X159472380Y-59802738D02*
X160043809Y-60374166D01*
X159472380Y-59469404D02*
X159472380Y-58850357D01*
X159853333Y-59183690D01*
X159853333Y-59040833D01*
X159900952Y-58945595D01*
X159948571Y-58897976D01*
X160043809Y-58850357D01*
X160281904Y-58850357D01*
X160377142Y-58897976D01*
X160424761Y-58945595D01*
X160472380Y-59040833D01*
X160472380Y-59326547D01*
X160424761Y-59421785D01*
X160377142Y-59469404D01*
X159424761Y-57707500D02*
X160710476Y-58564642D01*
X160472380Y-57374166D02*
X159472380Y-57374166D01*
X159472380Y-57136071D01*
X159520000Y-56993214D01*
X159615238Y-56897976D01*
X159710476Y-56850357D01*
X159900952Y-56802738D01*
X160043809Y-56802738D01*
X160234285Y-56850357D01*
X160329523Y-56897976D01*
X160424761Y-56993214D01*
X160472380Y-57136071D01*
X160472380Y-57374166D01*
X159805714Y-55945595D02*
X160472380Y-55945595D01*
X159424761Y-56183690D02*
X160139047Y-56421785D01*
X160139047Y-55802738D01*
X160472380Y-54897976D02*
X160472380Y-55469404D01*
X160472380Y-55183690D02*
X159472380Y-55183690D01*
X159615238Y-55278928D01*
X159710476Y-55374166D01*
X159758095Y-55469404D01*
X163012380Y-57374166D02*
X162012380Y-57374166D01*
X162012380Y-57136071D01*
X162060000Y-56993214D01*
X162155238Y-56897976D01*
X162250476Y-56850357D01*
X162440952Y-56802738D01*
X162583809Y-56802738D01*
X162774285Y-56850357D01*
X162869523Y-56897976D01*
X162964761Y-56993214D01*
X163012380Y-57136071D01*
X163012380Y-57374166D01*
X162345714Y-55945595D02*
X163012380Y-55945595D01*
X161964761Y-56183690D02*
X162679047Y-56421785D01*
X162679047Y-55802738D01*
X162012380Y-55231309D02*
X162012380Y-55136071D01*
X162060000Y-55040833D01*
X162107619Y-54993214D01*
X162202857Y-54945595D01*
X162393333Y-54897976D01*
X162631428Y-54897976D01*
X162821904Y-54945595D01*
X162917142Y-54993214D01*
X162964761Y-55040833D01*
X163012380Y-55136071D01*
X163012380Y-55231309D01*
X162964761Y-55326547D01*
X162917142Y-55374166D01*
X162821904Y-55421785D01*
X162631428Y-55469404D01*
X162393333Y-55469404D01*
X162202857Y-55421785D01*
X162107619Y-55374166D01*
X162060000Y-55326547D01*
X162012380Y-55231309D01*
D11*
X116869981Y-57404000D02*
G75*
G03*
X116869981Y-57404000I-283981J0D01*
G01*
X101294000Y-71220000D02*
X94794000Y-71220000D01*
X94794000Y-64280000D02*
X94794000Y-64280000D01*
X93484000Y-72263000D02*
X93484000Y-52197000D01*
X97274000Y-54753000D02*
X96274000Y-54753000D01*
X93484000Y-60180000D02*
X94794000Y-60180000D01*
X101294000Y-53240000D02*
X101294000Y-71220000D01*
X96774000Y-55753000D02*
X97274000Y-54753000D01*
X94794000Y-60180000D02*
X94794000Y-53240000D01*
X102604000Y-72263000D02*
X93484000Y-72263000D01*
X94794000Y-71220000D02*
X94794000Y-64280000D01*
X94794000Y-53240000D02*
X101294000Y-53240000D01*
X94794000Y-64280000D02*
X93484000Y-64280000D01*
X96274000Y-54753000D02*
X96774000Y-55753000D01*
X102604000Y-52197000D02*
X102604000Y-72263000D01*
X93484000Y-52197000D02*
X102604000Y-52197000D01*
%LPC*%
D12*
X116586000Y-55880000D03*
D13*
X114046000Y-53340000D03*
X114046000Y-55880000D03*
X111506000Y-53340000D03*
X111506000Y-55880000D03*
X108966000Y-53340000D03*
X106426000Y-55880000D03*
X108966000Y-55880000D03*
X106426000Y-58420000D03*
X108966000Y-58420000D03*
X106426000Y-60960000D03*
X108966000Y-60960000D03*
X106426000Y-63500000D03*
X108966000Y-63500000D03*
X106426000Y-66040000D03*
X108966000Y-66040000D03*
X106426000Y-68580000D03*
X108966000Y-71120000D03*
X108966000Y-68580000D03*
X111506000Y-71120000D03*
X111506000Y-68580000D03*
X114046000Y-71120000D03*
X114046000Y-68580000D03*
X116586000Y-71120000D03*
X116586000Y-68580000D03*
X119126000Y-71120000D03*
X119126000Y-68580000D03*
X121666000Y-71120000D03*
X124206000Y-68580000D03*
X121666000Y-68580000D03*
X124206000Y-66040000D03*
X121666000Y-66040000D03*
X124206000Y-63500000D03*
X121666000Y-63500000D03*
X124206000Y-60960000D03*
X121666000Y-60960000D03*
X124206000Y-58420000D03*
X121666000Y-58420000D03*
X124206000Y-55880000D03*
X121666000Y-53340000D03*
X121666000Y-55880000D03*
X119126000Y-53340000D03*
X119126000Y-55880000D03*
X116586000Y-53340000D03*
D14*
X96774000Y-57150000D03*
D15*
X99314000Y-57150000D03*
X96774000Y-59690000D03*
X99314000Y-59690000D03*
X96774000Y-62230000D03*
X99314000Y-62230000D03*
X96774000Y-64770000D03*
X99314000Y-64770000D03*
X96774000Y-67310000D03*
X99314000Y-67310000D03*
D16*
X129535000Y-71120000D03*
D17*
X132075000Y-71120000D03*
X134615000Y-71120000D03*
X137155000Y-71120000D03*
X139695000Y-71120000D03*
X142235000Y-71120000D03*
X144775000Y-71120000D03*
X147315000Y-71120000D03*
X149855000Y-71120000D03*
X152395000Y-71120000D03*
X154935000Y-71120000D03*
X157475000Y-71120000D03*
X160015000Y-71120000D03*
X162555000Y-71120000D03*
X165095000Y-71120000D03*
X167635000Y-71120000D03*
X170175000Y-71120000D03*
X172715000Y-71120000D03*
D16*
X129540000Y-53340000D03*
D17*
X132080000Y-53340000D03*
X134620000Y-53340000D03*
X137160000Y-53340000D03*
X139700000Y-53340000D03*
X142240000Y-53340000D03*
X144780000Y-53340000D03*
X147320000Y-53340000D03*
X149860000Y-53340000D03*
X152400000Y-53340000D03*
X154940000Y-53340000D03*
X157480000Y-53340000D03*
X160020000Y-53340000D03*
X162560000Y-53340000D03*
X165100000Y-53340000D03*
X167640000Y-53340000D03*
X170180000Y-53340000D03*
X172720000Y-53340000D03*
M02*
