%TF.GenerationSoftware,KiCad,Pcbnew,7.0.5-0*%
%TF.CreationDate,2023-06-22T12:24:31+02:00*%
%TF.ProjectId,atf1504_plcc44_breakout,61746631-3530-4345-9f70-6c636334345f,A*%
%TF.SameCoordinates,Original*%
%TF.FileFunction,Drillmap*%
%TF.FilePolarity,Positive*%
%FSLAX45Y45*%
G04 Gerber Fmt 4.5, Leading zero omitted, Abs format (unit mm)*
G04 Created by KiCad (PCBNEW 7.0.5-0) date 2023-06-22 12:24:31*
%MOMM*%
%LPD*%
G01*
G04 APERTURE LIST*
%ADD10C,0.100000*%
%ADD11C,0.200000*%
G04 APERTURE END LIST*
D10*
X9334500Y-5207000D02*
X17399000Y-5207000D01*
X17399000Y-7239000D01*
X9334500Y-7239000D01*
X9334500Y-5207000D01*
D11*
X9590277Y-7555484D02*
X9590277Y-7355484D01*
X9590277Y-7355484D02*
X9637896Y-7355484D01*
X9637896Y-7355484D02*
X9666467Y-7365008D01*
X9666467Y-7365008D02*
X9685515Y-7384055D01*
X9685515Y-7384055D02*
X9695039Y-7403103D01*
X9695039Y-7403103D02*
X9704563Y-7441198D01*
X9704563Y-7441198D02*
X9704563Y-7469769D01*
X9704563Y-7469769D02*
X9695039Y-7507865D01*
X9695039Y-7507865D02*
X9685515Y-7526912D01*
X9685515Y-7526912D02*
X9666467Y-7545960D01*
X9666467Y-7545960D02*
X9637896Y-7555484D01*
X9637896Y-7555484D02*
X9590277Y-7555484D01*
X9790277Y-7555484D02*
X9790277Y-7422150D01*
X9790277Y-7460246D02*
X9799801Y-7441198D01*
X9799801Y-7441198D02*
X9809324Y-7431674D01*
X9809324Y-7431674D02*
X9828372Y-7422150D01*
X9828372Y-7422150D02*
X9847420Y-7422150D01*
X9914086Y-7555484D02*
X9914086Y-7422150D01*
X9914086Y-7355484D02*
X9904563Y-7365008D01*
X9904563Y-7365008D02*
X9914086Y-7374531D01*
X9914086Y-7374531D02*
X9923610Y-7365008D01*
X9923610Y-7365008D02*
X9914086Y-7355484D01*
X9914086Y-7355484D02*
X9914086Y-7374531D01*
X10037896Y-7555484D02*
X10018848Y-7545960D01*
X10018848Y-7545960D02*
X10009324Y-7526912D01*
X10009324Y-7526912D02*
X10009324Y-7355484D01*
X10142658Y-7555484D02*
X10123610Y-7545960D01*
X10123610Y-7545960D02*
X10114086Y-7526912D01*
X10114086Y-7526912D02*
X10114086Y-7355484D01*
X10371229Y-7555484D02*
X10371229Y-7355484D01*
X10371229Y-7355484D02*
X10437896Y-7498341D01*
X10437896Y-7498341D02*
X10504563Y-7355484D01*
X10504563Y-7355484D02*
X10504563Y-7555484D01*
X10685515Y-7555484D02*
X10685515Y-7450722D01*
X10685515Y-7450722D02*
X10675991Y-7431674D01*
X10675991Y-7431674D02*
X10656944Y-7422150D01*
X10656944Y-7422150D02*
X10618848Y-7422150D01*
X10618848Y-7422150D02*
X10599801Y-7431674D01*
X10685515Y-7545960D02*
X10666467Y-7555484D01*
X10666467Y-7555484D02*
X10618848Y-7555484D01*
X10618848Y-7555484D02*
X10599801Y-7545960D01*
X10599801Y-7545960D02*
X10590277Y-7526912D01*
X10590277Y-7526912D02*
X10590277Y-7507865D01*
X10590277Y-7507865D02*
X10599801Y-7488817D01*
X10599801Y-7488817D02*
X10618848Y-7479293D01*
X10618848Y-7479293D02*
X10666467Y-7479293D01*
X10666467Y-7479293D02*
X10685515Y-7469769D01*
X10780753Y-7422150D02*
X10780753Y-7622150D01*
X10780753Y-7431674D02*
X10799801Y-7422150D01*
X10799801Y-7422150D02*
X10837896Y-7422150D01*
X10837896Y-7422150D02*
X10856944Y-7431674D01*
X10856944Y-7431674D02*
X10866467Y-7441198D01*
X10866467Y-7441198D02*
X10875991Y-7460246D01*
X10875991Y-7460246D02*
X10875991Y-7517388D01*
X10875991Y-7517388D02*
X10866467Y-7536436D01*
X10866467Y-7536436D02*
X10856944Y-7545960D01*
X10856944Y-7545960D02*
X10837896Y-7555484D01*
X10837896Y-7555484D02*
X10799801Y-7555484D01*
X10799801Y-7555484D02*
X10780753Y-7545960D01*
X10961705Y-7536436D02*
X10971229Y-7545960D01*
X10971229Y-7545960D02*
X10961705Y-7555484D01*
X10961705Y-7555484D02*
X10952182Y-7545960D01*
X10952182Y-7545960D02*
X10961705Y-7536436D01*
X10961705Y-7536436D02*
X10961705Y-7555484D01*
X10961705Y-7431674D02*
X10971229Y-7441198D01*
X10971229Y-7441198D02*
X10961705Y-7450722D01*
X10961705Y-7450722D02*
X10952182Y-7441198D01*
X10952182Y-7441198D02*
X10961705Y-7431674D01*
X10961705Y-7431674D02*
X10961705Y-7450722D01*
M02*
