G04 #@! TF.GenerationSoftware,KiCad,Pcbnew,(6.0.11-0)*
G04 #@! TF.CreationDate,2023-06-20T14:36:58+02:00*
G04 #@! TF.ProjectId,atf1504_plcc44_breakout,61746631-3530-4345-9f70-6c636334345f,A*
G04 #@! TF.SameCoordinates,Original*
G04 #@! TF.FileFunction,Legend,Bot*
G04 #@! TF.FilePolarity,Positive*
%FSLAX46Y46*%
G04 Gerber Fmt 4.6, Leading zero omitted, Abs format (unit mm)*
G04 Created by KiCad (PCBNEW (6.0.11-0)) date 2023-06-20 14:36:58*
%MOMM*%
%LPD*%
G01*
G04 APERTURE LIST*
G04 Aperture macros list*
%AMRoundRect*
0 Rectangle with rounded corners*
0 $1 Rounding radius*
0 $2 $3 $4 $5 $6 $7 $8 $9 X,Y pos of 4 corners*
0 Add a 4 corners polygon primitive as box body*
4,1,4,$2,$3,$4,$5,$6,$7,$8,$9,$2,$3,0*
0 Add four circle primitives for the rounded corners*
1,1,$1+$1,$2,$3*
1,1,$1+$1,$4,$5*
1,1,$1+$1,$6,$7*
1,1,$1+$1,$8,$9*
0 Add four rect primitives between the rounded corners*
20,1,$1+$1,$2,$3,$4,$5,0*
20,1,$1+$1,$4,$5,$6,$7,0*
20,1,$1+$1,$6,$7,$8,$9,0*
20,1,$1+$1,$8,$9,$2,$3,0*%
G04 Aperture macros list end*
%ADD10C,0.150000*%
%ADD11C,0.120000*%
%ADD12R,1.422400X1.422400*%
%ADD13C,1.422400*%
%ADD14RoundRect,0.250000X-0.600000X-0.600000X0.600000X-0.600000X0.600000X0.600000X-0.600000X0.600000X0*%
%ADD15C,1.700000*%
%ADD16RoundRect,0.250000X-0.337500X-0.475000X0.337500X-0.475000X0.337500X0.475000X-0.337500X0.475000X0*%
%ADD17RoundRect,0.250000X-0.475000X0.337500X-0.475000X-0.337500X0.475000X-0.337500X0.475000X0.337500X0*%
%ADD18RoundRect,0.250000X0.475000X-0.337500X0.475000X0.337500X-0.475000X0.337500X-0.475000X-0.337500X0*%
%ADD19R,1.700000X1.700000*%
%ADD20O,1.700000X1.700000*%
G04 APERTURE END LIST*
D10*
X170400023Y-60786666D02*
X169923833Y-60786666D01*
X170495261Y-61072380D02*
X170161928Y-60072380D01*
X169828595Y-61072380D01*
X169638119Y-60072380D02*
X169066690Y-60072380D01*
X169352404Y-61072380D02*
X169352404Y-60072380D01*
X168400023Y-60548571D02*
X168733357Y-60548571D01*
X168733357Y-61072380D02*
X168733357Y-60072380D01*
X168257166Y-60072380D01*
X167352404Y-61072380D02*
X167923833Y-61072380D01*
X167638119Y-61072380D02*
X167638119Y-60072380D01*
X167733357Y-60215238D01*
X167828595Y-60310476D01*
X167923833Y-60358095D01*
X166447642Y-60072380D02*
X166923833Y-60072380D01*
X166971452Y-60548571D01*
X166923833Y-60500952D01*
X166828595Y-60453333D01*
X166590500Y-60453333D01*
X166495261Y-60500952D01*
X166447642Y-60548571D01*
X166400023Y-60643809D01*
X166400023Y-60881904D01*
X166447642Y-60977142D01*
X166495261Y-61024761D01*
X166590500Y-61072380D01*
X166828595Y-61072380D01*
X166923833Y-61024761D01*
X166971452Y-60977142D01*
X165780976Y-60072380D02*
X165685738Y-60072380D01*
X165590500Y-60120000D01*
X165542880Y-60167619D01*
X165495261Y-60262857D01*
X165447642Y-60453333D01*
X165447642Y-60691428D01*
X165495261Y-60881904D01*
X165542880Y-60977142D01*
X165590500Y-61024761D01*
X165685738Y-61072380D01*
X165780976Y-61072380D01*
X165876214Y-61024761D01*
X165923833Y-60977142D01*
X165971452Y-60881904D01*
X166019071Y-60691428D01*
X166019071Y-60453333D01*
X165971452Y-60262857D01*
X165923833Y-60167619D01*
X165876214Y-60120000D01*
X165780976Y-60072380D01*
X164590500Y-60405714D02*
X164590500Y-61072380D01*
X164828595Y-60024761D02*
X165066690Y-60739047D01*
X164447642Y-60739047D01*
X162971452Y-60548571D02*
X162828595Y-60596190D01*
X162780976Y-60643809D01*
X162733357Y-60739047D01*
X162733357Y-60881904D01*
X162780976Y-60977142D01*
X162828595Y-61024761D01*
X162923833Y-61072380D01*
X163304785Y-61072380D01*
X163304785Y-60072380D01*
X162971452Y-60072380D01*
X162876214Y-60120000D01*
X162828595Y-60167619D01*
X162780976Y-60262857D01*
X162780976Y-60358095D01*
X162828595Y-60453333D01*
X162876214Y-60500952D01*
X162971452Y-60548571D01*
X163304785Y-60548571D01*
X162304785Y-61072380D02*
X162304785Y-60405714D01*
X162304785Y-60596190D02*
X162257166Y-60500952D01*
X162209547Y-60453333D01*
X162114309Y-60405714D01*
X162019071Y-60405714D01*
X161304785Y-61024761D02*
X161400023Y-61072380D01*
X161590500Y-61072380D01*
X161685738Y-61024761D01*
X161733357Y-60929523D01*
X161733357Y-60548571D01*
X161685738Y-60453333D01*
X161590500Y-60405714D01*
X161400023Y-60405714D01*
X161304785Y-60453333D01*
X161257166Y-60548571D01*
X161257166Y-60643809D01*
X161733357Y-60739047D01*
X160400023Y-61072380D02*
X160400023Y-60548571D01*
X160447642Y-60453333D01*
X160542880Y-60405714D01*
X160733357Y-60405714D01*
X160828595Y-60453333D01*
X160400023Y-61024761D02*
X160495261Y-61072380D01*
X160733357Y-61072380D01*
X160828595Y-61024761D01*
X160876214Y-60929523D01*
X160876214Y-60834285D01*
X160828595Y-60739047D01*
X160733357Y-60691428D01*
X160495261Y-60691428D01*
X160400023Y-60643809D01*
X159923833Y-61072380D02*
X159923833Y-60072380D01*
X159828595Y-60691428D02*
X159542880Y-61072380D01*
X159542880Y-60405714D02*
X159923833Y-60786666D01*
X158971452Y-61072380D02*
X159066690Y-61024761D01*
X159114309Y-60977142D01*
X159161928Y-60881904D01*
X159161928Y-60596190D01*
X159114309Y-60500952D01*
X159066690Y-60453333D01*
X158971452Y-60405714D01*
X158828595Y-60405714D01*
X158733357Y-60453333D01*
X158685738Y-60500952D01*
X158638119Y-60596190D01*
X158638119Y-60881904D01*
X158685738Y-60977142D01*
X158733357Y-61024761D01*
X158828595Y-61072380D01*
X158971452Y-61072380D01*
X157780976Y-60405714D02*
X157780976Y-61072380D01*
X158209547Y-60405714D02*
X158209547Y-60929523D01*
X158161928Y-61024761D01*
X158066690Y-61072380D01*
X157923833Y-61072380D01*
X157828595Y-61024761D01*
X157780976Y-60977142D01*
X157447642Y-60405714D02*
X157066690Y-60405714D01*
X157304785Y-60072380D02*
X157304785Y-60929523D01*
X157257166Y-61024761D01*
X157161928Y-61072380D01*
X157066690Y-61072380D01*
X170400023Y-61777619D02*
X170352404Y-61730000D01*
X170257166Y-61682380D01*
X170019071Y-61682380D01*
X169923833Y-61730000D01*
X169876214Y-61777619D01*
X169828595Y-61872857D01*
X169828595Y-61968095D01*
X169876214Y-62110952D01*
X170447642Y-62682380D01*
X169828595Y-62682380D01*
X169209547Y-61682380D02*
X169114309Y-61682380D01*
X169019071Y-61730000D01*
X168971452Y-61777619D01*
X168923833Y-61872857D01*
X168876214Y-62063333D01*
X168876214Y-62301428D01*
X168923833Y-62491904D01*
X168971452Y-62587142D01*
X169019071Y-62634761D01*
X169114309Y-62682380D01*
X169209547Y-62682380D01*
X169304785Y-62634761D01*
X169352404Y-62587142D01*
X169400023Y-62491904D01*
X169447642Y-62301428D01*
X169447642Y-62063333D01*
X169400023Y-61872857D01*
X169352404Y-61777619D01*
X169304785Y-61730000D01*
X169209547Y-61682380D01*
X168495261Y-61777619D02*
X168447642Y-61730000D01*
X168352404Y-61682380D01*
X168114309Y-61682380D01*
X168019071Y-61730000D01*
X167971452Y-61777619D01*
X167923833Y-61872857D01*
X167923833Y-61968095D01*
X167971452Y-62110952D01*
X168542880Y-62682380D01*
X167923833Y-62682380D01*
X167590500Y-61682380D02*
X166971452Y-61682380D01*
X167304785Y-62063333D01*
X167161928Y-62063333D01*
X167066690Y-62110952D01*
X167019071Y-62158571D01*
X166971452Y-62253809D01*
X166971452Y-62491904D01*
X167019071Y-62587142D01*
X167066690Y-62634761D01*
X167161928Y-62682380D01*
X167447642Y-62682380D01*
X167542880Y-62634761D01*
X167590500Y-62587142D01*
X166542880Y-62301428D02*
X165780976Y-62301428D01*
X165114309Y-61682380D02*
X165019071Y-61682380D01*
X164923833Y-61730000D01*
X164876214Y-61777619D01*
X164828595Y-61872857D01*
X164780976Y-62063333D01*
X164780976Y-62301428D01*
X164828595Y-62491904D01*
X164876214Y-62587142D01*
X164923833Y-62634761D01*
X165019071Y-62682380D01*
X165114309Y-62682380D01*
X165209547Y-62634761D01*
X165257166Y-62587142D01*
X165304785Y-62491904D01*
X165352404Y-62301428D01*
X165352404Y-62063333D01*
X165304785Y-61872857D01*
X165257166Y-61777619D01*
X165209547Y-61730000D01*
X165114309Y-61682380D01*
X163923833Y-61682380D02*
X164114309Y-61682380D01*
X164209547Y-61730000D01*
X164257166Y-61777619D01*
X164352404Y-61920476D01*
X164400023Y-62110952D01*
X164400023Y-62491904D01*
X164352404Y-62587142D01*
X164304785Y-62634761D01*
X164209547Y-62682380D01*
X164019071Y-62682380D01*
X163923833Y-62634761D01*
X163876214Y-62587142D01*
X163828595Y-62491904D01*
X163828595Y-62253809D01*
X163876214Y-62158571D01*
X163923833Y-62110952D01*
X164019071Y-62063333D01*
X164209547Y-62063333D01*
X164304785Y-62110952D01*
X164352404Y-62158571D01*
X164400023Y-62253809D01*
X163400023Y-62301428D02*
X162638119Y-62301428D01*
X161638119Y-62682380D02*
X162209547Y-62682380D01*
X161923833Y-62682380D02*
X161923833Y-61682380D01*
X162019071Y-61825238D01*
X162114309Y-61920476D01*
X162209547Y-61968095D01*
X161304785Y-61682380D02*
X160638119Y-61682380D01*
X161066690Y-62682380D01*
X159495261Y-62301428D02*
X158733357Y-62301428D01*
X156923833Y-62682380D02*
X157257166Y-62206190D01*
X157495261Y-62682380D02*
X157495261Y-61682380D01*
X157114309Y-61682380D01*
X157019071Y-61730000D01*
X156971452Y-61777619D01*
X156923833Y-61872857D01*
X156923833Y-62015714D01*
X156971452Y-62110952D01*
X157019071Y-62158571D01*
X157114309Y-62206190D01*
X157495261Y-62206190D01*
X156114309Y-62634761D02*
X156209547Y-62682380D01*
X156400023Y-62682380D01*
X156495261Y-62634761D01*
X156542880Y-62539523D01*
X156542880Y-62158571D01*
X156495261Y-62063333D01*
X156400023Y-62015714D01*
X156209547Y-62015714D01*
X156114309Y-62063333D01*
X156066690Y-62158571D01*
X156066690Y-62253809D01*
X156542880Y-62349047D01*
X155733357Y-62015714D02*
X155495261Y-62682380D01*
X155257166Y-62015714D01*
X154161928Y-62396666D02*
X153685738Y-62396666D01*
X154257166Y-62682380D02*
X153923833Y-61682380D01*
X153590500Y-62682380D01*
X170400023Y-64006666D02*
X169923833Y-64006666D01*
X170495261Y-64292380D02*
X170161928Y-63292380D01*
X169828595Y-64292380D01*
X169066690Y-64292380D02*
X169066690Y-63292380D01*
X169066690Y-64244761D02*
X169161928Y-64292380D01*
X169352404Y-64292380D01*
X169447642Y-64244761D01*
X169495261Y-64197142D01*
X169542880Y-64101904D01*
X169542880Y-63816190D01*
X169495261Y-63720952D01*
X169447642Y-63673333D01*
X169352404Y-63625714D01*
X169161928Y-63625714D01*
X169066690Y-63673333D01*
X168590500Y-64292380D02*
X168590500Y-63625714D01*
X168590500Y-63816190D02*
X168542880Y-63720952D01*
X168495261Y-63673333D01*
X168400023Y-63625714D01*
X168304785Y-63625714D01*
X167971452Y-64292380D02*
X167971452Y-63625714D01*
X167971452Y-63292380D02*
X168019071Y-63340000D01*
X167971452Y-63387619D01*
X167923833Y-63340000D01*
X167971452Y-63292380D01*
X167971452Y-63387619D01*
X167114309Y-64244761D02*
X167209547Y-64292380D01*
X167400023Y-64292380D01*
X167495261Y-64244761D01*
X167542880Y-64149523D01*
X167542880Y-63768571D01*
X167495261Y-63673333D01*
X167400023Y-63625714D01*
X167209547Y-63625714D01*
X167114309Y-63673333D01*
X167066690Y-63768571D01*
X167066690Y-63863809D01*
X167542880Y-63959047D01*
X166638119Y-63625714D02*
X166638119Y-64292380D01*
X166638119Y-63720952D02*
X166590500Y-63673333D01*
X166495261Y-63625714D01*
X166352404Y-63625714D01*
X166257166Y-63673333D01*
X166209547Y-63768571D01*
X166209547Y-64292380D01*
X164971452Y-64292380D02*
X164971452Y-63292380D01*
X164400023Y-64292380D02*
X164828595Y-63720952D01*
X164400023Y-63292380D02*
X164971452Y-63863809D01*
X163828595Y-64292380D02*
X163923833Y-64244761D01*
X163971452Y-64197142D01*
X164019071Y-64101904D01*
X164019071Y-63816190D01*
X163971452Y-63720952D01*
X163923833Y-63673333D01*
X163828595Y-63625714D01*
X163685738Y-63625714D01*
X163590500Y-63673333D01*
X163542880Y-63720952D01*
X163495261Y-63816190D01*
X163495261Y-64101904D01*
X163542880Y-64197142D01*
X163590500Y-64244761D01*
X163685738Y-64292380D01*
X163828595Y-64292380D01*
X163066690Y-64292380D02*
X163066690Y-63292380D01*
X162638119Y-64292380D02*
X162638119Y-63768571D01*
X162685738Y-63673333D01*
X162780976Y-63625714D01*
X162923833Y-63625714D01*
X163019071Y-63673333D01*
X163066690Y-63720952D01*
X162019071Y-64292380D02*
X162114309Y-64244761D01*
X162161928Y-64149523D01*
X162161928Y-63292380D01*
X161638119Y-64292380D02*
X161638119Y-63292380D01*
X161638119Y-63673333D02*
X161542880Y-63625714D01*
X161352404Y-63625714D01*
X161257166Y-63673333D01*
X161209547Y-63720952D01*
X161161928Y-63816190D01*
X161161928Y-64101904D01*
X161209547Y-64197142D01*
X161257166Y-64244761D01*
X161352404Y-64292380D01*
X161542880Y-64292380D01*
X161638119Y-64244761D01*
X160352404Y-64244761D02*
X160447642Y-64292380D01*
X160638119Y-64292380D01*
X160733357Y-64244761D01*
X160780976Y-64149523D01*
X160780976Y-63768571D01*
X160733357Y-63673333D01*
X160638119Y-63625714D01*
X160447642Y-63625714D01*
X160352404Y-63673333D01*
X160304785Y-63768571D01*
X160304785Y-63863809D01*
X160780976Y-63959047D01*
X159447642Y-64244761D02*
X159542880Y-64292380D01*
X159733357Y-64292380D01*
X159828595Y-64244761D01*
X159876214Y-64197142D01*
X159923833Y-64101904D01*
X159923833Y-63816190D01*
X159876214Y-63720952D01*
X159828595Y-63673333D01*
X159733357Y-63625714D01*
X159542880Y-63625714D01*
X159447642Y-63673333D01*
X159019071Y-64292380D02*
X159019071Y-63292380D01*
X158923833Y-63911428D02*
X158638119Y-64292380D01*
X158638119Y-63625714D02*
X159019071Y-64006666D01*
X157828595Y-64244761D02*
X157923833Y-64292380D01*
X158114309Y-64292380D01*
X158209547Y-64244761D01*
X158257166Y-64149523D01*
X158257166Y-63768571D01*
X158209547Y-63673333D01*
X158114309Y-63625714D01*
X157923833Y-63625714D01*
X157828595Y-63673333D01*
X157780976Y-63768571D01*
X157780976Y-63863809D01*
X158257166Y-63959047D01*
X157352404Y-64292380D02*
X157352404Y-63625714D01*
X157352404Y-63816190D02*
X157304785Y-63720952D01*
X157257166Y-63673333D01*
X157161928Y-63625714D01*
X157066690Y-63625714D01*
D11*
X113784748Y-65305000D02*
X114307252Y-65305000D01*
X113784748Y-66775000D02*
X114307252Y-66775000D01*
X128424000Y-62095748D02*
X128424000Y-62618252D01*
X129894000Y-62095748D02*
X129894000Y-62618252D01*
X112368000Y-62745252D02*
X112368000Y-62222748D01*
X110898000Y-62745252D02*
X110898000Y-62222748D01*
X118518000Y-63238748D02*
X118518000Y-63761252D01*
X119988000Y-63238748D02*
X119988000Y-63761252D01*
X116324748Y-59155000D02*
X116847252Y-59155000D01*
X116324748Y-57685000D02*
X116847252Y-57685000D01*
%LPC*%
D12*
X116586000Y-55880000D03*
D13*
X114046000Y-53340000D03*
X114046000Y-55880000D03*
X111506000Y-53340000D03*
X111506000Y-55880000D03*
X108966000Y-53340000D03*
X106426000Y-55880000D03*
X108966000Y-55880000D03*
X106426000Y-58420000D03*
X108966000Y-58420000D03*
X106426000Y-60960000D03*
X108966000Y-60960000D03*
X106426000Y-63500000D03*
X108966000Y-63500000D03*
X106426000Y-66040000D03*
X108966000Y-66040000D03*
X106426000Y-68580000D03*
X108966000Y-71120000D03*
X108966000Y-68580000D03*
X111506000Y-71120000D03*
X111506000Y-68580000D03*
X114046000Y-71120000D03*
X114046000Y-68580000D03*
X116586000Y-71120000D03*
X116586000Y-68580000D03*
X119126000Y-71120000D03*
X119126000Y-68580000D03*
X121666000Y-71120000D03*
X124206000Y-68580000D03*
X121666000Y-68580000D03*
X124206000Y-66040000D03*
X121666000Y-66040000D03*
X124206000Y-63500000D03*
X121666000Y-63500000D03*
X124206000Y-60960000D03*
X121666000Y-60960000D03*
X124206000Y-58420000D03*
X121666000Y-58420000D03*
X124206000Y-55880000D03*
X121666000Y-53340000D03*
X121666000Y-55880000D03*
X119126000Y-53340000D03*
X119126000Y-55880000D03*
X116586000Y-53340000D03*
D14*
X96774000Y-57150000D03*
D15*
X99314000Y-57150000D03*
X96774000Y-59690000D03*
X99314000Y-59690000D03*
X96774000Y-62230000D03*
X99314000Y-62230000D03*
X96774000Y-64770000D03*
X99314000Y-64770000D03*
X96774000Y-67310000D03*
X99314000Y-67310000D03*
D16*
X113008500Y-66040000D03*
X115083500Y-66040000D03*
D17*
X129159000Y-61319500D03*
X129159000Y-63394500D03*
D18*
X111633000Y-63521500D03*
X111633000Y-61446500D03*
D17*
X119253000Y-62462500D03*
X119253000Y-64537500D03*
D19*
X129535000Y-71120000D03*
D20*
X132075000Y-71120000D03*
X134615000Y-71120000D03*
X137155000Y-71120000D03*
X139695000Y-71120000D03*
X142235000Y-71120000D03*
X144775000Y-71120000D03*
X147315000Y-71120000D03*
X149855000Y-71120000D03*
X152395000Y-71120000D03*
X154935000Y-71120000D03*
X157475000Y-71120000D03*
X160015000Y-71120000D03*
X162555000Y-71120000D03*
X165095000Y-71120000D03*
X167635000Y-71120000D03*
X170175000Y-71120000D03*
X172715000Y-71120000D03*
D19*
X129540000Y-53340000D03*
D20*
X132080000Y-53340000D03*
X134620000Y-53340000D03*
X137160000Y-53340000D03*
X139700000Y-53340000D03*
X142240000Y-53340000D03*
X144780000Y-53340000D03*
X147320000Y-53340000D03*
X149860000Y-53340000D03*
X152400000Y-53340000D03*
X154940000Y-53340000D03*
X157480000Y-53340000D03*
X160020000Y-53340000D03*
X162560000Y-53340000D03*
X165100000Y-53340000D03*
X167640000Y-53340000D03*
X170180000Y-53340000D03*
X172720000Y-53340000D03*
D16*
X115548500Y-58420000D03*
X117623500Y-58420000D03*
M02*
