%TF.GenerationSoftware,KiCad,Pcbnew,(6.0.11-0)*%
%TF.CreationDate,2023-06-20T14:37:00+02:00*%
%TF.ProjectId,atf1504_plcc44_breakout,61746631-3530-4345-9f70-6c636334345f,A*%
%TF.SameCoordinates,Original*%
%TF.FileFunction,Drillmap*%
%TF.FilePolarity,Positive*%
%FSLAX45Y45*%
G04 Gerber Fmt 4.5, Leading zero omitted, Abs format (unit mm)*
G04 Created by KiCad (PCBNEW (6.0.11-0)) date 2023-06-20 14:37:00*
%MOMM*%
%LPD*%
G01*
G04 APERTURE LIST*
%ADD10C,0.100000*%
%ADD11C,0.200000*%
G04 APERTURE END LIST*
D10*
X9334500Y-5207000D02*
X17399000Y-5207000D01*
X17399000Y-5207000D02*
X17399000Y-7239000D01*
X17399000Y-7239000D02*
X9334500Y-7239000D01*
X9334500Y-7239000D02*
X9334500Y-5207000D01*
D11*
X9587119Y-7554476D02*
X9587119Y-7354476D01*
X9634738Y-7354476D01*
X9663310Y-7364000D01*
X9682357Y-7383048D01*
X9691881Y-7402095D01*
X9701405Y-7440190D01*
X9701405Y-7468762D01*
X9691881Y-7506857D01*
X9682357Y-7525905D01*
X9663310Y-7544952D01*
X9634738Y-7554476D01*
X9587119Y-7554476D01*
X9787119Y-7554476D02*
X9787119Y-7421143D01*
X9787119Y-7459238D02*
X9796643Y-7440190D01*
X9806167Y-7430667D01*
X9825214Y-7421143D01*
X9844262Y-7421143D01*
X9910929Y-7554476D02*
X9910929Y-7421143D01*
X9910929Y-7354476D02*
X9901405Y-7364000D01*
X9910929Y-7373524D01*
X9920452Y-7364000D01*
X9910929Y-7354476D01*
X9910929Y-7373524D01*
X10034738Y-7554476D02*
X10015690Y-7544952D01*
X10006167Y-7525905D01*
X10006167Y-7354476D01*
X10139500Y-7554476D02*
X10120452Y-7544952D01*
X10110929Y-7525905D01*
X10110929Y-7354476D01*
X10368071Y-7554476D02*
X10368071Y-7354476D01*
X10434738Y-7497333D01*
X10501405Y-7354476D01*
X10501405Y-7554476D01*
X10682357Y-7554476D02*
X10682357Y-7449714D01*
X10672833Y-7430667D01*
X10653786Y-7421143D01*
X10615690Y-7421143D01*
X10596643Y-7430667D01*
X10682357Y-7544952D02*
X10663310Y-7554476D01*
X10615690Y-7554476D01*
X10596643Y-7544952D01*
X10587119Y-7525905D01*
X10587119Y-7506857D01*
X10596643Y-7487809D01*
X10615690Y-7478286D01*
X10663310Y-7478286D01*
X10682357Y-7468762D01*
X10777595Y-7421143D02*
X10777595Y-7621143D01*
X10777595Y-7430667D02*
X10796643Y-7421143D01*
X10834738Y-7421143D01*
X10853786Y-7430667D01*
X10863310Y-7440190D01*
X10872833Y-7459238D01*
X10872833Y-7516381D01*
X10863310Y-7535428D01*
X10853786Y-7544952D01*
X10834738Y-7554476D01*
X10796643Y-7554476D01*
X10777595Y-7544952D01*
X10958548Y-7535428D02*
X10968071Y-7544952D01*
X10958548Y-7554476D01*
X10949024Y-7544952D01*
X10958548Y-7535428D01*
X10958548Y-7554476D01*
X10958548Y-7430667D02*
X10968071Y-7440190D01*
X10958548Y-7449714D01*
X10949024Y-7440190D01*
X10958548Y-7430667D01*
X10958548Y-7449714D01*
M02*
