M48
; DRILL file {KiCad (6.0.11-0)} date 2023 June 20, Tuesday 14:37:00
; FORMAT={-:-/ absolute / metric / decimal}
; #@! TF.CreationDate,2023-06-20T14:37:00+02:00
; #@! TF.GenerationSoftware,Kicad,Pcbnew,(6.0.11-0)
; #@! TF.FileFunction,Plated,1,2,PTH
FMAT,2
METRIC
; #@! TA.AperFunction,Plated,PTH,ViaDrill
T1C0.300
; #@! TA.AperFunction,Plated,PTH,ViaDrill
T2C0.400
; #@! TA.AperFunction,Plated,PTH,ComponentDrill
T3C0.800
; #@! TA.AperFunction,Plated,PTH,ComponentDrill
T4C1.000
%
G90
G05
T1
X110.49Y-57.912
X111.76Y-66.421
X113.03Y-58.039
X119.888Y-60.452
X120.269Y-61.214
X120.523Y-58.801
X126.238Y-55.88
X126.492Y-60.833
X127.0Y-58.293
X127.381Y-60.706
X130.302Y-69.716
X131.445Y-69.85
X132.842Y-57.277
X133.048Y-68.532
X133.604Y-56.515
X135.636Y-56.515
X136.398Y-66.421
X143.637Y-58.547
X152.463Y-63.563
X152.781Y-64.516
T2
X115.768Y-61.397
X116.089Y-62.958
X116.813Y-60.911
X117.221Y-63.246
T3
X106.426Y-55.88
X106.426Y-58.42
X106.426Y-60.96
X106.426Y-63.5
X106.426Y-66.04
X106.426Y-68.58
X108.966Y-53.34
X108.966Y-55.88
X108.966Y-58.42
X108.966Y-60.96
X108.966Y-63.5
X108.966Y-66.04
X108.966Y-68.58
X108.966Y-71.12
X111.506Y-53.34
X111.506Y-55.88
X111.506Y-68.58
X111.506Y-71.12
X114.046Y-53.34
X114.046Y-55.88
X114.046Y-68.58
X114.046Y-71.12
X116.586Y-53.34
X116.586Y-55.88
X116.586Y-68.58
X116.586Y-71.12
X119.126Y-53.34
X119.126Y-55.88
X119.126Y-68.58
X119.126Y-71.12
X121.666Y-53.34
X121.666Y-55.88
X121.666Y-58.42
X121.666Y-60.96
X121.666Y-63.5
X121.666Y-66.04
X121.666Y-68.58
X121.666Y-71.12
X124.206Y-55.88
X124.206Y-58.42
X124.206Y-60.96
X124.206Y-63.5
X124.206Y-66.04
X124.206Y-68.58
T4
X96.774Y-57.15
X96.774Y-59.69
X96.774Y-62.23
X96.774Y-64.77
X96.774Y-67.31
X99.314Y-57.15
X99.314Y-59.69
X99.314Y-62.23
X99.314Y-64.77
X99.314Y-67.31
X129.535Y-71.12
X129.54Y-53.34
X132.075Y-71.12
X132.08Y-53.34
X134.615Y-71.12
X134.62Y-53.34
X137.155Y-71.12
X137.16Y-53.34
X139.695Y-71.12
X139.7Y-53.34
X142.235Y-71.12
X142.24Y-53.34
X144.775Y-71.12
X144.78Y-53.34
X147.315Y-71.12
X147.32Y-53.34
X149.855Y-71.12
X149.86Y-53.34
X152.395Y-71.12
X152.4Y-53.34
X154.935Y-71.12
X154.94Y-53.34
X157.475Y-71.12
X157.48Y-53.34
X160.015Y-71.12
X160.02Y-53.34
X162.555Y-71.12
X162.56Y-53.34
X165.095Y-71.12
X165.1Y-53.34
X167.635Y-71.12
X167.64Y-53.34
X170.175Y-71.12
X170.18Y-53.34
X172.715Y-71.12
X172.72Y-53.34
T0
M30
